<?xml version='1.0' encoding='utf-8'?>
<mlt title="Anonymous Submission" version="6.6.0" root="/home/maxhsu/Desktop/Desktop/Homework/G3-1/Project/videoedit" producer="main bin" LC_NUMERIC="en_US.UTF-8">
 <profile width="1920" frame_rate_den="1" height="1080" display_aspect_num="16" display_aspect_den="9" frame_rate_num="30" colorspace="709" sample_aspect_den="1" description="HD 1080p 30 fps" progressive="1" sample_aspect_num="1"/>
 <producer id="1" out="30964" in="0">
  <property name="length">30965</property>
  <property name="eof">pause</property>
  <property name="resource">2020-10-06 17-27-09.mkv</property>
  <property name="audio_index">1</property>
  <property name="video_index">0</property>
  <property name="mute_on_pause">1</property>
  <property name="mlt_service">avformat-novalidate</property>
  <property name="meta.media.nb_streams">2</property>
  <property name="meta.media.0.stream.type">video</property>
  <property name="meta.media.0.stream.frame_rate">30</property>
  <property name="meta.media.0.stream.sample_aspect_ratio">0</property>
  <property name="meta.media.0.codec.width">1280</property>
  <property name="meta.media.0.codec.height">720</property>
  <property name="meta.media.0.codec.rotate">0</property>
  <property name="meta.media.0.codec.frame_rate">30</property>
  <property name="meta.media.0.codec.pix_fmt">yuv420p</property>
  <property name="meta.media.0.codec.sample_aspect_ratio">0</property>
  <property name="meta.media.0.codec.colorspace">709</property>
  <property name="meta.media.0.codec.name">h264</property>
  <property name="meta.media.0.codec.long_name">H.264 / AVC / MPEG-4 AVC / MPEG-4 part 10</property>
  <property name="meta.media.0.codec.bit_rate">0</property>
  <property name="meta.attr.0.stream.DURATION.markup">00:17:12.166000000</property>
  <property name="meta.media.1.stream.type">audio</property>
  <property name="meta.media.1.codec.sample_fmt">fltp</property>
  <property name="meta.media.1.codec.sample_rate">44100</property>
  <property name="meta.media.1.codec.channels">2</property>
  <property name="meta.media.1.codec.name">aac</property>
  <property name="meta.media.1.codec.long_name">AAC (Advanced Audio Coding)</property>
  <property name="meta.media.1.codec.bit_rate">0</property>
  <property name="meta.attr.1.stream.title.markup">simple_aac_recording</property>
  <property name="meta.attr.1.stream.DURATION.markup">00:17:11.988000000</property>
  <property name="meta.attr.ENCODER.markup">Lavf58.29.100</property>
  <property name="seekable">1</property>
  <property name="meta.media.sample_aspect_num">1</property>
  <property name="meta.media.sample_aspect_den">1</property>
  <property name="aspect_ratio">1</property>
  <property name="kdenlive:folderid">-1</property>
  <property name="meta.media.frame_rate_num">30</property>
  <property name="meta.media.frame_rate_den">1</property>
  <property name="meta.media.colorspace">709</property>
  <property name="meta.media.color_trc">2</property>
  <property name="meta.media.width">1280</property>
  <property name="meta.media.height">720</property>
  <property name="meta.media.top_field_first">0</property>
  <property name="meta.media.progressive">1</property>
  <property name="kdenlive:file_size">59628643</property>
  <property name="kdenlive:file_hash">f78bd9d99d0521953392d033e7ccda43</property>
 </producer>
 <producer id="2" out="38236" in="0">
  <property name="length">38237</property>
  <property name="eof">pause</property>
  <property name="resource">2020-10-20 17-14-09.mkv</property>
  <property name="audio_index">1</property>
  <property name="video_index">0</property>
  <property name="mute_on_pause">1</property>
  <property name="mlt_service">avformat-novalidate</property>
  <property name="meta.media.nb_streams">2</property>
  <property name="meta.media.0.stream.type">video</property>
  <property name="meta.media.0.stream.frame_rate">30</property>
  <property name="meta.media.0.stream.sample_aspect_ratio">0</property>
  <property name="meta.media.0.codec.width">1280</property>
  <property name="meta.media.0.codec.height">720</property>
  <property name="meta.media.0.codec.rotate">0</property>
  <property name="meta.media.0.codec.frame_rate">30</property>
  <property name="meta.media.0.codec.pix_fmt">yuv420p</property>
  <property name="meta.media.0.codec.sample_aspect_ratio">0</property>
  <property name="meta.media.0.codec.colorspace">709</property>
  <property name="meta.media.0.codec.name">h264</property>
  <property name="meta.media.0.codec.long_name">H.264 / AVC / MPEG-4 AVC / MPEG-4 part 10</property>
  <property name="meta.media.0.codec.bit_rate">0</property>
  <property name="meta.attr.0.stream.DURATION.markup">00:21:14.566000000</property>
  <property name="meta.media.1.stream.type">audio</property>
  <property name="meta.media.1.codec.sample_fmt">fltp</property>
  <property name="meta.media.1.codec.sample_rate">44100</property>
  <property name="meta.media.1.codec.channels">2</property>
  <property name="meta.media.1.codec.name">aac</property>
  <property name="meta.media.1.codec.long_name">AAC (Advanced Audio Coding)</property>
  <property name="meta.media.1.codec.bit_rate">0</property>
  <property name="meta.attr.1.stream.title.markup">simple_aac_recording</property>
  <property name="meta.attr.1.stream.DURATION.markup">00:21:14.381000000</property>
  <property name="meta.attr.ENCODER.markup">Lavf58.29.100</property>
  <property name="seekable">1</property>
  <property name="meta.media.sample_aspect_num">1</property>
  <property name="meta.media.sample_aspect_den">1</property>
  <property name="aspect_ratio">1</property>
  <property name="kdenlive:folderid">-1</property>
  <property name="meta.media.frame_rate_num">30</property>
  <property name="meta.media.frame_rate_den">1</property>
  <property name="meta.media.colorspace">709</property>
  <property name="meta.media.color_trc">2</property>
  <property name="meta.media.width">1280</property>
  <property name="meta.media.height">720</property>
  <property name="meta.media.top_field_first">0</property>
  <property name="meta.media.progressive">1</property>
  <property name="kdenlive:file_size">66485739</property>
  <property name="kdenlive:file_hash">cae4da3a0dda7814ef88e0ef769f75f6</property>
 </producer>
 <producer id="3" title="Anonymous Submission" out="44415" in="0">
  <property name="length">44416</property>
  <property name="eof">pause</property>
  <property name="resource">2020-10-21 16-44-56.mkv</property>
  <property name="audio_index">1</property>
  <property name="video_index">0</property>
  <property name="mute_on_pause">1</property>
  <property name="mlt_service">avformat-novalidate</property>
  <property name="meta.media.nb_streams">2</property>
  <property name="meta.media.0.stream.type">video</property>
  <property name="meta.media.0.stream.frame_rate">30</property>
  <property name="meta.media.0.stream.sample_aspect_ratio">0</property>
  <property name="meta.media.0.codec.width">1280</property>
  <property name="meta.media.0.codec.height">720</property>
  <property name="meta.media.0.codec.rotate">0</property>
  <property name="meta.media.0.codec.frame_rate">30</property>
  <property name="meta.media.0.codec.pix_fmt">yuv420p</property>
  <property name="meta.media.0.codec.sample_aspect_ratio">0</property>
  <property name="meta.media.0.codec.colorspace">709</property>
  <property name="meta.media.0.codec.name">h264</property>
  <property name="meta.media.0.codec.long_name">H.264 / AVC / MPEG-4 AVC / MPEG-4 part 10</property>
  <property name="meta.media.0.codec.bit_rate">0</property>
  <property name="meta.attr.0.stream.DURATION.markup">00:24:40.533000000</property>
  <property name="meta.media.1.stream.type">audio</property>
  <property name="meta.media.1.codec.sample_fmt">fltp</property>
  <property name="meta.media.1.codec.sample_rate">44100</property>
  <property name="meta.media.1.codec.channels">2</property>
  <property name="meta.media.1.codec.name">aac</property>
  <property name="meta.media.1.codec.long_name">AAC (Advanced Audio Coding)</property>
  <property name="meta.media.1.codec.bit_rate">0</property>
  <property name="meta.attr.1.stream.title.markup">simple_aac_recording</property>
  <property name="meta.attr.1.stream.DURATION.markup">00:24:40.458000000</property>
  <property name="meta.attr.ENCODER.markup">Lavf58.29.100</property>
  <property name="seekable">1</property>
  <property name="meta.media.sample_aspect_num">1</property>
  <property name="meta.media.sample_aspect_den">1</property>
  <property name="aspect_ratio">1</property>
  <property name="kdenlive:folderid">-1</property>
  <property name="meta.media.frame_rate_num">30</property>
  <property name="meta.media.frame_rate_den">1</property>
  <property name="meta.media.colorspace">709</property>
  <property name="meta.media.color_trc">2</property>
  <property name="meta.media.width">1280</property>
  <property name="meta.media.height">720</property>
  <property name="meta.media.top_field_first">0</property>
  <property name="meta.media.progressive">1</property>
  <property name="kdenlive:file_size">55118377</property>
  <property name="kdenlive:file_hash">f2182e66d3381557a43575618d5bb78c</property>
  <property name="global_feed">1</property>
 </producer>
 <producer id="4" out="9008" in="0">
  <property name="length">9009</property>
  <property name="eof">pause</property>
  <property name="resource">GHAL1236.MP4</property>
  <property name="audio_index">1</property>
  <property name="video_index">0</property>
  <property name="mute_on_pause">1</property>
  <property name="mlt_service">avformat-novalidate</property>
  <property name="meta.media.nb_streams">5</property>
  <property name="meta.media.0.stream.type">video</property>
  <property name="meta.media.0.stream.frame_rate">59.9401</property>
  <property name="meta.media.0.stream.sample_aspect_ratio">0</property>
  <property name="meta.media.0.codec.width">1920</property>
  <property name="meta.media.0.codec.height">1080</property>
  <property name="meta.media.0.codec.rotate">0</property>
  <property name="meta.media.0.codec.frame_rate">59.9401</property>
  <property name="meta.media.0.codec.pix_fmt">yuvj420p</property>
  <property name="meta.media.0.codec.sample_aspect_ratio">1</property>
  <property name="meta.media.0.codec.colorspace">709</property>
  <property name="meta.media.0.codec.color_trc">1</property>
  <property name="meta.media.0.codec.name">h264</property>
  <property name="meta.media.0.codec.long_name">H.264 / AVC / MPEG-4 AVC / MPEG-4 part 10</property>
  <property name="meta.media.0.codec.bit_rate">30002206</property>
  <property name="meta.attr.0.stream.creation_time.markup">2016-03-07T00:46:48.000000Z</property>
  <property name="meta.attr.0.stream.language.markup">eng</property>
  <property name="meta.attr.0.stream.handler_name.markup">GoPro AVC  </property>
  <property name="meta.attr.0.stream.encoder.markup">GoPro AVC encoder</property>
  <property name="meta.attr.0.stream.timecode.markup">00:47:33:42</property>
  <property name="meta.media.1.stream.type">audio</property>
  <property name="meta.media.1.codec.sample_fmt">fltp</property>
  <property name="meta.media.1.codec.sample_rate">48000</property>
  <property name="meta.media.1.codec.channels">2</property>
  <property name="meta.media.1.codec.name">aac</property>
  <property name="meta.media.1.codec.long_name">AAC (Advanced Audio Coding)</property>
  <property name="meta.media.1.codec.bit_rate">189336</property>
  <property name="meta.attr.1.stream.creation_time.markup">2016-03-07T00:46:48.000000Z</property>
  <property name="meta.attr.1.stream.language.markup">eng</property>
  <property name="meta.attr.1.stream.handler_name.markup">GoPro AAC  </property>
  <property name="meta.attr.1.stream.timecode.markup">00:47:33:42</property>
  <property name="meta.attr.major_brand.markup">mp41</property>
  <property name="meta.attr.minor_version.markup">538120216</property>
  <property name="meta.attr.compatible_brands.markup">mp41</property>
  <property name="meta.attr.creation_time.markup">2016-03-07T00:46:48.000000Z</property>
  <property name="meta.attr.location.markup">+22.6280+120.2678/</property>
  <property name="meta.attr.location-eng.markup">+22.6280+120.2678/</property>
  <property name="meta.attr.firmware.markup">HD8.01.01.00.00</property>
  <property name="seekable">1</property>
  <property name="meta.media.sample_aspect_num">1</property>
  <property name="meta.media.sample_aspect_den">1</property>
  <property name="aspect_ratio">1</property>
  <property name="kdenlive:folderid">-1</property>
  <property name="meta.media.frame_rate_num">60000</property>
  <property name="meta.media.frame_rate_den">1001</property>
  <property name="meta.media.colorspace">709</property>
  <property name="meta.media.color_trc">1</property>
  <property name="meta.media.width">1920</property>
  <property name="meta.media.height">1080</property>
  <property name="meta.media.top_field_first">0</property>
  <property name="meta.media.progressive">1</property>
  <property name="kdenlive:file_size">1135984829</property>
  <property name="kdenlive:file_hash">2ce7759de3fa3076a622ae7147776e67</property>
 </producer>
 <producer id="5" out="9008" in="0">
  <property name="length">9009</property>
  <property name="eof">pause</property>
  <property name="resource">GHAL1237.MP4</property>
  <property name="audio_index">1</property>
  <property name="video_index">0</property>
  <property name="mute_on_pause">1</property>
  <property name="mlt_service">avformat-novalidate</property>
  <property name="meta.media.nb_streams">5</property>
  <property name="meta.media.0.stream.type">video</property>
  <property name="meta.media.0.stream.frame_rate">59.9401</property>
  <property name="meta.media.0.stream.sample_aspect_ratio">0</property>
  <property name="meta.media.0.codec.width">1920</property>
  <property name="meta.media.0.codec.height">1080</property>
  <property name="meta.media.0.codec.rotate">0</property>
  <property name="meta.media.0.codec.frame_rate">59.9401</property>
  <property name="meta.media.0.codec.pix_fmt">yuvj420p</property>
  <property name="meta.media.0.codec.sample_aspect_ratio">1</property>
  <property name="meta.media.0.codec.colorspace">709</property>
  <property name="meta.media.0.codec.color_trc">1</property>
  <property name="meta.media.0.codec.name">h264</property>
  <property name="meta.media.0.codec.long_name">H.264 / AVC / MPEG-4 AVC / MPEG-4 part 10</property>
  <property name="meta.media.0.codec.bit_rate">29998638</property>
  <property name="meta.attr.0.stream.creation_time.markup">2016-03-07T00:51:50.000000Z</property>
  <property name="meta.attr.0.stream.language.markup">eng</property>
  <property name="meta.attr.0.stream.handler_name.markup">GoPro AVC  </property>
  <property name="meta.attr.0.stream.encoder.markup">GoPro AVC encoder</property>
  <property name="meta.attr.0.stream.timecode.markup">00:52:38:47</property>
  <property name="meta.media.1.stream.type">audio</property>
  <property name="meta.media.1.codec.sample_fmt">fltp</property>
  <property name="meta.media.1.codec.sample_rate">48000</property>
  <property name="meta.media.1.codec.channels">2</property>
  <property name="meta.media.1.codec.name">aac</property>
  <property name="meta.media.1.codec.long_name">AAC (Advanced Audio Coding)</property>
  <property name="meta.media.1.codec.bit_rate">189335</property>
  <property name="meta.attr.1.stream.creation_time.markup">2016-03-07T00:51:50.000000Z</property>
  <property name="meta.attr.1.stream.language.markup">eng</property>
  <property name="meta.attr.1.stream.handler_name.markup">GoPro AAC  </property>
  <property name="meta.attr.1.stream.timecode.markup">00:52:38:47</property>
  <property name="meta.attr.major_brand.markup">mp41</property>
  <property name="meta.attr.minor_version.markup">538120216</property>
  <property name="meta.attr.compatible_brands.markup">mp41</property>
  <property name="meta.attr.creation_time.markup">2016-03-07T00:51:50.000000Z</property>
  <property name="meta.attr.location.markup">+22.6281+120.2678/</property>
  <property name="meta.attr.location-eng.markup">+22.6281+120.2678/</property>
  <property name="meta.attr.firmware.markup">HD8.01.01.00.00</property>
  <property name="seekable">1</property>
  <property name="meta.media.sample_aspect_num">1</property>
  <property name="meta.media.sample_aspect_den">1</property>
  <property name="aspect_ratio">1</property>
  <property name="kdenlive:folderid">-1</property>
  <property name="meta.media.frame_rate_num">60000</property>
  <property name="meta.media.frame_rate_den">1001</property>
  <property name="meta.media.colorspace">709</property>
  <property name="meta.media.color_trc">1</property>
  <property name="meta.media.width">1920</property>
  <property name="meta.media.height">1080</property>
  <property name="meta.media.top_field_first">0</property>
  <property name="meta.media.progressive">1</property>
  <property name="kdenlive:file_size">1135855929</property>
  <property name="kdenlive:file_hash">2cd7dc0bbfad51c7f02468d6cf84167d</property>
 </producer>
 <producer id="6" title="Anonymous Submission" out="9008" in="0">
  <property name="length">9009</property>
  <property name="eof">pause</property>
  <property name="resource">GHAL1238.MP4</property>
  <property name="audio_index">1</property>
  <property name="video_index">0</property>
  <property name="mute_on_pause">1</property>
  <property name="mlt_service">avformat-novalidate</property>
  <property name="meta.media.nb_streams">5</property>
  <property name="meta.media.0.stream.type">video</property>
  <property name="meta.media.0.stream.frame_rate">59.9401</property>
  <property name="meta.media.0.stream.sample_aspect_ratio">0</property>
  <property name="meta.media.0.codec.width">1920</property>
  <property name="meta.media.0.codec.height">1080</property>
  <property name="meta.media.0.codec.rotate">0</property>
  <property name="meta.media.0.codec.frame_rate">59.9401</property>
  <property name="meta.media.0.codec.pix_fmt">yuvj420p</property>
  <property name="meta.media.0.codec.sample_aspect_ratio">1</property>
  <property name="meta.media.0.codec.colorspace">709</property>
  <property name="meta.media.0.codec.color_trc">1</property>
  <property name="meta.media.0.codec.name">h264</property>
  <property name="meta.media.0.codec.long_name">H.264 / AVC / MPEG-4 AVC / MPEG-4 part 10</property>
  <property name="meta.media.0.codec.bit_rate">29999186</property>
  <property name="meta.attr.0.stream.creation_time.markup">2016-03-07T00:56:50.000000Z</property>
  <property name="meta.attr.0.stream.language.markup">eng</property>
  <property name="meta.attr.0.stream.handler_name.markup">GoPro AVC  </property>
  <property name="meta.attr.0.stream.encoder.markup">GoPro AVC encoder</property>
  <property name="meta.attr.0.stream.timecode.markup">00:57:43:52</property>
  <property name="meta.media.1.stream.type">audio</property>
  <property name="meta.media.1.codec.sample_fmt">fltp</property>
  <property name="meta.media.1.codec.sample_rate">48000</property>
  <property name="meta.media.1.codec.channels">2</property>
  <property name="meta.media.1.codec.name">aac</property>
  <property name="meta.media.1.codec.long_name">AAC (Advanced Audio Coding)</property>
  <property name="meta.media.1.codec.bit_rate">189316</property>
  <property name="meta.attr.1.stream.creation_time.markup">2016-03-07T00:56:50.000000Z</property>
  <property name="meta.attr.1.stream.language.markup">eng</property>
  <property name="meta.attr.1.stream.handler_name.markup">GoPro AAC  </property>
  <property name="meta.attr.1.stream.timecode.markup">00:57:43:52</property>
  <property name="meta.attr.major_brand.markup">mp41</property>
  <property name="meta.attr.minor_version.markup">538120216</property>
  <property name="meta.attr.compatible_brands.markup">mp41</property>
  <property name="meta.attr.creation_time.markup">2016-03-07T00:56:50.000000Z</property>
  <property name="meta.attr.location.markup">+22.6281+120.2678/</property>
  <property name="meta.attr.location-eng.markup">+22.6281+120.2678/</property>
  <property name="meta.attr.firmware.markup">HD8.01.01.00.00</property>
  <property name="seekable">1</property>
  <property name="meta.media.sample_aspect_num">1</property>
  <property name="meta.media.sample_aspect_den">1</property>
  <property name="aspect_ratio">1</property>
  <property name="kdenlive:folderid">-1</property>
  <property name="meta.media.frame_rate_num">60000</property>
  <property name="meta.media.frame_rate_den">1001</property>
  <property name="meta.media.colorspace">709</property>
  <property name="meta.media.color_trc">1</property>
  <property name="meta.media.width">1920</property>
  <property name="meta.media.height">1080</property>
  <property name="meta.media.top_field_first">0</property>
  <property name="meta.media.progressive">1</property>
  <property name="kdenlive:file_size">1135878924</property>
  <property name="kdenlive:file_hash">971686534ab988b1808933e13ed63c59</property>
  <property name="global_feed">1</property>
 </producer>
 <producer id="7" title="Anonymous Submission" out="9008" in="0">
  <property name="length">9009</property>
  <property name="eof">pause</property>
  <property name="resource">GHAL1239.MP4</property>
  <property name="audio_index">1</property>
  <property name="video_index">0</property>
  <property name="mute_on_pause">1</property>
  <property name="mlt_service">avformat-novalidate</property>
  <property name="meta.media.nb_streams">5</property>
  <property name="meta.media.0.stream.type">video</property>
  <property name="meta.media.0.stream.frame_rate">59.9401</property>
  <property name="meta.media.0.stream.sample_aspect_ratio">0</property>
  <property name="meta.media.0.codec.width">1920</property>
  <property name="meta.media.0.codec.height">1080</property>
  <property name="meta.media.0.codec.rotate">0</property>
  <property name="meta.media.0.codec.frame_rate">59.9401</property>
  <property name="meta.media.0.codec.pix_fmt">yuvj420p</property>
  <property name="meta.media.0.codec.sample_aspect_ratio">1</property>
  <property name="meta.media.0.codec.colorspace">709</property>
  <property name="meta.media.0.codec.color_trc">1</property>
  <property name="meta.media.0.codec.name">h264</property>
  <property name="meta.media.0.codec.long_name">H.264 / AVC / MPEG-4 AVC / MPEG-4 part 10</property>
  <property name="meta.media.0.codec.bit_rate">30000081</property>
  <property name="meta.attr.0.stream.creation_time.markup">2016-03-07T01:01:50.000000Z</property>
  <property name="meta.attr.0.stream.language.markup">eng</property>
  <property name="meta.attr.0.stream.handler_name.markup">GoPro AVC  </property>
  <property name="meta.attr.0.stream.encoder.markup">GoPro AVC encoder</property>
  <property name="meta.attr.0.stream.timecode.markup">01:02:48:57</property>
  <property name="meta.media.1.stream.type">audio</property>
  <property name="meta.media.1.codec.sample_fmt">fltp</property>
  <property name="meta.media.1.codec.sample_rate">48000</property>
  <property name="meta.media.1.codec.channels">2</property>
  <property name="meta.media.1.codec.name">aac</property>
  <property name="meta.media.1.codec.long_name">AAC (Advanced Audio Coding)</property>
  <property name="meta.media.1.codec.bit_rate">189369</property>
  <property name="meta.attr.1.stream.creation_time.markup">2016-03-07T01:01:50.000000Z</property>
  <property name="meta.attr.1.stream.language.markup">eng</property>
  <property name="meta.attr.1.stream.handler_name.markup">GoPro AAC  </property>
  <property name="meta.attr.1.stream.timecode.markup">01:02:48:57</property>
  <property name="meta.attr.major_brand.markup">mp41</property>
  <property name="meta.attr.minor_version.markup">538120216</property>
  <property name="meta.attr.compatible_brands.markup">mp41</property>
  <property name="meta.attr.creation_time.markup">2016-03-07T01:01:50.000000Z</property>
  <property name="meta.attr.location.markup">+22.6281+120.2678/</property>
  <property name="meta.attr.location-eng.markup">+22.6281+120.2678/</property>
  <property name="meta.attr.firmware.markup">HD8.01.01.00.00</property>
  <property name="seekable">1</property>
  <property name="meta.media.sample_aspect_num">1</property>
  <property name="meta.media.sample_aspect_den">1</property>
  <property name="aspect_ratio">1</property>
  <property name="kdenlive:folderid">-1</property>
  <property name="meta.media.frame_rate_num">60000</property>
  <property name="meta.media.frame_rate_den">1001</property>
  <property name="meta.media.colorspace">709</property>
  <property name="meta.media.color_trc">1</property>
  <property name="meta.media.width">1920</property>
  <property name="meta.media.height">1080</property>
  <property name="meta.media.top_field_first">0</property>
  <property name="meta.media.progressive">1</property>
  <property name="kdenlive:file_size">1135922341</property>
  <property name="kdenlive:file_hash">38b49679d0644a8d2e227d0c3107046a</property>
  <property name="global_feed">1</property>
 </producer>
 <producer id="8" title="Anonymous Submission" out="1150" in="0">
  <property name="length">1151</property>
  <property name="eof">pause</property>
  <property name="resource">GHAL1240.MP4</property>
  <property name="audio_index">1</property>
  <property name="video_index">0</property>
  <property name="mute_on_pause">1</property>
  <property name="mlt_service">avformat-novalidate</property>
  <property name="meta.media.nb_streams">5</property>
  <property name="meta.media.0.stream.type">video</property>
  <property name="meta.media.0.stream.frame_rate">59.9401</property>
  <property name="meta.media.0.stream.sample_aspect_ratio">0</property>
  <property name="meta.media.0.codec.width">1920</property>
  <property name="meta.media.0.codec.height">1080</property>
  <property name="meta.media.0.codec.rotate">0</property>
  <property name="meta.media.0.codec.frame_rate">59.9401</property>
  <property name="meta.media.0.codec.pix_fmt">yuvj420p</property>
  <property name="meta.media.0.codec.sample_aspect_ratio">1</property>
  <property name="meta.media.0.codec.colorspace">709</property>
  <property name="meta.media.0.codec.color_trc">1</property>
  <property name="meta.media.0.codec.name">h264</property>
  <property name="meta.media.0.codec.long_name">H.264 / AVC / MPEG-4 AVC / MPEG-4 part 10</property>
  <property name="meta.media.0.codec.bit_rate">30017329</property>
  <property name="meta.attr.0.stream.creation_time.markup">2016-03-07T01:06:51.000000Z</property>
  <property name="meta.attr.0.stream.language.markup">eng</property>
  <property name="meta.attr.0.stream.handler_name.markup">GoPro AVC  </property>
  <property name="meta.attr.0.stream.encoder.markup">GoPro AVC encoder</property>
  <property name="meta.attr.0.stream.timecode.markup">01:07:54:03</property>
  <property name="meta.media.1.stream.type">audio</property>
  <property name="meta.media.1.codec.sample_fmt">fltp</property>
  <property name="meta.media.1.codec.sample_rate">48000</property>
  <property name="meta.media.1.codec.channels">2</property>
  <property name="meta.media.1.codec.name">aac</property>
  <property name="meta.media.1.codec.long_name">AAC (Advanced Audio Coding)</property>
  <property name="meta.media.1.codec.bit_rate">189356</property>
  <property name="meta.attr.1.stream.creation_time.markup">2016-03-07T01:06:51.000000Z</property>
  <property name="meta.attr.1.stream.language.markup">eng</property>
  <property name="meta.attr.1.stream.handler_name.markup">GoPro AAC  </property>
  <property name="meta.attr.1.stream.timecode.markup">01:07:54:03</property>
  <property name="meta.attr.major_brand.markup">mp41</property>
  <property name="meta.attr.minor_version.markup">538120216</property>
  <property name="meta.attr.compatible_brands.markup">mp41</property>
  <property name="meta.attr.creation_time.markup">2016-03-07T01:06:51.000000Z</property>
  <property name="meta.attr.location.markup">+22.6281+120.2678/</property>
  <property name="meta.attr.location-eng.markup">+22.6281+120.2678/</property>
  <property name="meta.attr.firmware.markup">HD8.01.01.00.00</property>
  <property name="seekable">1</property>
  <property name="meta.media.sample_aspect_num">1</property>
  <property name="meta.media.sample_aspect_den">1</property>
  <property name="aspect_ratio">1</property>
  <property name="kdenlive:folderid">-1</property>
  <property name="meta.media.frame_rate_num">60000</property>
  <property name="meta.media.frame_rate_den">1001</property>
  <property name="meta.media.colorspace">709</property>
  <property name="meta.media.color_trc">1</property>
  <property name="meta.media.width">1920</property>
  <property name="meta.media.height">1080</property>
  <property name="meta.media.top_field_first">0</property>
  <property name="meta.media.progressive">1</property>
  <property name="kdenlive:file_size">145191167</property>
  <property name="kdenlive:file_hash">b95846fc87fc4c174ae33104884dbbac</property>
  <property name="global_feed">1</property>
 </producer>
 <producer id="9" title="Anonymous Submission" out="27442" in="0">
  <property name="length">27443</property>
  <property name="eof">pause</property>
  <property name="resource">record-20201021-164952.mp4</property>
  <property name="audio_index">-1</property>
  <property name="video_index">0</property>
  <property name="mute_on_pause">1</property>
  <property name="mlt_service">avformat-novalidate</property>
  <property name="meta.media.nb_streams">1</property>
  <property name="meta.media.0.stream.type">video</property>
  <property name="meta.media.0.stream.frame_rate">49.1846</property>
  <property name="meta.media.0.stream.sample_aspect_ratio">1</property>
  <property name="meta.media.0.codec.width">720</property>
  <property name="meta.media.0.codec.height">1280</property>
  <property name="meta.media.0.codec.rotate">0</property>
  <property name="meta.media.0.codec.frame_rate">90000</property>
  <property name="meta.media.0.codec.pix_fmt">yuv420p</property>
  <property name="meta.media.0.codec.sample_aspect_ratio">0</property>
  <property name="meta.media.0.codec.colorspace">601</property>
  <property name="meta.media.0.codec.color_trc">6</property>
  <property name="meta.media.0.codec.name">h264</property>
  <property name="meta.media.0.codec.long_name">H.264 / AVC / MPEG-4 AVC / MPEG-4 part 10</property>
  <property name="meta.media.0.codec.bit_rate">5994807</property>
  <property name="meta.attr.0.stream.creation_time.markup">2020-10-21T09:05:07.000000Z</property>
  <property name="meta.attr.0.stream.language.markup">eng</property>
  <property name="meta.attr.0.stream.handler_name.markup">VideoHandle</property>
  <property name="meta.attr.major_brand.markup">mp42</property>
  <property name="meta.attr.minor_version.markup">0</property>
  <property name="meta.attr.compatible_brands.markup">isommp42</property>
  <property name="meta.attr.creation_time.markup">2020-10-21T09:05:07.000000Z</property>
  <property name="meta.attr.com.android.version.markup">8.0.0</property>
  <property name="seekable">1</property>
  <property name="meta.media.sample_aspect_num">1</property>
  <property name="meta.media.sample_aspect_den">1</property>
  <property name="aspect_ratio">1</property>
  <property name="kdenlive:folderid">-1</property>
  <property name="meta.media.frame_rate_num">541</property>
  <property name="meta.media.frame_rate_den">11</property>
  <property name="meta.media.colorspace">601</property>
  <property name="meta.media.color_trc">6</property>
  <property name="meta.media.width">720</property>
  <property name="meta.media.height">1280</property>
  <property name="meta.media.variable_frame_rate">1</property>
  <property name="meta.media.top_field_first">0</property>
  <property name="meta.media.progressive">1</property>
  <property name="kdenlive:file_size">686022290</property>
  <property name="kdenlive:file_hash">bd37a40b203be5a4a9b2e15035c76ad5</property>
  <property name="global_feed">1</property>
  <property name="kdenlive:zone_in">1445</property>
  <property name="kdenlive:zone_out">27442</property>
 </producer>
 <producer id="11" title="Anonymous Submission" out="311" in="0">
  <property name="length">312</property>
  <property name="eof">pause</property>
  <property name="resource"/>
  <property name="progressive">1</property>
  <property name="aspect_ratio">1</property>
  <property name="seekable">1</property>
  <property name="mlt_service">kdenlivetitle</property>
  <property name="kdenlive:clipname">Title clip</property>
  <property name="kdenlive:folderid">-1</property>
  <property name="xmldata">&lt;kdenlivetitle width="1920" duration="150" out="150" height="1080" LC_NUMERIC="en_US.UTF-8">
 &lt;item z-index="3" type="QGraphicsTextItem">
  &lt;position x="398" y="754">
   &lt;transform>1,0,0,0,1,0,0,0,1&lt;/transform>
  &lt;/position>
  &lt;content font-italic="0" letter-spacing="0" font-weight="50" box-height="230" font-outline-color="0,0,0,255" shadow="1;#64000000;3;3;3" font="Ubuntu" font-underline="0" font-outline="0" font-pixel-size="100" line-spacing="0" box-width="1120.48" font-color="252,233,79,255" alignment="4">Spectrum of cellphone's 
microphone audio signal&lt;/content>
 &lt;/item>
 &lt;startviewport rect="0,0,1920,1080"/>
 &lt;endviewport rect="0,0,1920,1080"/>
 &lt;background color="0,0,0,0"/>
&lt;/kdenlivetitle>
</property>
  <property name="kdenlive:duration">150</property>
  <property name="force_reload">0</property>
  <property name="meta.media.width">1920</property>
  <property name="meta.media.height">1080</property>
  <property name="kdenlive:file_hash">8479ecffba433b019ae2a074bc58d093</property>
  <property name="global_feed">1</property>
 </producer>
 <producer id="12" title="Anonymous Submission" out="400" in="0">
  <property name="length">401</property>
  <property name="eof">pause</property>
  <property name="resource"/>
  <property name="progressive">1</property>
  <property name="aspect_ratio">1</property>
  <property name="seekable">1</property>
  <property name="mlt_service">kdenlivetitle</property>
  <property name="kdenlive:clipname">Title clip</property>
  <property name="kdenlive:folderid">-1</property>
  <property name="xmldata">&lt;kdenlivetitle width="1920" duration="150" out="150" height="1080" LC_NUMERIC="en_US.UTF-8">
 &lt;item z-index="1" type="QGraphicsTextItem">
  &lt;position x="913" y="438">
   &lt;transform>1,0,0,0,1,0,0,0,1&lt;/transform>
  &lt;/position>
  &lt;content font-italic="0" letter-spacing="0" font-weight="50" box-height="460" shadow="1;#64000000;3;9;6" font="Ubuntu" font-underline="0" font-pixel-size="100" line-spacing="0" box-width="808.547" font-color="138,226,52,255" alignment="1">Please Pay 
attention to
this spike
(Ultrasonic range)&lt;/content>
 &lt;/item>
 &lt;item z-index="0" type="QGraphicsRectItem">
  &lt;position x="1183" y="24">
   &lt;transform zoom="100">1,0,0,0,1,0,0,0,1&lt;/transform>
  &lt;/position>
  &lt;content rect="0,0,312,368" penwidth="34" brushcolor="191,64,64,0" pencolor="138,226,52,255"/>
 &lt;/item>
 &lt;startviewport rect="0,0,1920,1080"/>
 &lt;endviewport rect="0,0,1920,1080"/>
 &lt;background color="0,0,0,0"/>
&lt;/kdenlivetitle>
</property>
  <property name="kdenlive:duration">150</property>
  <property name="force_reload">0</property>
  <property name="meta.media.width">1920</property>
  <property name="meta.media.height">1080</property>
  <property name="kdenlive:file_hash">629df544e19d38c9b57c8ce921ae8712</property>
  <property name="global_feed">1</property>
 </producer>
 <producer id="13" title="Anonymous Submission" out="232" in="0">
  <property name="length">233</property>
  <property name="eof">pause</property>
  <property name="resource"/>
  <property name="progressive">1</property>
  <property name="aspect_ratio">1</property>
  <property name="seekable">1</property>
  <property name="mlt_service">kdenlivetitle</property>
  <property name="kdenlive:clipname">Title clip</property>
  <property name="kdenlive:folderid">-1</property>
  <property name="xmldata">&lt;kdenlivetitle width="1920" duration="150" out="150" height="1080" LC_NUMERIC="en_US.UTF-8">
 &lt;item z-index="3" type="QGraphicsTextItem">
  &lt;position x="847" y="695">
   &lt;transform>1,0,0,0,1,0,0,0,1&lt;/transform>
  &lt;/position>
  &lt;content font-italic="0" letter-spacing="0" font-weight="50" box-height="115" shadow="1;#64000000;3;3;3" font="Ubuntu" font-underline="0" font-pixel-size="100" line-spacing="0" box-width="850.063" font-color="252,233,79,255" alignment="1">Experiment Target&lt;/content>
 &lt;/item>
 &lt;item z-index="2" type="QGraphicsTextItem">
  &lt;position x="24" y="706">
   &lt;transform>1,0,0,0,1,0,0,0,1&lt;/transform>
  &lt;/position>
  &lt;content font-italic="0" letter-spacing="0" font-weight="50" box-height="115" shadow="1;#64000000;3;3;3" font="Ubuntu" font-underline="0" font-pixel-size="100" line-spacing="0" box-width="709.281" font-color="252,233,79,255" alignment="1">Finished Device&lt;/content>
 &lt;/item>
 &lt;item z-index="1" type="QGraphicsRectItem">
  &lt;position x="1130" y="525">
   &lt;transform zoom="100">1,0,0,0,1,0,0,0,1&lt;/transform>
  &lt;/position>
  &lt;content rect="0,0,161,144.357" penwidth="34" brushcolor="191,64,64,0" pencolor="138,226,52,255"/>
 &lt;/item>
 &lt;item z-index="0" type="QGraphicsRectItem">
  &lt;position x="91" y="330">
   &lt;transform zoom="100">1,0,0,0,1,0,0,0,1&lt;/transform>
  &lt;/position>
  &lt;content rect="0,0,471,342" penwidth="34" brushcolor="191,64,64,0" pencolor="138,226,52,255"/>
 &lt;/item>
 &lt;startviewport rect="0,0,1920,1080"/>
 &lt;endviewport rect="0,0,1920,1080"/>
 &lt;background color="0,0,0,0"/>
&lt;/kdenlivetitle>
</property>
  <property name="kdenlive:duration">150</property>
  <property name="force_reload">0</property>
  <property name="meta.media.width">1920</property>
  <property name="meta.media.height">1080</property>
  <property name="kdenlive:file_hash">a8fe536a9f0c2cb962b7442ffa367c47</property>
  <property name="global_feed">1</property>
 </producer>
 <producer id="14" title="Anonymous Submission" out="484" in="0">
  <property name="length">485</property>
  <property name="eof">pause</property>
  <property name="resource">/home/maxhsu/Documents/ss.mp4</property>
  <property name="audio_index">1</property>
  <property name="video_index">0</property>
  <property name="mute_on_pause">1</property>
  <property name="mlt_service">avformat-novalidate</property>
  <property name="meta.media.nb_streams">2</property>
  <property name="meta.media.0.stream.type">video</property>
  <property name="meta.media.0.stream.frame_rate">30</property>
  <property name="meta.media.0.stream.sample_aspect_ratio">1</property>
  <property name="meta.media.0.codec.width">1920</property>
  <property name="meta.media.0.codec.height">1080</property>
  <property name="meta.media.0.codec.rotate">0</property>
  <property name="meta.media.0.codec.frame_rate">30</property>
  <property name="meta.media.0.codec.pix_fmt">yuv420p</property>
  <property name="meta.media.0.codec.sample_aspect_ratio">1</property>
  <property name="meta.media.0.codec.colorspace">709</property>
  <property name="meta.media.0.codec.color_trc">1</property>
  <property name="meta.media.0.codec.name">h264</property>
  <property name="meta.media.0.codec.long_name">H.264 / AVC / MPEG-4 AVC / MPEG-4 part 10</property>
  <property name="meta.media.0.codec.bit_rate">3249170</property>
  <property name="meta.attr.0.stream.handler_name.markup">VideoHandler</property>
  <property name="meta.media.1.stream.type">audio</property>
  <property name="meta.media.1.codec.sample_fmt">fltp</property>
  <property name="meta.media.1.codec.sample_rate">48000</property>
  <property name="meta.media.1.codec.channels">2</property>
  <property name="meta.media.1.codec.name">aac</property>
  <property name="meta.media.1.codec.long_name">AAC (Advanced Audio Coding)</property>
  <property name="meta.media.1.codec.bit_rate">2276</property>
  <property name="meta.attr.1.stream.handler_name.markup">SoundHandler</property>
  <property name="meta.attr.major_brand.markup">isom</property>
  <property name="meta.attr.minor_version.markup">512</property>
  <property name="meta.attr.compatible_brands.markup">isomiso2avc1mp41</property>
  <property name="meta.attr.encoder.markup">Lavf57.83.100</property>
  <property name="seekable">1</property>
  <property name="meta.media.sample_aspect_num">1</property>
  <property name="meta.media.sample_aspect_den">1</property>
  <property name="aspect_ratio">1</property>
  <property name="meta.media.frame_rate_num">30</property>
  <property name="meta.media.frame_rate_den">1</property>
  <property name="meta.media.colorspace">709</property>
  <property name="meta.media.color_trc">1</property>
  <property name="meta.media.width">1920</property>
  <property name="meta.media.height">1080</property>
  <property name="meta.media.top_field_first">0</property>
  <property name="meta.media.progressive">1</property>
  <property name="kdenlive:file_size">6589806</property>
  <property name="kdenlive:file_hash">09d30b3dac040e64ab375e050b16670b</property>
  <property name="global_feed">1</property>
 </producer>
 <producer id="15" title="Anonymous Submission" out="149" in="0">
  <property name="length">150</property>
  <property name="eof">pause</property>
  <property name="resource"/>
  <property name="progressive">1</property>
  <property name="aspect_ratio">1</property>
  <property name="seekable">1</property>
  <property name="mlt_service">kdenlivetitle</property>
  <property name="kdenlive:clipname">Title clip</property>
  <property name="kdenlive:folderid">-1</property>
  <property name="xmldata">&lt;kdenlivetitle width="1920" duration="150" out="150" height="1080" LC_NUMERIC="en_US.UTF-8">
 &lt;item z-index="0" type="QGraphicsTextItem">
  &lt;position x="233" y="819">
   &lt;transform>1,0,0,0,1,0,0,0,1&lt;/transform>
  &lt;/position>
  &lt;content font-italic="0" letter-spacing="0" font-weight="50" box-height="115" shadow="0;#64000000;3;3;3" font="Ubuntu" font-underline="0" font-pixel-size="100" box-width="1453.72" font-color="252,233,79,255" alignment="1">The Interface of Finished Device&lt;/content>
 &lt;/item>
 &lt;startviewport rect="0,0,1920,1080"/>
 &lt;endviewport rect="0,0,1920,1080"/>
 &lt;background color="0,0,0,0"/>
&lt;/kdenlivetitle>
</property>
  <property name="kdenlive:duration">150</property>
  <property name="force_reload">0</property>
  <property name="meta.media.width">1920</property>
  <property name="meta.media.height">1080</property>
  <property name="kdenlive:file_hash">b2a4e732110913c9b151aa088dc236b2</property>
  <property name="global_feed">1</property>
 </producer>
 <producer id="16" title="Anonymous Submission" out="149" in="0">
  <property name="length">150</property>
  <property name="eof">pause</property>
  <property name="resource"/>
  <property name="progressive">1</property>
  <property name="aspect_ratio">1</property>
  <property name="seekable">1</property>
  <property name="mlt_service">kdenlivetitle</property>
  <property name="kdenlive:clipname">Title clip</property>
  <property name="kdenlive:folderid">-1</property>
  <property name="xmldata">&lt;kdenlivetitle width="1920" duration="150" out="150" height="1080" LC_NUMERIC="en_US.UTF-8">
 &lt;item z-index="1" type="QGraphicsTextItem">
  &lt;position x="94" y="918">
   &lt;transform>1,0,0,0,1,0,0,0,1&lt;/transform>
  &lt;/position>
  &lt;content font-italic="0" letter-spacing="0" font-weight="50" box-height="115" font-outline-color="0,0,0,255" shadow="1;#64000000;3;3;3" font="Ubuntu" font-underline="0" font-outline="0" font-pixel-size="100" box-width="1729.03" font-color="252,233,79,255" alignment="1">Foreground image		        IR Extraction&lt;/content>
 &lt;/item>
 &lt;item z-index="0" type="QGraphicsTextItem">
  &lt;position x="106" y="409">
   &lt;transform>1,0,0,0,1,0,0,0,1&lt;/transform>
  &lt;/position>
  &lt;content font-italic="0" letter-spacing="0" font-weight="50" box-height="575" shadow="1;#64000000;3;3;3" font="Ubuntu" font-underline="0" font-pixel-size="100" line-spacing="0" box-width="1710.81" font-color="252,233,79,255" alignment="1">IR camera view	         RGB camera view



&lt;/content>
 &lt;/item>
 &lt;startviewport rect="0,0,1920,1080"/>
 &lt;endviewport rect="0,0,1920,1080"/>
 &lt;background color="0,0,0,0"/>
&lt;/kdenlivetitle>
</property>
  <property name="kdenlive:duration">150</property>
  <property name="force_reload">0</property>
  <property name="meta.media.width">1920</property>
  <property name="meta.media.height">1080</property>
  <property name="kdenlive:file_hash">b39ec8497332ade1e545322674dad2ec</property>
  <property name="global_feed">1</property>
 </producer>
 <producer id="17" out="149" in="0">
  <property name="length">150</property>
  <property name="eof">pause</property>
  <property name="resource">video-f001762.png</property>
  <property name="ttl">25</property>
  <property name="aspect_ratio">1</property>
  <property name="progressive">1</property>
  <property name="seekable">1</property>
  <property name="loop">1</property>
  <property name="meta.media.width">1920</property>
  <property name="meta.media.height">1080</property>
  <property name="mlt_service">pixbuf</property>
  <property name="kdenlive:duration">150</property>
  <property name="kdenlive:file_size">897540</property>
  <property name="kdenlive:file_hash">d70a20dc4945175c80eea1e005a6f202</property>
 </producer>
 <producer id="18" out="149" in="0">
  <property name="length">150</property>
  <property name="eof">pause</property>
  <property name="resource">/home/maxhsu/Desktop/MK/11.png</property>
  <property name="ttl">25</property>
  <property name="aspect_ratio">1</property>
  <property name="progressive">1</property>
  <property name="seekable">1</property>
  <property name="loop">1</property>
  <property name="meta.media.width">1920</property>
  <property name="meta.media.height">1080</property>
  <property name="mlt_service">pixbuf</property>
  <property name="kdenlive:duration">150</property>
  <property name="kdenlive:file_size">8318604</property>
  <property name="kdenlive:file_hash">609d92cf19e2832b672c4ac59cf6c5ce</property>
 </producer>
 <producer id="20" out="149" in="0">
  <property name="length">150</property>
  <property name="eof">pause</property>
  <property name="resource">/home/maxhsu/Desktop/MK/12.png</property>
  <property name="ttl">25</property>
  <property name="aspect_ratio">1</property>
  <property name="progressive">1</property>
  <property name="seekable">1</property>
  <property name="loop">1</property>
  <property name="meta.media.width">1920</property>
  <property name="meta.media.height">1080</property>
  <property name="mlt_service">pixbuf</property>
  <property name="kdenlive:duration">150</property>
  <property name="kdenlive:file_size">8317119</property>
  <property name="kdenlive:file_hash">68bd2202febfd6ba305e6a5041e44df3</property>
 </producer>
 <producer id="21" out="149" in="0">
  <property name="length">150</property>
  <property name="eof">pause</property>
  <property name="resource">/home/maxhsu/Desktop/MK/13.png</property>
  <property name="ttl">25</property>
  <property name="aspect_ratio">1</property>
  <property name="progressive">1</property>
  <property name="seekable">1</property>
  <property name="loop">1</property>
  <property name="meta.media.width">1920</property>
  <property name="meta.media.height">1080</property>
  <property name="mlt_service">pixbuf</property>
  <property name="kdenlive:duration">150</property>
  <property name="kdenlive:file_size">8318100</property>
  <property name="kdenlive:file_hash">628ea5cab20636850d387b5f4ff33308</property>
 </producer>
 <producer id="22" out="149" in="0">
  <property name="length">150</property>
  <property name="eof">pause</property>
  <property name="resource">/home/maxhsu/Desktop/MK/video-f002001.png</property>
  <property name="ttl">25</property>
  <property name="aspect_ratio">1</property>
  <property name="progressive">1</property>
  <property name="seekable">1</property>
  <property name="loop">1</property>
  <property name="meta.media.width">1920</property>
  <property name="meta.media.height">1080</property>
  <property name="mlt_service">pixbuf</property>
  <property name="kdenlive:duration">150</property>
  <property name="kdenlive:file_size">442234</property>
  <property name="kdenlive:file_hash">fbea6e29bc5011d984076ecedfeadf2d</property>
 </producer>
 <playlist id="main bin">
  <property name="kdenlive:docproperties.audiotargettrack">4</property>
  <property name="kdenlive:docproperties.decimalPoint">.</property>
  <property name="kdenlive:docproperties.dirtypreviewchunks"/>
  <property name="kdenlive:docproperties.disablepreview">0</property>
  <property name="kdenlive:docproperties.documentid">1603383320054</property>
  <property name="kdenlive:docproperties.enableproxy">0</property>
  <property name="kdenlive:docproperties.generateimageproxy">0</property>
  <property name="kdenlive:docproperties.generateproxy">0</property>
  <property name="kdenlive:docproperties.kdenliveversion">17.12.3</property>
  <property name="kdenlive:docproperties.position">6129</property>
  <property name="kdenlive:docproperties.previewchunks"/>
  <property name="kdenlive:docproperties.previewextension">mov</property>
  <property name="kdenlive:docproperties.previewparameters">r=30 s=1920x1080 vb=45M threads=0 vcodec=dnxhd</property>
  <property name="kdenlive:docproperties.profile">atsc_1080p_30</property>
  <property name="kdenlive:docproperties.proxyextension">mkv</property>
  <property name="kdenlive:docproperties.proxyimageminsize">2000</property>
  <property name="kdenlive:docproperties.proxyminsize">1000</property>
  <property name="kdenlive:docproperties.proxyparams">-vf yadif,scale=960:-2 -qscale 3 -vcodec mjpeg -acodec pcm_s16le</property>
  <property name="kdenlive:docproperties.version">0.96</property>
  <property name="kdenlive:docproperties.verticalzoom">1</property>
  <property name="kdenlive:docproperties.videotargettrack">6</property>
  <property name="kdenlive:docproperties.zonein">0</property>
  <property name="kdenlive:docproperties.zoneout">0</property>
  <property name="kdenlive:docproperties.zoom">11</property>
  <property name="kdenlive:documentnotes"/>
  <property name="kdenlive:clipgroups"/>
  <property name="kdenlive:customeffects">&lt;customeffects>
 &lt;effect id="comp_crop" effectcolor="#f4a8db" disable="" tag="crop" kdenlive_info="" type="custom">
  &lt;name>comp_crop&lt;/name>
  &lt;description>Trim the edges of a clip&lt;/description>
  &lt;author>Dan Dennedy&lt;/author>
  &lt;parameter default="0" suffix="pixels" value="40" min="0" max="%maxHeight" name="top" type="constant">
   &lt;name>Top&lt;/name>
  &lt;/parameter>
  &lt;parameter default="0" suffix="pixels" value="30" min="0" max="%maxWidth" name="left" type="constant">
   &lt;name>Left&lt;/name>
  &lt;/parameter>
  &lt;parameter default="0" suffix="pixels" value="35" min="0" max="%maxHeight" name="bottom" type="constant">
   &lt;name>Bottom&lt;/name>
  &lt;/parameter>
  &lt;parameter default="0" suffix="pixels" value="100" min="0" max="%maxWidth" name="right" type="constant">
   &lt;name>Right&lt;/name>
  &lt;/parameter>
  &lt;parameter default="0" value="0" name="center" type="bool">
   &lt;name>Automatic center-crop&lt;/name>
  &lt;/parameter>
  &lt;parameter default="0" value="0" min="-%maxWidth" max="%maxWidth" name="center_bias" type="constant">
   &lt;name>Center balance&lt;/name>
  &lt;/parameter>
  &lt;parameter default="0" value="0" name="use_profile" type="bool">
   &lt;name>Use project resolution&lt;/name>
  &lt;/parameter>
  &lt;version>1&lt;/version>
  &lt;version>1&lt;/version>
 &lt;/effect>
 &lt;effect id="comp_crop" effectcolor="#f4a8db" disable="" tag="crop" kdenlive_info="" type="custom">
  &lt;name>comp_crop&lt;/name>
  &lt;description>Trim the edges of a clip&lt;/description>
  &lt;author>Dan Dennedy&lt;/author>
  &lt;parameter default="0" suffix="pixels" value="40" min="0" max="%maxHeight" name="top" type="constant">
   &lt;name>Top&lt;/name>
  &lt;/parameter>
  &lt;parameter default="0" suffix="pixels" value="30" min="0" max="%maxWidth" name="left" type="constant">
   &lt;name>Left&lt;/name>
  &lt;/parameter>
  &lt;parameter default="0" suffix="pixels" value="35" min="0" max="%maxHeight" name="bottom" type="constant">
   &lt;name>Bottom&lt;/name>
  &lt;/parameter>
  &lt;parameter default="0" suffix="pixels" value="100" min="0" max="%maxWidth" name="right" type="constant">
   &lt;name>Right&lt;/name>
  &lt;/parameter>
  &lt;parameter default="0" value="0" name="center" type="bool">
   &lt;name>Automatic center-crop&lt;/name>
  &lt;/parameter>
  &lt;parameter default="0" value="0" min="-%maxWidth" max="%maxWidth" name="center_bias" type="constant">
   &lt;name>Center balance&lt;/name>
  &lt;/parameter>
  &lt;parameter default="0" value="0" name="use_profile" type="bool">
   &lt;name>Use project resolution&lt;/name>
  &lt;/parameter>
  &lt;version>1&lt;/version>
  &lt;version>1&lt;/version>
 &lt;/effect>
 &lt;effect id="comp_crop" effectcolor="#f4a8db" disable="" tag="crop" kdenlive_info="" type="custom">
  &lt;name>comp_crop&lt;/name>
  &lt;description>Trim the edges of a clip&lt;/description>
  &lt;author>Dan Dennedy&lt;/author>
  &lt;parameter default="0" suffix="pixels" value="40" min="0" max="%maxHeight" name="top" type="constant">
   &lt;name>Top&lt;/name>
  &lt;/parameter>
  &lt;parameter default="0" suffix="pixels" value="30" min="0" max="%maxWidth" name="left" type="constant">
   &lt;name>Left&lt;/name>
  &lt;/parameter>
  &lt;parameter default="0" suffix="pixels" value="35" min="0" max="%maxHeight" name="bottom" type="constant">
   &lt;name>Bottom&lt;/name>
  &lt;/parameter>
  &lt;parameter default="0" suffix="pixels" value="100" min="0" max="%maxWidth" name="right" type="constant">
   &lt;name>Right&lt;/name>
  &lt;/parameter>
  &lt;parameter default="0" value="0" name="center" type="bool">
   &lt;name>Automatic center-crop&lt;/name>
  &lt;/parameter>
  &lt;parameter default="0" value="0" min="-%maxWidth" max="%maxWidth" name="center_bias" type="constant">
   &lt;name>Center balance&lt;/name>
  &lt;/parameter>
  &lt;parameter default="0" value="0" name="use_profile" type="bool">
   &lt;name>Use project resolution&lt;/name>
  &lt;/parameter>
  &lt;version>1&lt;/version>
  &lt;version>1&lt;/version>
 &lt;/effect>
 &lt;effect id="comp_crop" effectcolor="#f4a8db" disable="" tag="crop" kdenlive_info="" type="custom">
  &lt;name>comp_crop&lt;/name>
  &lt;description>Trim the edges of a clip&lt;/description>
  &lt;author>Dan Dennedy&lt;/author>
  &lt;parameter default="0" suffix="pixels" value="40" min="0" max="%maxHeight" name="top" type="constant">
   &lt;name>Top&lt;/name>
  &lt;/parameter>
  &lt;parameter default="0" suffix="pixels" value="30" min="0" max="%maxWidth" name="left" type="constant">
   &lt;name>Left&lt;/name>
  &lt;/parameter>
  &lt;parameter default="0" suffix="pixels" value="35" min="0" max="%maxHeight" name="bottom" type="constant">
   &lt;name>Bottom&lt;/name>
  &lt;/parameter>
  &lt;parameter default="0" suffix="pixels" value="100" min="0" max="%maxWidth" name="right" type="constant">
   &lt;name>Right&lt;/name>
  &lt;/parameter>
  &lt;parameter default="0" value="0" name="center" type="bool">
   &lt;name>Automatic center-crop&lt;/name>
  &lt;/parameter>
  &lt;parameter default="0" value="0" min="-%maxWidth" max="%maxWidth" name="center_bias" type="constant">
   &lt;name>Center balance&lt;/name>
  &lt;/parameter>
  &lt;parameter default="0" value="0" name="use_profile" type="bool">
   &lt;name>Use project resolution&lt;/name>
  &lt;/parameter>
  &lt;version>1&lt;/version>
  &lt;version>1&lt;/version>
 &lt;/effect>
 &lt;effect id="comp_crop" effectcolor="#f4a8db" disable="" tag="crop" kdenlive_info="" type="custom">
  &lt;name>comp_crop&lt;/name>
  &lt;description>Trim the edges of a clip&lt;/description>
  &lt;author>Dan Dennedy&lt;/author>
  &lt;parameter default="0" suffix="pixels" value="40" min="0" max="%maxHeight" name="top" type="constant">
   &lt;name>Top&lt;/name>
  &lt;/parameter>
  &lt;parameter default="0" suffix="pixels" value="30" min="0" max="%maxWidth" name="left" type="constant">
   &lt;name>Left&lt;/name>
  &lt;/parameter>
  &lt;parameter default="0" suffix="pixels" value="35" min="0" max="%maxHeight" name="bottom" type="constant">
   &lt;name>Bottom&lt;/name>
  &lt;/parameter>
  &lt;parameter default="0" suffix="pixels" value="100" min="0" max="%maxWidth" name="right" type="constant">
   &lt;name>Right&lt;/name>
  &lt;/parameter>
  &lt;parameter default="0" value="0" name="center" type="bool">
   &lt;name>Automatic center-crop&lt;/name>
  &lt;/parameter>
  &lt;parameter default="0" value="0" min="-%maxWidth" max="%maxWidth" name="center_bias" type="constant">
   &lt;name>Center balance&lt;/name>
  &lt;/parameter>
  &lt;parameter default="0" value="0" name="use_profile" type="bool">
   &lt;name>Use project resolution&lt;/name>
  &lt;/parameter>
  &lt;version>1&lt;/version>
  &lt;version>1&lt;/version>
 &lt;/effect>
&lt;/customeffects>
</property>
  <property name="kdenlive:guide.71.8">00:01:11:24</property>
  <property name="kdenlive:guide.82.7667">00:01:22:23</property>
  <property name="kdenlive:guide.69.0333">00:01:09:01</property>
  <property name="kdenlive:guide.63.2">00:01:03:06</property>
  <property name="kdenlive:guide.81.4333">00:01:21:13</property>
  <property name="kdenlive:guide.120.2">00:02:00:06</property>
  <property name="kdenlive:guide.126.067">00:02:06:02</property>
  <property name="kdenlive:guide.297.833">00:04:57:25</property>
  <property name="xml_retain">1</property>
  <entry out="30964" producer="1" in="0"/>
  <entry out="38236" producer="2" in="0"/>
  <entry out="44415" producer="3" in="0"/>
  <entry out="9008" producer="4" in="0"/>
  <entry out="9008" producer="5" in="0"/>
  <entry out="9008" producer="6" in="0"/>
  <entry out="9008" producer="7" in="0"/>
  <entry out="1150" producer="8" in="0"/>
  <entry out="27442" producer="9" in="0"/>
  <entry out="149" producer="11" in="0"/>
  <entry out="149" producer="12" in="0"/>
  <entry out="149" producer="13" in="0"/>
  <entry out="484" producer="14" in="0"/>
  <entry out="149" producer="15" in="0"/>
  <entry out="149" producer="16" in="0"/>
  <entry out="149" producer="17" in="0"/>
  <entry out="149" producer="18" in="0"/>
  <entry out="149" producer="20" in="0"/>
  <entry out="149" producer="21" in="0"/>
  <entry out="149" producer="22" in="0"/>
 </playlist>
 <producer id="black" out="52562" in="0">
  <property name="length">52563</property>
  <property name="eof">pause</property>
  <property name="resource">black</property>
  <property name="aspect_ratio">0</property>
  <property name="mlt_service">colour</property>
  <property name="set.test_audio">0</property>
 </producer>
 <playlist id="black_track">
  <entry out="28712" producer="black" in="0"/>
 </playlist>
 <playlist id="playlist1">
  <property name="kdenlive:track_name">Audio 4</property>
  <property name="kdenlive:audio_track">1</property>
 </playlist>
 <playlist id="playlist2">
  <property name="kdenlive:track_name">Audio 3</property>
  <property name="kdenlive:audio_track">1</property>
 </playlist>
 <playlist id="playlist3">
  <property name="kdenlive:track_name">Audio 2</property>
  <property name="kdenlive:audio_track">1</property>
 </playlist>
 <playlist id="playlist4">
  <property name="kdenlive:track_name">Audio 1</property>
  <property name="kdenlive:audio_track">1</property>
 </playlist>
 <producer id="7_playlist12" title="Anonymous Submission" out="9008" in="0">
  <property name="length">9009</property>
  <property name="eof">pause</property>
  <property name="resource">GHAL1239.MP4</property>
  <property name="audio_index">1</property>
  <property name="video_index">0</property>
  <property name="mute_on_pause">1</property>
  <property name="mlt_service">avformat-novalidate</property>
  <property name="seekable">1</property>
  <property name="aspect_ratio">1</property>
  <property name="kdenlive:folderid">-1</property>
  <property name="kdenlive:file_size">1135922341</property>
  <property name="kdenlive:file_hash">38b49679d0644a8d2e227d0c3107046a</property>
  <property name="global_feed">1</property>
  <property name="xml">was here</property>
  <property name="meta.media.nb_streams">5</property>
  <property name="meta.media.0.stream.type">video</property>
  <property name="meta.media.0.stream.frame_rate">59.9401</property>
  <property name="meta.media.0.stream.sample_aspect_ratio">0</property>
  <property name="meta.media.0.codec.width">1920</property>
  <property name="meta.media.0.codec.height">1080</property>
  <property name="meta.media.0.codec.rotate">0</property>
  <property name="meta.media.0.codec.frame_rate">59.9401</property>
  <property name="meta.media.0.codec.pix_fmt">yuvj420p</property>
  <property name="meta.media.0.codec.sample_aspect_ratio">1</property>
  <property name="meta.media.0.codec.colorspace">709</property>
  <property name="meta.media.0.codec.color_trc">1</property>
  <property name="meta.media.0.codec.name">h264</property>
  <property name="meta.media.0.codec.long_name">H.264 / AVC / MPEG-4 AVC / MPEG-4 part 10</property>
  <property name="meta.media.0.codec.bit_rate">30000081</property>
  <property name="meta.attr.0.stream.creation_time.markup">2016-03-07T01:01:50.000000Z</property>
  <property name="meta.attr.0.stream.language.markup">eng</property>
  <property name="meta.attr.0.stream.handler_name.markup">GoPro AVC  </property>
  <property name="meta.attr.0.stream.encoder.markup">GoPro AVC encoder</property>
  <property name="meta.attr.0.stream.timecode.markup">01:02:48:57</property>
  <property name="meta.media.1.stream.type">audio</property>
  <property name="meta.media.1.codec.sample_fmt">fltp</property>
  <property name="meta.media.1.codec.sample_rate">48000</property>
  <property name="meta.media.1.codec.channels">2</property>
  <property name="meta.media.1.codec.name">aac</property>
  <property name="meta.media.1.codec.long_name">AAC (Advanced Audio Coding)</property>
  <property name="meta.media.1.codec.bit_rate">189369</property>
  <property name="meta.attr.1.stream.creation_time.markup">2016-03-07T01:01:50.000000Z</property>
  <property name="meta.attr.1.stream.language.markup">eng</property>
  <property name="meta.attr.1.stream.handler_name.markup">GoPro AAC  </property>
  <property name="meta.attr.1.stream.timecode.markup">01:02:48:57</property>
  <property name="meta.attr.major_brand.markup">mp41</property>
  <property name="meta.attr.minor_version.markup">538120216</property>
  <property name="meta.attr.compatible_brands.markup">mp41</property>
  <property name="meta.attr.creation_time.markup">2016-03-07T01:01:50.000000Z</property>
  <property name="meta.attr.location.markup">+22.6281+120.2678/</property>
  <property name="meta.attr.location-eng.markup">+22.6281+120.2678/</property>
  <property name="meta.attr.firmware.markup">HD8.01.01.00.00</property>
  <property name="meta.media.sample_aspect_num">1</property>
  <property name="meta.media.sample_aspect_den">1</property>
  <property name="meta.media.frame_rate_num">60000</property>
  <property name="meta.media.frame_rate_den">1001</property>
  <property name="meta.media.colorspace">709</property>
  <property name="meta.media.color_trc">1</property>
  <property name="meta.media.width">1920</property>
  <property name="meta.media.height">1080</property>
  <property name="meta.media.top_field_first">0</property>
  <property name="meta.media.progressive">1</property>
 </producer>
 <playlist id="playlist12">
  <property name="kdenlive:track_name">Video 9</property>
  <entry out="3039" producer="7_playlist12" in="1144">
   <filter id="zoom_cam" out="3039" in="1144">
    <property name="background">colour:0x00000000</property>
    <property name="mlt_service">affine</property>
    <property name="kdenlive_id">zoom_cam</property>
    <property name="tag">affine</property>
    <property name="kdenlive_info">0/-1/</property>
    <property name="kdenlive_ix">1</property>
    <property name="disable">0</property>
    <property name="transition.geometry">0=0/0:1920x1080:100;358=0/0:1920x1080:100;387=0/-350:1920x1080:100</property>
    <property name="transition.distort">0</property>
    <property name="kdenlive:sync_in_out">1</property>
   </filter>
  </entry>
  <entry out="9008" producer="7_playlist12" in="3587">
   <filter id="filter0">
    <property name="background">colour:0x00000000</property>
    <property name="mlt_service">affine</property>
    <property name="kdenlive_id">zoom_cam</property>
    <property name="tag">affine</property>
    <property name="kdenlive_ix">1</property>
    <property name="kdenlive_info">0/-1/</property>
    <property name="disable">0</property>
    <property name="transition.geometry">0=0/0:1920x1080:100;358=0/0:1920x1080:100;387=0/-350:1920x1080:100</property>
    <property name="transition.distort">0</property>
   </filter>
  </entry>
 </playlist>
 <producer id="producer0" title="Anonymous Submission" out="9008" in="0">
  <property name="length">9009</property>
  <property name="eof">pause</property>
  <property name="resource">GHAL1239.MP4</property>
  <property name="audio_index">-1</property>
  <property name="video_index">-1</property>
  <property name="mute_on_pause">1</property>
  <property name="mlt_service">avformat-novalidate</property>
  <property name="seekable">1</property>
  <property name="aspect_ratio">1</property>
  <property name="kdenlive:folderid">-1</property>
  <property name="kdenlive:file_size">1135922341</property>
  <property name="kdenlive:file_hash">38b49679d0644a8d2e227d0c3107046a</property>
  <property name="global_feed">1</property>
  <property name="xml">was here</property>
  <property name="kdenlive:binid">7</property>
  <property name="kdenlive:clipstate">0</property>
 </producer>
 <playlist id="playlist5">
  <property name="kdenlive:track_name">Video 1</property>
  <blank length="142"/>
  <entry out="231" producer="13" in="0"/>
  <blank length="1068"/>
  <entry out="9008" producer="producer0" in="2586"/>
 </playlist>
 <producer id="producer1" title="Anonymous Submission" out="9008" in="0">
  <property name="length">9009</property>
  <property name="eof">pause</property>
  <property name="resource">GHAL1239.MP4</property>
  <property name="audio_index">-1</property>
  <property name="video_index">-1</property>
  <property name="mute_on_pause">1</property>
  <property name="mlt_service">avformat-novalidate</property>
  <property name="seekable">1</property>
  <property name="aspect_ratio">1</property>
  <property name="kdenlive:folderid">-1</property>
  <property name="kdenlive:file_size">1135922341</property>
  <property name="kdenlive:file_hash">38b49679d0644a8d2e227d0c3107046a</property>
  <property name="global_feed">1</property>
  <property name="xml">was here</property>
  <property name="kdenlive:binid">7</property>
  <property name="kdenlive:clipstate">0</property>
 </producer>
 <producer id="producer2" title="Anonymous Submission" out="9008" in="0">
  <property name="length">9009</property>
  <property name="eof">pause</property>
  <property name="resource">GHAL1239.MP4</property>
  <property name="audio_index">-1</property>
  <property name="video_index">-1</property>
  <property name="mute_on_pause">1</property>
  <property name="mlt_service">avformat-novalidate</property>
  <property name="seekable">1</property>
  <property name="aspect_ratio">1</property>
  <property name="kdenlive:folderid">-1</property>
  <property name="kdenlive:file_size">1135922341</property>
  <property name="kdenlive:file_hash">38b49679d0644a8d2e227d0c3107046a</property>
  <property name="global_feed">1</property>
  <property name="xml">was here</property>
  <property name="kdenlive:binid">7</property>
  <property name="kdenlive:clipstate">0</property>
 </producer>
 <playlist id="playlist6">
  <property name="kdenlive:track_name">Video 2</property>
  <blank length="2767"/>
  <entry out="5287" producer="producer1" in="3911">
   <filter id="pan_zoom" out="5287" in="3911">
    <property name="background">colour:0x00000000</property>
    <property name="mlt_service">affine</property>
    <property name="kdenlive_id">pan_zoom</property>
    <property name="tag">affine</property>
    <property name="kdenlive_ix">1</property>
    <property name="transition.geometry">537/135:1444x812:100</property>
    <property name="transition.distort">0</property>
    <property name="kdenlive:sync_in_out">1</property>
    <property name="kdenlive_info"/>
    <property name="disable"/>
   </filter>
  </entry>
  <entry out="9008" producer="producer2" in="5288"/>
 </playlist>
 <producer id="producer4" title="Anonymous Submission" out="44415" in="0">
  <property name="length">44416</property>
  <property name="eof">pause</property>
  <property name="resource">2020-10-21 16-44-56.mkv</property>
  <property name="audio_index">-1</property>
  <property name="video_index">-1</property>
  <property name="mute_on_pause">1</property>
  <property name="mlt_service">avformat-novalidate</property>
  <property name="seekable">1</property>
  <property name="aspect_ratio">1</property>
  <property name="kdenlive:folderid">-1</property>
  <property name="kdenlive:file_size">55118377</property>
  <property name="kdenlive:file_hash">f2182e66d3381557a43575618d5bb78c</property>
  <property name="global_feed">1</property>
  <property name="xml">was here</property>
  <property name="kdenlive:binid">3</property>
  <property name="kdenlive:clipstate">0</property>
 </producer>
 <producer id="producer5" title="Anonymous Submission" out="44415" in="0">
  <property name="length">44416</property>
  <property name="eof">pause</property>
  <property name="resource">2020-10-21 16-44-56.mkv</property>
  <property name="audio_index">-1</property>
  <property name="video_index">-1</property>
  <property name="mute_on_pause">1</property>
  <property name="mlt_service">avformat-novalidate</property>
  <property name="seekable">1</property>
  <property name="aspect_ratio">1</property>
  <property name="kdenlive:folderid">-1</property>
  <property name="kdenlive:file_size">55118377</property>
  <property name="kdenlive:file_hash">f2182e66d3381557a43575618d5bb78c</property>
  <property name="global_feed">1</property>
  <property name="xml">was here</property>
  <property name="kdenlive:binid">3</property>
  <property name="kdenlive:clipstate">0</property>
 </producer>
 <playlist id="playlist7">
  <property name="kdenlive:track_name">Video 3</property>
  <blank length="2678"/>
  <entry out="44415" producer="producer4" in="31399">
   <filter id="crop">
    <property name="mlt_service">crop</property>
    <property name="kdenlive_id">crop</property>
    <property name="tag">crop</property>
    <property name="kdenlive_ix">1</property>
    <property name="kdenlive_info"/>
    <property name="top">41</property>
    <property name="left">30</property>
    <property name="bottom">34</property>
    <property name="right">102</property>
    <property name="center">0</property>
    <property name="center_bias">0</property>
    <property name="use_profile">0</property>
   </filter>
   <filter id="filter2" out="44415" in="31399">
    <property name="background">colour:0x00000000</property>
    <property name="mlt_service">affine</property>
    <property name="kdenlive_id">pan_zoom</property>
    <property name="tag">affine</property>
    <property name="kdenlive_ix">2</property>
    <property name="kdenlive:sync_in_out">1</property>
    <property name="kdenlive_info"/>
    <property name="transition.geometry">0=7/0:1900x1069:100;89=942/0:971x546:100;13016=942/0:971x546:100</property>
    <property name="transition.distort">0</property>
    <property name="disable"/>
   </filter>
  </entry>
  <entry out="44415" producer="producer5" in="31399">
   <filter id="filter3" out="44415" in="31399">
    <property name="background">colour:0x00000000</property>
    <property name="mlt_service">affine</property>
    <property name="kdenlive_id">pan_zoom</property>
    <property name="tag">affine</property>
    <property name="kdenlive_ix">1</property>
    <property name="kdenlive:sync_in_out">1</property>
    <property name="kdenlive_info"/>
    <property name="transition.geometry">0=942/0:971x546:100;13016=942/0:971x546:100</property>
    <property name="transition.distort">0</property>
   </filter>
   <filter id="filter4">
    <property name="mlt_service">crop</property>
    <property name="kdenlive_id">crop</property>
    <property name="tag">crop</property>
    <property name="kdenlive_ix">2</property>
    <property name="kdenlive_info"/>
    <property name="top">41</property>
    <property name="left">30</property>
    <property name="bottom">34</property>
    <property name="right">102</property>
    <property name="center">0</property>
    <property name="center_bias">0</property>
    <property name="use_profile">0</property>
   </filter>
  </entry>
 </playlist>
 <producer id="producer3" title="Anonymous Submission" out="44415" in="0">
  <property name="length">44416</property>
  <property name="eof">pause</property>
  <property name="resource">2020-10-21 16-44-56.mkv</property>
  <property name="audio_index">-1</property>
  <property name="video_index">-1</property>
  <property name="mute_on_pause">1</property>
  <property name="mlt_service">avformat-novalidate</property>
  <property name="seekable">1</property>
  <property name="aspect_ratio">1</property>
  <property name="kdenlive:folderid">-1</property>
  <property name="kdenlive:file_size">55118377</property>
  <property name="kdenlive:file_hash">f2182e66d3381557a43575618d5bb78c</property>
  <property name="global_feed">1</property>
  <property name="xml">was here</property>
  <property name="kdenlive:binid">3</property>
  <property name="kdenlive:clipstate">0</property>
 </producer>
 <producer id="3_playlist8" title="Anonymous Submission" out="44415" in="0">
  <property name="length">44416</property>
  <property name="eof">pause</property>
  <property name="resource">2020-10-21 16-44-56.mkv</property>
  <property name="audio_index">1</property>
  <property name="video_index">0</property>
  <property name="mute_on_pause">1</property>
  <property name="mlt_service">avformat-novalidate</property>
  <property name="seekable">1</property>
  <property name="aspect_ratio">1</property>
  <property name="kdenlive:folderid">-1</property>
  <property name="kdenlive:file_size">55118377</property>
  <property name="kdenlive:file_hash">f2182e66d3381557a43575618d5bb78c</property>
  <property name="global_feed">1</property>
  <property name="xml">was here</property>
  <property name="meta.media.nb_streams">2</property>
  <property name="meta.media.0.stream.type">video</property>
  <property name="meta.media.0.stream.frame_rate">30</property>
  <property name="meta.media.0.stream.sample_aspect_ratio">0</property>
  <property name="meta.media.0.codec.width">1280</property>
  <property name="meta.media.0.codec.height">720</property>
  <property name="meta.media.0.codec.rotate">0</property>
  <property name="meta.media.0.codec.frame_rate">30</property>
  <property name="meta.media.0.codec.pix_fmt">yuv420p</property>
  <property name="meta.media.0.codec.sample_aspect_ratio">0</property>
  <property name="meta.media.0.codec.colorspace">709</property>
  <property name="meta.media.0.codec.name">h264</property>
  <property name="meta.media.0.codec.long_name">H.264 / AVC / MPEG-4 AVC / MPEG-4 part 10</property>
  <property name="meta.media.0.codec.bit_rate">0</property>
  <property name="meta.attr.0.stream.DURATION.markup">00:24:40.533000000</property>
  <property name="meta.media.1.stream.type">audio</property>
  <property name="meta.media.1.codec.sample_fmt">fltp</property>
  <property name="meta.media.1.codec.sample_rate">44100</property>
  <property name="meta.media.1.codec.channels">2</property>
  <property name="meta.media.1.codec.name">aac</property>
  <property name="meta.media.1.codec.long_name">AAC (Advanced Audio Coding)</property>
  <property name="meta.media.1.codec.bit_rate">0</property>
  <property name="meta.attr.1.stream.title.markup">simple_aac_recording</property>
  <property name="meta.attr.1.stream.DURATION.markup">00:24:40.458000000</property>
  <property name="meta.attr.ENCODER.markup">Lavf58.29.100</property>
  <property name="meta.media.sample_aspect_num">1</property>
  <property name="meta.media.sample_aspect_den">1</property>
  <property name="meta.media.frame_rate_num">30</property>
  <property name="meta.media.frame_rate_den">1</property>
  <property name="meta.media.colorspace">709</property>
  <property name="meta.media.color_trc">2</property>
  <property name="meta.media.width">1280</property>
  <property name="meta.media.height">720</property>
  <property name="meta.media.top_field_first">0</property>
  <property name="meta.media.progressive">1</property>
 </producer>
 <playlist id="playlist8">
  <property name="kdenlive:track_name">Video 4</property>
  <blank length="1754"/>
  <entry out="31398" producer="producer3" in="31226">
   <filter id="comp_zoom" out="31398" in="31226">
    <property name="background">colour:0x00000000</property>
    <property name="mlt_service">affine</property>
    <property name="kdenlive_id">comp_zoom</property>
    <property name="tag">affine</property>
    <property name="kdenlive_info"/>
    <property name="kdenlive_ix">1</property>
    <property name="disable"/>
    <property name="transition.geometry">115/460:1100x619:100</property>
    <property name="transition.distort">0</property>
    <property name="kdenlive:sync_in_out">1</property>
   </filter>
   <filter id="comp_crop">
    <property name="mlt_service">crop</property>
    <property name="kdenlive_id">comp_crop</property>
    <property name="tag">crop</property>
    <property name="kdenlive_info"/>
    <property name="kdenlive_ix">2</property>
    <property name="disable"/>
    <property name="top">40</property>
    <property name="left">30</property>
    <property name="bottom">35</property>
    <property name="right">100</property>
    <property name="center">0</property>
    <property name="center_bias">0</property>
    <property name="use_profile">0</property>
   </filter>
  </entry>
  <entry out="44415" producer="3_playlist8" in="31204">
   <filter id="filter1" out="44415" in="31204">
    <property name="background">colour:0x00000000</property>
    <property name="mlt_service">affine</property>
    <property name="kdenlive_id">comp_zoom</property>
    <property name="tag">affine</property>
    <property name="kdenlive_ix">1</property>
    <property name="kdenlive:sync_in_out">1</property>
    <property name="kdenlive_info"/>
    <property name="disable"/>
    <property name="transition.geometry">115/460:1100x619:100</property>
    <property name="transition.distort">0</property>
   </filter>
   <filter id="filter5">
    <property name="mlt_service">crop</property>
    <property name="kdenlive_id">comp_crop</property>
    <property name="tag">crop</property>
    <property name="kdenlive_ix">2</property>
    <property name="kdenlive_info"/>
    <property name="disable"/>
    <property name="top">40</property>
    <property name="left">30</property>
    <property name="bottom">35</property>
    <property name="right">100</property>
    <property name="center">0</property>
    <property name="center_bias">0</property>
    <property name="use_profile">0</property>
   </filter>
  </entry>
 </playlist>
 <producer id="slowmotion:9:0.91:1:0" out="30156" in="0">
  <property name="length">30157</property>
  <property name="eof">pause</property>
  <property name="resource">0.91:record-20201021-164952.mp4</property>
  <property name="aspect_ratio">1</property>
  <property name="meta.media.nb_streams">1</property>
  <property name="meta.media.0.stream.type">video</property>
  <property name="meta.media.0.stream.frame_rate">49.1846</property>
  <property name="meta.media.0.stream.sample_aspect_ratio">1</property>
  <property name="meta.media.0.codec.width">720</property>
  <property name="meta.media.0.codec.height">1280</property>
  <property name="meta.media.0.codec.rotate">0</property>
  <property name="meta.media.0.codec.frame_rate">90000</property>
  <property name="meta.media.0.codec.pix_fmt">yuv420p</property>
  <property name="meta.media.0.codec.sample_aspect_ratio">0</property>
  <property name="meta.media.0.codec.colorspace">601</property>
  <property name="meta.media.0.codec.color_trc">6</property>
  <property name="meta.media.0.codec.name">h264</property>
  <property name="meta.media.0.codec.long_name">H.264 / AVC / MPEG-4 AVC / MPEG-4 part 10</property>
  <property name="meta.media.0.codec.bit_rate">5994807</property>
  <property name="meta.attr.0.stream.creation_time.markup">2020-10-21T09:05:07.000000Z</property>
  <property name="meta.attr.0.stream.language.markup">eng</property>
  <property name="meta.attr.0.stream.handler_name.markup">VideoHandle</property>
  <property name="meta.attr.major_brand.markup">mp42</property>
  <property name="meta.attr.minor_version.markup">0</property>
  <property name="meta.attr.compatible_brands.markup">isommp42</property>
  <property name="meta.attr.creation_time.markup">2020-10-21T09:05:07.000000Z</property>
  <property name="meta.attr.com.android.version.markup">8.0.0</property>
  <property name="seekable">1</property>
  <property name="meta.media.sample_aspect_num">1</property>
  <property name="meta.media.sample_aspect_den">1</property>
  <property name="audio_index">-1</property>
  <property name="video_index">0</property>
  <property name="mute_on_pause">1</property>
  <property name="warp_speed">0.91</property>
  <property name="warp_resource">record-20201021-164952.mp4</property>
  <property name="mlt_service">timewarp</property>
  <property name="meta.media.frame_rate_num">541</property>
  <property name="meta.media.frame_rate_den">11</property>
  <property name="meta.media.colorspace">601</property>
  <property name="meta.media.color_trc">6</property>
  <property name="meta.media.width">720</property>
  <property name="meta.media.height">1280</property>
  <property name="meta.media.variable_frame_rate">1</property>
  <property name="meta.media.top_field_first">0</property>
  <property name="meta.media.progressive">1</property>
 </producer>
 <producer id="slowmotion:9:1.04:1:0" out="26386" in="0">
  <property name="length">26387</property>
  <property name="eof">pause</property>
  <property name="resource">1.04:record-20201021-164952.mp4</property>
  <property name="aspect_ratio">1</property>
  <property name="meta.media.nb_streams">1</property>
  <property name="meta.media.0.stream.type">video</property>
  <property name="meta.media.0.stream.frame_rate">49.1846</property>
  <property name="meta.media.0.stream.sample_aspect_ratio">1</property>
  <property name="meta.media.0.codec.width">720</property>
  <property name="meta.media.0.codec.height">1280</property>
  <property name="meta.media.0.codec.rotate">0</property>
  <property name="meta.media.0.codec.frame_rate">90000</property>
  <property name="meta.media.0.codec.pix_fmt">yuv420p</property>
  <property name="meta.media.0.codec.sample_aspect_ratio">0</property>
  <property name="meta.media.0.codec.colorspace">601</property>
  <property name="meta.media.0.codec.color_trc">6</property>
  <property name="meta.media.0.codec.name">h264</property>
  <property name="meta.media.0.codec.long_name">H.264 / AVC / MPEG-4 AVC / MPEG-4 part 10</property>
  <property name="meta.media.0.codec.bit_rate">5994807</property>
  <property name="meta.attr.0.stream.creation_time.markup">2020-10-21T09:05:07.000000Z</property>
  <property name="meta.attr.0.stream.language.markup">eng</property>
  <property name="meta.attr.0.stream.handler_name.markup">VideoHandle</property>
  <property name="meta.attr.major_brand.markup">mp42</property>
  <property name="meta.attr.minor_version.markup">0</property>
  <property name="meta.attr.compatible_brands.markup">isommp42</property>
  <property name="meta.attr.creation_time.markup">2020-10-21T09:05:07.000000Z</property>
  <property name="meta.attr.com.android.version.markup">8.0.0</property>
  <property name="seekable">1</property>
  <property name="meta.media.sample_aspect_num">1</property>
  <property name="meta.media.sample_aspect_den">1</property>
  <property name="audio_index">-1</property>
  <property name="video_index">0</property>
  <property name="mute_on_pause">1</property>
  <property name="warp_speed">1.04</property>
  <property name="warp_resource">record-20201021-164952.mp4</property>
  <property name="mlt_service">timewarp</property>
  <property name="meta.media.frame_rate_num">541</property>
  <property name="meta.media.frame_rate_den">11</property>
  <property name="meta.media.colorspace">601</property>
  <property name="meta.media.color_trc">6</property>
  <property name="meta.media.width">720</property>
  <property name="meta.media.height">1280</property>
  <property name="meta.media.variable_frame_rate">1</property>
  <property name="meta.media.top_field_first">0</property>
  <property name="meta.media.progressive">1</property>
 </producer>
 <playlist id="playlist0">
  <property name="kdenlive:track_name">Video 7</property>
  <blank length="1823"/>
  <entry out="24300" producer="slowmotion:9:0.91:1:0" in="22342">
   <filter id="sound_crop">
    <property name="mlt_service">crop</property>
    <property name="kdenlive_id">sound_crop</property>
    <property name="tag">crop</property>
    <property name="kdenlive_info"/>
    <property name="kdenlive_ix">2</property>
    <property name="disable"/>
    <property name="top">40</property>
    <property name="left">0</property>
    <property name="bottom">350</property>
    <property name="right">0</property>
    <property name="center">0</property>
    <property name="center_bias">0</property>
    <property name="use_profile">0</property>
   </filter>
   <filter id="sound_zoom" out="24300" in="22342">
    <property name="background">colour:0x00000000</property>
    <property name="mlt_service">affine</property>
    <property name="kdenlive_id">sound_zoom</property>
    <property name="tag">affine</property>
    <property name="kdenlive_info"/>
    <property name="kdenlive_ix">3</property>
    <property name="disable"/>
    <property name="transition.geometry">910/460:1100x619:100</property>
    <property name="transition.distort">0</property>
    <property name="kdenlive:sync_in_out">1</property>
   </filter>
  </entry>
  <entry out="26383" producer="slowmotion:9:1.04:1:0" in="21263">
   <filter id="filter6">
    <property name="mlt_service">crop</property>
    <property name="kdenlive_id">sound_crop</property>
    <property name="tag">crop</property>
    <property name="kdenlive_info"/>
    <property name="kdenlive_ix">2</property>
    <property name="disable"/>
    <property name="top">40</property>
    <property name="left">0</property>
    <property name="bottom">350</property>
    <property name="right">0</property>
    <property name="center">0</property>
    <property name="center_bias">0</property>
    <property name="use_profile">0</property>
   </filter>
   <filter id="filter7" out="26383" in="21263">
    <property name="background">colour:0x00000000</property>
    <property name="mlt_service">affine</property>
    <property name="kdenlive_id">sound_zoom</property>
    <property name="tag">affine</property>
    <property name="kdenlive_info"/>
    <property name="kdenlive_ix">3</property>
    <property name="disable"/>
    <property name="transition.geometry">910/460:1100x619:100</property>
    <property name="transition.distort">0</property>
    <property name="kdenlive:sync_in_out">1</property>
   </filter>
  </entry>
 </playlist>
 <producer id="9_playlist11" title="Anonymous Submission" out="27442" in="0">
  <property name="length">27443</property>
  <property name="eof">pause</property>
  <property name="resource">record-20201021-164952.mp4</property>
  <property name="audio_index">-1</property>
  <property name="video_index">0</property>
  <property name="mute_on_pause">1</property>
  <property name="mlt_service">avformat-novalidate</property>
  <property name="seekable">1</property>
  <property name="aspect_ratio">1</property>
  <property name="kdenlive:folderid">-1</property>
  <property name="kdenlive:file_size">686022290</property>
  <property name="kdenlive:file_hash">bd37a40b203be5a4a9b2e15035c76ad5</property>
  <property name="global_feed">1</property>
  <property name="kdenlive:zone_in">1445</property>
  <property name="kdenlive:zone_out">27442</property>
  <property name="xml">was here</property>
  <property name="meta.media.nb_streams">1</property>
  <property name="meta.media.0.stream.type">video</property>
  <property name="meta.media.0.stream.frame_rate">49.1846</property>
  <property name="meta.media.0.stream.sample_aspect_ratio">1</property>
  <property name="meta.media.0.codec.width">720</property>
  <property name="meta.media.0.codec.height">1280</property>
  <property name="meta.media.0.codec.rotate">0</property>
  <property name="meta.media.0.codec.frame_rate">90000</property>
  <property name="meta.media.0.codec.pix_fmt">yuv420p</property>
  <property name="meta.media.0.codec.sample_aspect_ratio">0</property>
  <property name="meta.media.0.codec.colorspace">601</property>
  <property name="meta.media.0.codec.color_trc">6</property>
  <property name="meta.media.0.codec.name">h264</property>
  <property name="meta.media.0.codec.long_name">H.264 / AVC / MPEG-4 AVC / MPEG-4 part 10</property>
  <property name="meta.media.0.codec.bit_rate">5994807</property>
  <property name="meta.attr.0.stream.creation_time.markup">2020-10-21T09:05:07.000000Z</property>
  <property name="meta.attr.0.stream.language.markup">eng</property>
  <property name="meta.attr.0.stream.handler_name.markup">VideoHandle</property>
  <property name="meta.attr.major_brand.markup">mp42</property>
  <property name="meta.attr.minor_version.markup">0</property>
  <property name="meta.attr.compatible_brands.markup">isommp42</property>
  <property name="meta.attr.creation_time.markup">2020-10-21T09:05:07.000000Z</property>
  <property name="meta.attr.com.android.version.markup">8.0.0</property>
  <property name="meta.media.sample_aspect_num">1</property>
  <property name="meta.media.sample_aspect_den">1</property>
  <property name="meta.media.frame_rate_num">541</property>
  <property name="meta.media.frame_rate_den">11</property>
  <property name="meta.media.colorspace">601</property>
  <property name="meta.media.color_trc">6</property>
  <property name="meta.media.width">720</property>
  <property name="meta.media.height">1280</property>
  <property name="meta.media.variable_frame_rate">1</property>
  <property name="meta.media.top_field_first">0</property>
  <property name="meta.media.progressive">1</property>
 </producer>
 <playlist id="playlist11">
  <property name="kdenlive:track_name">Video 6</property>
  <blank length="883"/>
  <entry out="21703" producer="9_playlist11" in="20706">
   <filter id="filter18">
    <property name="mlt_service">crop</property>
    <property name="kdenlive_id">crop</property>
    <property name="tag">crop</property>
    <property name="kdenlive_ix">1</property>
    <property name="kdenlive_info"/>
    <property name="disable">0</property>
    <property name="top">40</property>
    <property name="left">0</property>
    <property name="bottom">350</property>
    <property name="right">0</property>
    <property name="center">0</property>
    <property name="center_bias">0</property>
    <property name="use_profile">0</property>
   </filter>
   <filter id="filter19" out="21507" in="20706">
    <property name="background">colour:0x00000000</property>
    <property name="mlt_service">affine</property>
    <property name="kdenlive_id">sound_zoom</property>
    <property name="tag">affine</property>
    <property name="kdenlive_info"/>
    <property name="kdenlive_ix">2</property>
    <property name="disable"/>
    <property name="transition.geometry">0=0/0:1920x1080:100;13=910/460:1100x619:100;18=910/460:1100x619:100</property>
    <property name="transition.distort">0</property>
    <property name="kdenlive:sync_in_out">1</property>
   </filter>
  </entry>
 </playlist>
 <producer id="9_playlist13" title="Anonymous Submission" out="27442" in="0">
  <property name="length">27443</property>
  <property name="eof">pause</property>
  <property name="resource">record-20201021-164952.mp4</property>
  <property name="audio_index">-1</property>
  <property name="video_index">0</property>
  <property name="mute_on_pause">1</property>
  <property name="mlt_service">avformat-novalidate</property>
  <property name="seekable">1</property>
  <property name="aspect_ratio">1</property>
  <property name="kdenlive:folderid">-1</property>
  <property name="kdenlive:file_size">686022290</property>
  <property name="kdenlive:file_hash">bd37a40b203be5a4a9b2e15035c76ad5</property>
  <property name="global_feed">1</property>
  <property name="kdenlive:zone_in">1445</property>
  <property name="kdenlive:zone_out">27442</property>
  <property name="xml">was here</property>
  <property name="meta.media.nb_streams">1</property>
  <property name="meta.media.0.stream.type">video</property>
  <property name="meta.media.0.stream.frame_rate">49.1846</property>
  <property name="meta.media.0.stream.sample_aspect_ratio">1</property>
  <property name="meta.media.0.codec.width">720</property>
  <property name="meta.media.0.codec.height">1280</property>
  <property name="meta.media.0.codec.rotate">0</property>
  <property name="meta.media.0.codec.frame_rate">90000</property>
  <property name="meta.media.0.codec.pix_fmt">yuv420p</property>
  <property name="meta.media.0.codec.sample_aspect_ratio">0</property>
  <property name="meta.media.0.codec.colorspace">601</property>
  <property name="meta.media.0.codec.color_trc">6</property>
  <property name="meta.media.0.codec.name">h264</property>
  <property name="meta.media.0.codec.long_name">H.264 / AVC / MPEG-4 AVC / MPEG-4 part 10</property>
  <property name="meta.media.0.codec.bit_rate">5994807</property>
  <property name="meta.attr.0.stream.creation_time.markup">2020-10-21T09:05:07.000000Z</property>
  <property name="meta.attr.0.stream.language.markup">eng</property>
  <property name="meta.attr.0.stream.handler_name.markup">VideoHandle</property>
  <property name="meta.attr.major_brand.markup">mp42</property>
  <property name="meta.attr.minor_version.markup">0</property>
  <property name="meta.attr.compatible_brands.markup">isommp42</property>
  <property name="meta.attr.creation_time.markup">2020-10-21T09:05:07.000000Z</property>
  <property name="meta.attr.com.android.version.markup">8.0.0</property>
  <property name="meta.media.sample_aspect_num">1</property>
  <property name="meta.media.sample_aspect_den">1</property>
  <property name="meta.media.frame_rate_num">541</property>
  <property name="meta.media.frame_rate_den">11</property>
  <property name="meta.media.colorspace">601</property>
  <property name="meta.media.color_trc">6</property>
  <property name="meta.media.width">720</property>
  <property name="meta.media.height">1280</property>
  <property name="meta.media.variable_frame_rate">1</property>
  <property name="meta.media.top_field_first">0</property>
  <property name="meta.media.progressive">1</property>
 </producer>
 <playlist id="playlist13">
  <property name="kdenlive:track_name">Video 10</property>
  <blank length="456"/>
  <entry out="22430" producer="9_playlist13" in="22004">
   <filter id="filter8">
    <property name="mlt_service">crop</property>
    <property name="kdenlive_id">sound_crop</property>
    <property name="tag">crop</property>
    <property name="kdenlive_ix">1</property>
    <property name="kdenlive_info"/>
    <property name="disable"/>
    <property name="top">40</property>
    <property name="left">0</property>
    <property name="bottom">350</property>
    <property name="right">0</property>
    <property name="center">0</property>
    <property name="center_bias">0</property>
    <property name="use_profile">0</property>
   </filter>
  </entry>
 </playlist>
 <playlist id="playlist10">
  <property name="kdenlive:track_name">Video 8</property>
  <blank length="456"/>
  <entry out="310" producer="11" in="160"/>
  <entry out="250" producer="12" in="0"/>
 </playlist>
 <producer id="3_playlist14" title="Anonymous Submission" out="44415" in="0">
  <property name="length">44416</property>
  <property name="eof">pause</property>
  <property name="resource">2020-10-21 16-44-56.mkv</property>
  <property name="audio_index">1</property>
  <property name="video_index">0</property>
  <property name="mute_on_pause">1</property>
  <property name="mlt_service">avformat-novalidate</property>
  <property name="seekable">1</property>
  <property name="aspect_ratio">1</property>
  <property name="kdenlive:folderid">-1</property>
  <property name="kdenlive:file_size">55118377</property>
  <property name="kdenlive:file_hash">f2182e66d3381557a43575618d5bb78c</property>
  <property name="global_feed">1</property>
  <property name="xml">was here</property>
  <property name="meta.media.nb_streams">2</property>
  <property name="meta.media.0.stream.type">video</property>
  <property name="meta.media.0.stream.frame_rate">30</property>
  <property name="meta.media.0.stream.sample_aspect_ratio">0</property>
  <property name="meta.media.0.codec.width">1280</property>
  <property name="meta.media.0.codec.height">720</property>
  <property name="meta.media.0.codec.rotate">0</property>
  <property name="meta.media.0.codec.frame_rate">30</property>
  <property name="meta.media.0.codec.pix_fmt">yuv420p</property>
  <property name="meta.media.0.codec.sample_aspect_ratio">0</property>
  <property name="meta.media.0.codec.colorspace">709</property>
  <property name="meta.media.0.codec.name">h264</property>
  <property name="meta.media.0.codec.long_name">H.264 / AVC / MPEG-4 AVC / MPEG-4 part 10</property>
  <property name="meta.media.0.codec.bit_rate">0</property>
  <property name="meta.attr.0.stream.DURATION.markup">00:24:40.533000000</property>
  <property name="meta.media.1.stream.type">audio</property>
  <property name="meta.media.1.codec.sample_fmt">fltp</property>
  <property name="meta.media.1.codec.sample_rate">44100</property>
  <property name="meta.media.1.codec.channels">2</property>
  <property name="meta.media.1.codec.name">aac</property>
  <property name="meta.media.1.codec.long_name">AAC (Advanced Audio Coding)</property>
  <property name="meta.media.1.codec.bit_rate">0</property>
  <property name="meta.attr.1.stream.title.markup">simple_aac_recording</property>
  <property name="meta.attr.1.stream.DURATION.markup">00:24:40.458000000</property>
  <property name="meta.attr.ENCODER.markup">Lavf58.29.100</property>
  <property name="meta.media.sample_aspect_num">1</property>
  <property name="meta.media.sample_aspect_den">1</property>
  <property name="meta.media.frame_rate_num">30</property>
  <property name="meta.media.frame_rate_den">1</property>
  <property name="meta.media.colorspace">709</property>
  <property name="meta.media.color_trc">2</property>
  <property name="meta.media.width">1280</property>
  <property name="meta.media.height">720</property>
  <property name="meta.media.top_field_first">0</property>
  <property name="meta.media.progressive">1</property>
 </producer>
 <producer id="producer6" title="Anonymous Submission" out="44415" in="0">
  <property name="length">44416</property>
  <property name="eof">pause</property>
  <property name="resource">2020-10-21 16-44-56.mkv</property>
  <property name="audio_index">-1</property>
  <property name="video_index">-1</property>
  <property name="mute_on_pause">1</property>
  <property name="mlt_service">avformat-novalidate</property>
  <property name="seekable">1</property>
  <property name="aspect_ratio">1</property>
  <property name="kdenlive:folderid">-1</property>
  <property name="kdenlive:file_size">55118377</property>
  <property name="kdenlive:file_hash">f2182e66d3381557a43575618d5bb78c</property>
  <property name="global_feed">1</property>
  <property name="xml">was here</property>
  <property name="kdenlive:binid">3</property>
  <property name="kdenlive:clipstate">0</property>
 </producer>
 <playlist id="playlist14">
  <property name="kdenlive:track_name">Video 11</property>
  <blank length="985"/>
  <entry out="29504" producer="3_playlist14" in="29198">
   <filter id="filter20">
    <property name="mlt_service">crop</property>
    <property name="kdenlive_id">comp_crop</property>
    <property name="tag">crop</property>
    <property name="kdenlive_ix">1</property>
    <property name="kdenlive_info"/>
    <property name="disable"/>
    <property name="top">40</property>
    <property name="left">30</property>
    <property name="bottom">35</property>
    <property name="right">100</property>
    <property name="center">0</property>
    <property name="center_bias">0</property>
    <property name="use_profile">0</property>
   </filter>
  </entry>
  <blank length="150"/>
  <entry out="29545" producer="3_playlist14" in="29505">
   <filter id="filter21">
    <property name="mlt_service">crop</property>
    <property name="kdenlive_id">comp_crop</property>
    <property name="tag">crop</property>
    <property name="kdenlive_ix">1</property>
    <property name="kdenlive_info"/>
    <property name="disable"/>
    <property name="top">40</property>
    <property name="left">30</property>
    <property name="bottom">35</property>
    <property name="right">100</property>
    <property name="center">0</property>
    <property name="center_bias">0</property>
    <property name="use_profile">0</property>
   </filter>
  </entry>
  <blank length="300"/>
  <entry out="29629" producer="3_playlist14" in="29575">
   <filter id="filter22">
    <property name="mlt_service">crop</property>
    <property name="kdenlive_id">comp_crop</property>
    <property name="tag">crop</property>
    <property name="kdenlive_ix">1</property>
    <property name="kdenlive_info"/>
    <property name="disable"/>
    <property name="top">40</property>
    <property name="left">30</property>
    <property name="bottom">35</property>
    <property name="right">100</property>
    <property name="center">0</property>
    <property name="center_bias">0</property>
    <property name="use_profile">0</property>
   </filter>
   <filter id="filter23">
    <property name="background">colour:0x00000000</property>
    <property name="mlt_service">affine</property>
    <property name="kdenlive_id">comp_zoom</property>
    <property name="tag">affine</property>
    <property name="kdenlive_ix">2</property>
    <property name="kdenlive_info"/>
    <property name="disable"/>
    <property name="transition.geometry">0=0/0:1920x1080:100;6=0/0:1920x1080:100</property>
    <property name="transition.distort">0</property>
   </filter>
  </entry>
  <entry out="29687" producer="3_playlist14" in="29630">
   <filter id="filter24">
    <property name="mlt_service">crop</property>
    <property name="kdenlive_id">comp_crop</property>
    <property name="tag">crop</property>
    <property name="kdenlive_ix">1</property>
    <property name="kdenlive_info"/>
    <property name="disable"/>
    <property name="top">40</property>
    <property name="left">30</property>
    <property name="bottom">35</property>
    <property name="right">100</property>
    <property name="center">0</property>
    <property name="center_bias">0</property>
    <property name="use_profile">0</property>
   </filter>
   <filter id="filter25">
    <property name="background">colour:0x00000000</property>
    <property name="mlt_service">affine</property>
    <property name="kdenlive_id">comp_zoom</property>
    <property name="tag">affine</property>
    <property name="kdenlive_ix">2</property>
    <property name="kdenlive_info"/>
    <property name="disable"/>
    <property name="transition.geometry">0=0/0:1920x1080:100;6=0/0:1920x1080:100</property>
    <property name="transition.distort">0</property>
   </filter>
  </entry>
  <entry out="29712" producer="3_playlist14" in="29688">
   <filter id="filter26">
    <property name="mlt_service">crop</property>
    <property name="kdenlive_id">comp_crop</property>
    <property name="tag">crop</property>
    <property name="kdenlive_ix">1</property>
    <property name="kdenlive_info"/>
    <property name="disable"/>
    <property name="top">40</property>
    <property name="left">30</property>
    <property name="bottom">35</property>
    <property name="right">100</property>
    <property name="center">0</property>
    <property name="center_bias">0</property>
    <property name="use_profile">0</property>
   </filter>
   <filter id="filter27">
    <property name="background">colour:0x00000000</property>
    <property name="mlt_service">affine</property>
    <property name="kdenlive_id">comp_zoom</property>
    <property name="tag">affine</property>
    <property name="kdenlive_ix">2</property>
    <property name="kdenlive_info"/>
    <property name="disable"/>
    <property name="transition.geometry">0=0/0:1920x1080:100;6=0/0:1920x1080:100</property>
    <property name="transition.distort">0</property>
   </filter>
  </entry>
  <entry out="149" producer="22" in="0">
   <filter id="filter28" out="149">
    <property name="background">colour:0x00000000</property>
    <property name="mlt_service">affine</property>
    <property name="kdenlive_id">comp_zoom</property>
    <property name="tag">affine</property>
    <property name="kdenlive_info"/>
    <property name="kdenlive_ix">1</property>
    <property name="disable"/>
    <property name="transition.geometry">0=0/0:1920x1080:100;5=115/460:1100x619:100</property>
    <property name="transition.distort">0</property>
    <property name="kdenlive:sync_in_out">1</property>
   </filter>
  </entry>
  <blank length="2047"/>
  <entry out="44415" producer="producer6" in="29713">
   <filter id="filter29">
    <property name="mlt_service">crop</property>
    <property name="kdenlive_id">comp_crop</property>
    <property name="tag">crop</property>
    <property name="kdenlive_ix">1</property>
    <property name="kdenlive_info"/>
    <property name="disable"/>
    <property name="top">40</property>
    <property name="left">30</property>
    <property name="bottom">35</property>
    <property name="right">100</property>
    <property name="center">0</property>
    <property name="center_bias">0</property>
    <property name="use_profile">0</property>
   </filter>
  </entry>
 </playlist>
 <playlist id="playlist9">
  <property name="kdenlive:track_name">Video 5</property>
  <blank length="985"/>
  <entry out="149" producer="15" in="0"/>
  <entry out="149" producer="16" in="0"/>
  <blank length="7"/>
  <entry out="149" producer="18" in="0"/>
  <blank length="41"/>
  <entry out="149" producer="20" in="0"/>
  <entry out="149" producer="21" in="0"/>
 </playlist>
 <playlist id="playlist15">
  <property name="kdenlive:track_name">Video 12</property>
 </playlist>
 <tractor id="maintractor" title="Anonymous Submission" global_feed="1" out="28712" in="0">
  <track producer="black_track"/>
  <track producer="playlist1" hide="video"/>
  <track producer="playlist2" hide="video"/>
  <track producer="playlist3" hide="video"/>
  <track producer="playlist4" hide="video"/>
  <track producer="playlist12"/>
  <track producer="playlist5"/>
  <track producer="playlist6"/>
  <track producer="playlist7"/>
  <track producer="playlist8"/>
  <track producer="playlist0"/>
  <track producer="playlist11"/>
  <track producer="playlist13"/>
  <track producer="playlist10"/>
  <track producer="playlist14"/>
  <track producer="playlist9"/>
  <track producer="playlist15"/>
  <transition id="transition0">
   <property name="a_track">0</property>
   <property name="b_track">1</property>
   <property name="mlt_service">mix</property>
   <property name="always_active">1</property>
   <property name="sum">1</property>
   <property name="internal_added">237</property>
  </transition>
  <transition id="transition1">
   <property name="a_track">0</property>
   <property name="b_track">2</property>
   <property name="mlt_service">mix</property>
   <property name="always_active">1</property>
   <property name="sum">1</property>
   <property name="internal_added">237</property>
  </transition>
  <transition id="transition2">
   <property name="a_track">0</property>
   <property name="b_track">3</property>
   <property name="mlt_service">mix</property>
   <property name="always_active">1</property>
   <property name="sum">1</property>
   <property name="internal_added">237</property>
  </transition>
  <transition id="transition3">
   <property name="a_track">0</property>
   <property name="b_track">4</property>
   <property name="mlt_service">mix</property>
   <property name="always_active">1</property>
   <property name="sum">1</property>
   <property name="internal_added">237</property>
  </transition>
  <transition id="transition4">
   <property name="a_track">0</property>
   <property name="b_track">5</property>
   <property name="mlt_service">mix</property>
   <property name="always_active">1</property>
   <property name="sum">1</property>
   <property name="internal_added">237</property>
  </transition>
  <transition id="transition5">
   <property name="a_track">0</property>
   <property name="b_track">6</property>
   <property name="mlt_service">mix</property>
   <property name="always_active">1</property>
   <property name="sum">1</property>
   <property name="internal_added">237</property>
  </transition>
  <transition id="transition6">
   <property name="a_track">0</property>
   <property name="b_track">7</property>
   <property name="mlt_service">mix</property>
   <property name="always_active">1</property>
   <property name="sum">1</property>
   <property name="internal_added">237</property>
  </transition>
  <transition id="transition7">
   <property name="a_track">0</property>
   <property name="b_track">8</property>
   <property name="mlt_service">mix</property>
   <property name="always_active">1</property>
   <property name="sum">1</property>
   <property name="internal_added">237</property>
  </transition>
  <transition id="transition8">
   <property name="a_track">0</property>
   <property name="b_track">9</property>
   <property name="mlt_service">mix</property>
   <property name="always_active">1</property>
   <property name="sum">1</property>
   <property name="internal_added">237</property>
  </transition>
  <transition id="transition9">
   <property name="a_track">0</property>
   <property name="b_track">10</property>
   <property name="mlt_service">mix</property>
   <property name="always_active">1</property>
   <property name="sum">1</property>
   <property name="internal_added">237</property>
  </transition>
  <transition id="transition10">
   <property name="a_track">0</property>
   <property name="b_track">11</property>
   <property name="mlt_service">mix</property>
   <property name="always_active">1</property>
   <property name="sum">1</property>
   <property name="internal_added">237</property>
  </transition>
  <transition id="transition11">
   <property name="a_track">0</property>
   <property name="b_track">12</property>
   <property name="mlt_service">mix</property>
   <property name="always_active">1</property>
   <property name="sum">1</property>
   <property name="internal_added">237</property>
  </transition>
  <transition id="transition12">
   <property name="a_track">0</property>
   <property name="b_track">13</property>
   <property name="mlt_service">mix</property>
   <property name="always_active">1</property>
   <property name="sum">1</property>
   <property name="internal_added">237</property>
  </transition>
  <transition id="transition13">
   <property name="a_track">0</property>
   <property name="b_track">14</property>
   <property name="mlt_service">mix</property>
   <property name="always_active">1</property>
   <property name="sum">1</property>
   <property name="internal_added">237</property>
  </transition>
  <transition id="transition14">
   <property name="a_track">0</property>
   <property name="b_track">15</property>
   <property name="mlt_service">mix</property>
   <property name="always_active">1</property>
   <property name="sum">1</property>
   <property name="internal_added">237</property>
  </transition>
  <transition id="transition15">
   <property name="a_track">0</property>
   <property name="b_track">16</property>
   <property name="mlt_service">mix</property>
   <property name="always_active">1</property>
   <property name="sum">1</property>
   <property name="internal_added">237</property>
  </transition>
  <transition id="transition16">
   <property name="a_track">0</property>
   <property name="b_track">5</property>
   <property name="compositing">0</property>
   <property name="distort">0</property>
   <property name="rotate_center">0</property>
   <property name="mlt_service">qtblend</property>
   <property name="always_active">1</property>
   <property name="internal_added">237</property>
  </transition>
  <transition id="transition17">
   <property name="a_track">0</property>
   <property name="b_track">6</property>
   <property name="compositing">0</property>
   <property name="distort">0</property>
   <property name="rotate_center">0</property>
   <property name="mlt_service">qtblend</property>
   <property name="always_active">1</property>
   <property name="internal_added">237</property>
  </transition>
  <transition id="transition18">
   <property name="a_track">0</property>
   <property name="b_track">7</property>
   <property name="compositing">0</property>
   <property name="distort">0</property>
   <property name="rotate_center">0</property>
   <property name="mlt_service">qtblend</property>
   <property name="always_active">1</property>
   <property name="internal_added">237</property>
  </transition>
  <transition id="transition19">
   <property name="a_track">0</property>
   <property name="b_track">8</property>
   <property name="compositing">0</property>
   <property name="distort">0</property>
   <property name="rotate_center">0</property>
   <property name="mlt_service">qtblend</property>
   <property name="always_active">1</property>
   <property name="internal_added">237</property>
  </transition>
  <transition id="transition20">
   <property name="a_track">0</property>
   <property name="b_track">9</property>
   <property name="compositing">0</property>
   <property name="distort">0</property>
   <property name="rotate_center">0</property>
   <property name="mlt_service">qtblend</property>
   <property name="always_active">1</property>
   <property name="internal_added">237</property>
  </transition>
  <transition id="transition21">
   <property name="a_track">0</property>
   <property name="b_track">10</property>
   <property name="compositing">0</property>
   <property name="distort">0</property>
   <property name="rotate_center">0</property>
   <property name="mlt_service">qtblend</property>
   <property name="always_active">1</property>
   <property name="internal_added">237</property>
  </transition>
  <transition id="transition22">
   <property name="a_track">0</property>
   <property name="b_track">11</property>
   <property name="compositing">0</property>
   <property name="distort">0</property>
   <property name="rotate_center">0</property>
   <property name="mlt_service">qtblend</property>
   <property name="always_active">1</property>
   <property name="internal_added">237</property>
  </transition>
  <transition id="transition23">
   <property name="a_track">0</property>
   <property name="b_track">12</property>
   <property name="compositing">0</property>
   <property name="distort">0</property>
   <property name="rotate_center">0</property>
   <property name="mlt_service">qtblend</property>
   <property name="always_active">1</property>
   <property name="internal_added">237</property>
  </transition>
  <transition id="transition24">
   <property name="a_track">0</property>
   <property name="b_track">13</property>
   <property name="compositing">0</property>
   <property name="distort">0</property>
   <property name="rotate_center">0</property>
   <property name="mlt_service">qtblend</property>
   <property name="always_active">1</property>
   <property name="internal_added">237</property>
  </transition>
  <transition id="transition25">
   <property name="a_track">0</property>
   <property name="b_track">14</property>
   <property name="compositing">0</property>
   <property name="distort">0</property>
   <property name="rotate_center">0</property>
   <property name="mlt_service">qtblend</property>
   <property name="always_active">1</property>
   <property name="internal_added">237</property>
  </transition>
  <transition id="transition26">
   <property name="a_track">0</property>
   <property name="b_track">15</property>
   <property name="compositing">0</property>
   <property name="distort">0</property>
   <property name="rotate_center">0</property>
   <property name="mlt_service">qtblend</property>
   <property name="always_active">1</property>
   <property name="internal_added">237</property>
  </transition>
  <transition id="transition27">
   <property name="a_track">0</property>
   <property name="b_track">16</property>
   <property name="compositing">0</property>
   <property name="distort">0</property>
   <property name="rotate_center">0</property>
   <property name="mlt_service">qtblend</property>
   <property name="always_active">1</property>
   <property name="internal_added">237</property>
  </transition>
 </tractor>
</mlt>
