<?xml version='1.0' encoding='utf-8'?>
<mlt LC_NUMERIC="C" producer="main_bin" version="6.22.1" root="/run/media/maxhsu/8E1470E81470D4A5/Users/Max-Hsu_Lab/Desktop/Homework/G3-1/Project/videoedit">
 <profile frame_rate_num="30" sample_aspect_num="1" display_aspect_den="9" colorspace="709" progressive="1" description="HD 1080p 30 fps" display_aspect_num="16" frame_rate_den="1" width="1920" height="1080" sample_aspect_den="1"/>
 <producer id="1" in="00:00:00.000" out="00:17:12.133">
  <property name="length">30965</property>
  <property name="eof">pause</property>
  <property name="resource">2020-10-06 17-27-09.mkv</property>
  <property name="audio_index">1</property>
  <property name="video_index">0</property>
  <property name="mute_on_pause">1</property>
  <property name="mlt_service">avformat-novalidate</property>
  <property name="meta.media.nb_streams">2</property>
  <property name="meta.media.0.stream.type">video</property>
  <property name="meta.media.0.stream.frame_rate">30</property>
  <property name="meta.media.0.stream.sample_aspect_ratio">0</property>
  <property name="meta.media.0.codec.width">1280</property>
  <property name="meta.media.0.codec.height">720</property>
  <property name="meta.media.0.codec.rotate">0</property>
  <property name="meta.media.0.codec.frame_rate">30</property>
  <property name="meta.media.0.codec.pix_fmt">yuv420p</property>
  <property name="meta.media.0.codec.sample_aspect_ratio">0</property>
  <property name="meta.media.0.codec.colorspace">709</property>
  <property name="meta.media.0.codec.name">h264</property>
  <property name="meta.media.0.codec.long_name">H.264 / AVC / MPEG-4 AVC / MPEG-4 part 10</property>
  <property name="meta.media.0.codec.bit_rate">0</property>
  <property name="meta.attr.0.stream.DURATION.markup">00:17:12.166000000</property>
  <property name="meta.media.1.stream.type">audio</property>
  <property name="meta.media.1.codec.sample_fmt">fltp</property>
  <property name="meta.media.1.codec.sample_rate">44100</property>
  <property name="meta.media.1.codec.channels">2</property>
  <property name="meta.media.1.codec.name">aac</property>
  <property name="meta.media.1.codec.long_name">AAC (Advanced Audio Coding)</property>
  <property name="meta.media.1.codec.bit_rate">0</property>
  <property name="meta.attr.1.stream.title.markup">simple_aac_recording</property>
  <property name="meta.attr.1.stream.DURATION.markup">00:17:11.988000000</property>
  <property name="meta.attr.ENCODER.markup">Lavf58.29.100</property>
  <property name="seekable">1</property>
  <property name="meta.media.sample_aspect_num">1</property>
  <property name="meta.media.sample_aspect_den">1</property>
  <property name="aspect_ratio">1</property>
  <property name="kdenlive:folderid">-1</property>
  <property name="meta.media.frame_rate_num">30</property>
  <property name="meta.media.frame_rate_den">1</property>
  <property name="meta.media.colorspace">709</property>
  <property name="meta.media.color_trc">2</property>
  <property name="meta.media.width">1280</property>
  <property name="meta.media.height">720</property>
  <property name="meta.media.top_field_first">0</property>
  <property name="meta.media.progressive">1</property>
  <property name="kdenlive:file_size">59628643</property>
  <property name="kdenlive:file_hash">f78bd9d99d0521953392d033e7ccda43</property>
  <property name="kdenlive:id">2</property>
  <property name="meta.media.color_range">mpeg</property>
 </producer>
 <producer id="2" in="00:00:00.000" out="00:21:14.533">
  <property name="length">38237</property>
  <property name="eof">pause</property>
  <property name="resource">2020-10-20 17-14-09.mkv</property>
  <property name="audio_index">1</property>
  <property name="video_index">0</property>
  <property name="mute_on_pause">1</property>
  <property name="mlt_service">avformat-novalidate</property>
  <property name="meta.media.nb_streams">2</property>
  <property name="meta.media.0.stream.type">video</property>
  <property name="meta.media.0.stream.frame_rate">30</property>
  <property name="meta.media.0.stream.sample_aspect_ratio">0</property>
  <property name="meta.media.0.codec.width">1280</property>
  <property name="meta.media.0.codec.height">720</property>
  <property name="meta.media.0.codec.rotate">0</property>
  <property name="meta.media.0.codec.frame_rate">30</property>
  <property name="meta.media.0.codec.pix_fmt">yuv420p</property>
  <property name="meta.media.0.codec.sample_aspect_ratio">0</property>
  <property name="meta.media.0.codec.colorspace">709</property>
  <property name="meta.media.0.codec.name">h264</property>
  <property name="meta.media.0.codec.long_name">H.264 / AVC / MPEG-4 AVC / MPEG-4 part 10</property>
  <property name="meta.media.0.codec.bit_rate">0</property>
  <property name="meta.attr.0.stream.DURATION.markup">00:21:14.566000000</property>
  <property name="meta.media.1.stream.type">audio</property>
  <property name="meta.media.1.codec.sample_fmt">fltp</property>
  <property name="meta.media.1.codec.sample_rate">44100</property>
  <property name="meta.media.1.codec.channels">2</property>
  <property name="meta.media.1.codec.name">aac</property>
  <property name="meta.media.1.codec.long_name">AAC (Advanced Audio Coding)</property>
  <property name="meta.media.1.codec.bit_rate">0</property>
  <property name="meta.attr.1.stream.title.markup">simple_aac_recording</property>
  <property name="meta.attr.1.stream.DURATION.markup">00:21:14.381000000</property>
  <property name="meta.attr.ENCODER.markup">Lavf58.29.100</property>
  <property name="seekable">1</property>
  <property name="meta.media.sample_aspect_num">1</property>
  <property name="meta.media.sample_aspect_den">1</property>
  <property name="aspect_ratio">1</property>
  <property name="kdenlive:folderid">-1</property>
  <property name="meta.media.frame_rate_num">30</property>
  <property name="meta.media.frame_rate_den">1</property>
  <property name="meta.media.colorspace">709</property>
  <property name="meta.media.color_trc">2</property>
  <property name="meta.media.width">1280</property>
  <property name="meta.media.height">720</property>
  <property name="meta.media.top_field_first">0</property>
  <property name="meta.media.progressive">1</property>
  <property name="kdenlive:file_size">66485739</property>
  <property name="kdenlive:file_hash">cae4da3a0dda7814ef88e0ef769f75f6</property>
  <property name="kdenlive:id">3</property>
  <property name="meta.media.color_range">mpeg</property>
 </producer>
 <producer title="Anonymous Submission" id="3" in="00:00:00.000" out="00:24:40.500">
  <property name="length">44416</property>
  <property name="eof">pause</property>
  <property name="resource">2020-10-21 16-44-56.mkv</property>
  <property name="audio_index">1</property>
  <property name="video_index">0</property>
  <property name="mute_on_pause">1</property>
  <property name="mlt_service">avformat-novalidate</property>
  <property name="meta.media.nb_streams">2</property>
  <property name="meta.media.0.stream.type">video</property>
  <property name="meta.media.0.stream.frame_rate">30</property>
  <property name="meta.media.0.stream.sample_aspect_ratio">0</property>
  <property name="meta.media.0.codec.width">1280</property>
  <property name="meta.media.0.codec.height">720</property>
  <property name="meta.media.0.codec.rotate">0</property>
  <property name="meta.media.0.codec.frame_rate">30</property>
  <property name="meta.media.0.codec.pix_fmt">yuv420p</property>
  <property name="meta.media.0.codec.sample_aspect_ratio">0</property>
  <property name="meta.media.0.codec.colorspace">709</property>
  <property name="meta.media.0.codec.name">h264</property>
  <property name="meta.media.0.codec.long_name">H.264 / AVC / MPEG-4 AVC / MPEG-4 part 10</property>
  <property name="meta.media.0.codec.bit_rate">0</property>
  <property name="meta.attr.0.stream.DURATION.markup">00:24:40.533000000</property>
  <property name="meta.media.1.stream.type">audio</property>
  <property name="meta.media.1.codec.sample_fmt">fltp</property>
  <property name="meta.media.1.codec.sample_rate">44100</property>
  <property name="meta.media.1.codec.channels">2</property>
  <property name="meta.media.1.codec.name">aac</property>
  <property name="meta.media.1.codec.long_name">AAC (Advanced Audio Coding)</property>
  <property name="meta.media.1.codec.bit_rate">0</property>
  <property name="meta.attr.1.stream.title.markup">simple_aac_recording</property>
  <property name="meta.attr.1.stream.DURATION.markup">00:24:40.458000000</property>
  <property name="meta.attr.ENCODER.markup">Lavf58.29.100</property>
  <property name="seekable">1</property>
  <property name="meta.media.sample_aspect_num">1</property>
  <property name="meta.media.sample_aspect_den">1</property>
  <property name="aspect_ratio">1</property>
  <property name="kdenlive:folderid">-1</property>
  <property name="meta.media.frame_rate_num">30</property>
  <property name="meta.media.frame_rate_den">1</property>
  <property name="meta.media.colorspace">709</property>
  <property name="meta.media.color_trc">2</property>
  <property name="meta.media.width">1280</property>
  <property name="meta.media.height">720</property>
  <property name="meta.media.top_field_first">0</property>
  <property name="meta.media.progressive">1</property>
  <property name="kdenlive:file_size">55118377</property>
  <property name="kdenlive:file_hash">f2182e66d3381557a43575618d5bb78c</property>
  <property name="global_feed">1</property>
  <property name="kdenlive:id">4</property>
  <property name="meta.media.color_range">mpeg</property>
 </producer>
 <producer id="4" in="00:00:00.000" out="00:05:00.267">
  <property name="length">9009</property>
  <property name="eof">pause</property>
  <property name="resource">GHAL1236.MP4</property>
  <property name="audio_index">1</property>
  <property name="video_index">0</property>
  <property name="mute_on_pause">1</property>
  <property name="mlt_service">avformat-novalidate</property>
  <property name="meta.media.nb_streams">5</property>
  <property name="meta.media.0.stream.type">video</property>
  <property name="meta.media.0.stream.frame_rate">59.9401</property>
  <property name="meta.media.0.stream.sample_aspect_ratio">0</property>
  <property name="meta.media.0.codec.width">1920</property>
  <property name="meta.media.0.codec.height">1080</property>
  <property name="meta.media.0.codec.rotate">0</property>
  <property name="meta.media.0.codec.frame_rate">59.9401</property>
  <property name="meta.media.0.codec.pix_fmt">yuvj420p</property>
  <property name="meta.media.0.codec.sample_aspect_ratio">1</property>
  <property name="meta.media.0.codec.colorspace">709</property>
  <property name="meta.media.0.codec.color_trc">1</property>
  <property name="meta.media.0.codec.name">h264</property>
  <property name="meta.media.0.codec.long_name">H.264 / AVC / MPEG-4 AVC / MPEG-4 part 10</property>
  <property name="meta.media.0.codec.bit_rate">30002206</property>
  <property name="meta.attr.0.stream.creation_time.markup">2016-03-07T00:46:48.000000Z</property>
  <property name="meta.attr.0.stream.language.markup">eng</property>
  <property name="meta.attr.0.stream.handler_name.markup">GoPro AVC  </property>
  <property name="meta.attr.0.stream.encoder.markup">GoPro AVC encoder</property>
  <property name="meta.attr.0.stream.timecode.markup">00:46:46:09</property>
  <property name="meta.media.1.stream.type">audio</property>
  <property name="meta.media.1.codec.sample_fmt">fltp</property>
  <property name="meta.media.1.codec.sample_rate">48000</property>
  <property name="meta.media.1.codec.channels">2</property>
  <property name="meta.media.1.codec.name">aac</property>
  <property name="meta.media.1.codec.long_name">AAC (Advanced Audio Coding)</property>
  <property name="meta.media.1.codec.bit_rate">189336</property>
  <property name="meta.attr.1.stream.creation_time.markup">2016-03-07T00:46:48.000000Z</property>
  <property name="meta.attr.1.stream.language.markup">eng</property>
  <property name="meta.attr.1.stream.handler_name.markup">GoPro AAC  </property>
  <property name="meta.attr.1.stream.timecode.markup">00:46:46:09</property>
  <property name="meta.attr.major_brand.markup">mp41</property>
  <property name="meta.attr.minor_version.markup">538120216</property>
  <property name="meta.attr.compatible_brands.markup">mp41</property>
  <property name="meta.attr.creation_time.markup">2016-03-07T00:46:48.000000Z</property>
  <property name="meta.attr.location.markup">+22.6280+120.2678/</property>
  <property name="meta.attr.location-eng.markup">+22.6280+120.2678/</property>
  <property name="meta.attr.firmware.markup">HD8.01.01.00.00</property>
  <property name="seekable">1</property>
  <property name="meta.media.sample_aspect_num">1</property>
  <property name="meta.media.sample_aspect_den">1</property>
  <property name="aspect_ratio">1</property>
  <property name="kdenlive:folderid">-1</property>
  <property name="meta.media.frame_rate_num">60000</property>
  <property name="meta.media.frame_rate_den">1001</property>
  <property name="meta.media.colorspace">709</property>
  <property name="meta.media.color_trc">1</property>
  <property name="meta.media.width">1920</property>
  <property name="meta.media.height">1080</property>
  <property name="meta.media.top_field_first">0</property>
  <property name="meta.media.progressive">1</property>
  <property name="kdenlive:file_size">1135984829</property>
  <property name="kdenlive:file_hash">2ce7759de3fa3076a622ae7147776e67</property>
  <property name="kdenlive:id">5</property>
  <property name="meta.media.color_range">full</property>
 </producer>
 <producer id="5" in="00:00:00.000" out="00:05:00.267">
  <property name="length">9009</property>
  <property name="eof">pause</property>
  <property name="resource">GHAL1237.MP4</property>
  <property name="audio_index">1</property>
  <property name="video_index">0</property>
  <property name="mute_on_pause">1</property>
  <property name="mlt_service">avformat-novalidate</property>
  <property name="meta.media.nb_streams">5</property>
  <property name="meta.media.0.stream.type">video</property>
  <property name="meta.media.0.stream.frame_rate">59.9401</property>
  <property name="meta.media.0.stream.sample_aspect_ratio">0</property>
  <property name="meta.media.0.codec.width">1920</property>
  <property name="meta.media.0.codec.height">1080</property>
  <property name="meta.media.0.codec.rotate">0</property>
  <property name="meta.media.0.codec.frame_rate">59.9401</property>
  <property name="meta.media.0.codec.pix_fmt">yuvj420p</property>
  <property name="meta.media.0.codec.sample_aspect_ratio">1</property>
  <property name="meta.media.0.codec.colorspace">709</property>
  <property name="meta.media.0.codec.color_trc">1</property>
  <property name="meta.media.0.codec.name">h264</property>
  <property name="meta.media.0.codec.long_name">H.264 / AVC / MPEG-4 AVC / MPEG-4 part 10</property>
  <property name="meta.media.0.codec.bit_rate">29998638</property>
  <property name="meta.attr.0.stream.creation_time.markup">2016-03-07T00:51:50.000000Z</property>
  <property name="meta.attr.0.stream.language.markup">eng</property>
  <property name="meta.attr.0.stream.handler_name.markup">GoPro AVC  </property>
  <property name="meta.attr.0.stream.encoder.markup">GoPro AVC encoder</property>
  <property name="meta.attr.0.stream.timecode.markup">00:51:46:09</property>
  <property name="meta.media.1.stream.type">audio</property>
  <property name="meta.media.1.codec.sample_fmt">fltp</property>
  <property name="meta.media.1.codec.sample_rate">48000</property>
  <property name="meta.media.1.codec.channels">2</property>
  <property name="meta.media.1.codec.name">aac</property>
  <property name="meta.media.1.codec.long_name">AAC (Advanced Audio Coding)</property>
  <property name="meta.media.1.codec.bit_rate">189335</property>
  <property name="meta.attr.1.stream.creation_time.markup">2016-03-07T00:51:50.000000Z</property>
  <property name="meta.attr.1.stream.language.markup">eng</property>
  <property name="meta.attr.1.stream.handler_name.markup">GoPro AAC  </property>
  <property name="meta.attr.1.stream.timecode.markup">00:51:46:09</property>
  <property name="meta.attr.major_brand.markup">mp41</property>
  <property name="meta.attr.minor_version.markup">538120216</property>
  <property name="meta.attr.compatible_brands.markup">mp41</property>
  <property name="meta.attr.creation_time.markup">2016-03-07T00:51:50.000000Z</property>
  <property name="meta.attr.location.markup">+22.6281+120.2678/</property>
  <property name="meta.attr.location-eng.markup">+22.6281+120.2678/</property>
  <property name="meta.attr.firmware.markup">HD8.01.01.00.00</property>
  <property name="seekable">1</property>
  <property name="meta.media.sample_aspect_num">1</property>
  <property name="meta.media.sample_aspect_den">1</property>
  <property name="aspect_ratio">1</property>
  <property name="kdenlive:folderid">-1</property>
  <property name="meta.media.frame_rate_num">60000</property>
  <property name="meta.media.frame_rate_den">1001</property>
  <property name="meta.media.colorspace">709</property>
  <property name="meta.media.color_trc">1</property>
  <property name="meta.media.width">1920</property>
  <property name="meta.media.height">1080</property>
  <property name="meta.media.top_field_first">0</property>
  <property name="meta.media.progressive">1</property>
  <property name="kdenlive:file_size">1135855929</property>
  <property name="kdenlive:file_hash">2cd7dc0bbfad51c7f02468d6cf84167d</property>
  <property name="kdenlive:id">6</property>
  <property name="meta.media.color_range">full</property>
 </producer>
 <producer title="Anonymous Submission" id="6" in="00:00:00.000" out="00:05:00.267">
  <property name="length">9009</property>
  <property name="eof">pause</property>
  <property name="resource">GHAL1238.MP4</property>
  <property name="audio_index">1</property>
  <property name="video_index">0</property>
  <property name="mute_on_pause">1</property>
  <property name="mlt_service">avformat-novalidate</property>
  <property name="meta.media.nb_streams">5</property>
  <property name="meta.media.0.stream.type">video</property>
  <property name="meta.media.0.stream.frame_rate">59.9401</property>
  <property name="meta.media.0.stream.sample_aspect_ratio">0</property>
  <property name="meta.media.0.codec.width">1920</property>
  <property name="meta.media.0.codec.height">1080</property>
  <property name="meta.media.0.codec.rotate">0</property>
  <property name="meta.media.0.codec.frame_rate">59.9401</property>
  <property name="meta.media.0.codec.pix_fmt">yuvj420p</property>
  <property name="meta.media.0.codec.sample_aspect_ratio">1</property>
  <property name="meta.media.0.codec.colorspace">709</property>
  <property name="meta.media.0.codec.color_trc">1</property>
  <property name="meta.media.0.codec.name">h264</property>
  <property name="meta.media.0.codec.long_name">H.264 / AVC / MPEG-4 AVC / MPEG-4 part 10</property>
  <property name="meta.media.0.codec.bit_rate">29999186</property>
  <property name="meta.attr.0.stream.creation_time.markup">2016-03-07T00:56:50.000000Z</property>
  <property name="meta.attr.0.stream.language.markup">eng</property>
  <property name="meta.attr.0.stream.handler_name.markup">GoPro AVC  </property>
  <property name="meta.attr.0.stream.encoder.markup">GoPro AVC encoder</property>
  <property name="meta.attr.0.stream.timecode.markup">00:56:46:09</property>
  <property name="meta.media.1.stream.type">audio</property>
  <property name="meta.media.1.codec.sample_fmt">fltp</property>
  <property name="meta.media.1.codec.sample_rate">48000</property>
  <property name="meta.media.1.codec.channels">2</property>
  <property name="meta.media.1.codec.name">aac</property>
  <property name="meta.media.1.codec.long_name">AAC (Advanced Audio Coding)</property>
  <property name="meta.media.1.codec.bit_rate">189316</property>
  <property name="meta.attr.1.stream.creation_time.markup">2016-03-07T00:56:50.000000Z</property>
  <property name="meta.attr.1.stream.language.markup">eng</property>
  <property name="meta.attr.1.stream.handler_name.markup">GoPro AAC  </property>
  <property name="meta.attr.1.stream.timecode.markup">00:56:46:09</property>
  <property name="meta.attr.major_brand.markup">mp41</property>
  <property name="meta.attr.minor_version.markup">538120216</property>
  <property name="meta.attr.compatible_brands.markup">mp41</property>
  <property name="meta.attr.creation_time.markup">2016-03-07T00:56:50.000000Z</property>
  <property name="meta.attr.location.markup">+22.6281+120.2678/</property>
  <property name="meta.attr.location-eng.markup">+22.6281+120.2678/</property>
  <property name="meta.attr.firmware.markup">HD8.01.01.00.00</property>
  <property name="seekable">1</property>
  <property name="meta.media.sample_aspect_num">1</property>
  <property name="meta.media.sample_aspect_den">1</property>
  <property name="aspect_ratio">1</property>
  <property name="kdenlive:folderid">-1</property>
  <property name="meta.media.frame_rate_num">60000</property>
  <property name="meta.media.frame_rate_den">1001</property>
  <property name="meta.media.colorspace">709</property>
  <property name="meta.media.color_trc">1</property>
  <property name="meta.media.width">1920</property>
  <property name="meta.media.height">1080</property>
  <property name="meta.media.top_field_first">0</property>
  <property name="meta.media.progressive">1</property>
  <property name="kdenlive:file_size">1135878924</property>
  <property name="kdenlive:file_hash">971686534ab988b1808933e13ed63c59</property>
  <property name="global_feed">1</property>
  <property name="kdenlive:id">7</property>
  <property name="meta.media.color_range">full</property>
 </producer>
 <producer title="Anonymous Submission" id="7" in="00:00:00.000" out="00:05:00.267">
  <property name="length">9009</property>
  <property name="eof">pause</property>
  <property name="resource">GHAL1239.MP4</property>
  <property name="audio_index">1</property>
  <property name="video_index">0</property>
  <property name="mute_on_pause">1</property>
  <property name="mlt_service">avformat-novalidate</property>
  <property name="meta.media.nb_streams">5</property>
  <property name="meta.media.0.stream.type">video</property>
  <property name="meta.media.0.stream.frame_rate">59.9401</property>
  <property name="meta.media.0.stream.sample_aspect_ratio">0</property>
  <property name="meta.media.0.codec.width">1920</property>
  <property name="meta.media.0.codec.height">1080</property>
  <property name="meta.media.0.codec.rotate">0</property>
  <property name="meta.media.0.codec.frame_rate">59.9401</property>
  <property name="meta.media.0.codec.pix_fmt">yuvj420p</property>
  <property name="meta.media.0.codec.sample_aspect_ratio">1</property>
  <property name="meta.media.0.codec.colorspace">709</property>
  <property name="meta.media.0.codec.color_trc">1</property>
  <property name="meta.media.0.codec.name">h264</property>
  <property name="meta.media.0.codec.long_name">H.264 / AVC / MPEG-4 AVC / MPEG-4 part 10</property>
  <property name="meta.media.0.codec.bit_rate">30000081</property>
  <property name="meta.attr.0.stream.creation_time.markup">2016-03-07T01:01:50.000000Z</property>
  <property name="meta.attr.0.stream.language.markup">eng</property>
  <property name="meta.attr.0.stream.handler_name.markup">GoPro AVC  </property>
  <property name="meta.attr.0.stream.encoder.markup">GoPro AVC encoder</property>
  <property name="meta.attr.0.stream.timecode.markup">01:01:46:09</property>
  <property name="meta.media.1.stream.type">audio</property>
  <property name="meta.media.1.codec.sample_fmt">fltp</property>
  <property name="meta.media.1.codec.sample_rate">48000</property>
  <property name="meta.media.1.codec.channels">2</property>
  <property name="meta.media.1.codec.name">aac</property>
  <property name="meta.media.1.codec.long_name">AAC (Advanced Audio Coding)</property>
  <property name="meta.media.1.codec.bit_rate">189369</property>
  <property name="meta.attr.1.stream.creation_time.markup">2016-03-07T01:01:50.000000Z</property>
  <property name="meta.attr.1.stream.language.markup">eng</property>
  <property name="meta.attr.1.stream.handler_name.markup">GoPro AAC  </property>
  <property name="meta.attr.1.stream.timecode.markup">01:01:46:09</property>
  <property name="meta.attr.major_brand.markup">mp41</property>
  <property name="meta.attr.minor_version.markup">538120216</property>
  <property name="meta.attr.compatible_brands.markup">mp41</property>
  <property name="meta.attr.creation_time.markup">2016-03-07T01:01:50.000000Z</property>
  <property name="meta.attr.location.markup">+22.6281+120.2678/</property>
  <property name="meta.attr.location-eng.markup">+22.6281+120.2678/</property>
  <property name="meta.attr.firmware.markup">HD8.01.01.00.00</property>
  <property name="seekable">1</property>
  <property name="meta.media.sample_aspect_num">1</property>
  <property name="meta.media.sample_aspect_den">1</property>
  <property name="aspect_ratio">1</property>
  <property name="kdenlive:folderid">-1</property>
  <property name="meta.media.frame_rate_num">60000</property>
  <property name="meta.media.frame_rate_den">1001</property>
  <property name="meta.media.colorspace">709</property>
  <property name="meta.media.color_trc">1</property>
  <property name="meta.media.width">1920</property>
  <property name="meta.media.height">1080</property>
  <property name="meta.media.top_field_first">0</property>
  <property name="meta.media.progressive">1</property>
  <property name="kdenlive:file_size">1135922341</property>
  <property name="kdenlive:file_hash">38b49679d0644a8d2e227d0c3107046a</property>
  <property name="global_feed">1</property>
  <property name="kdenlive:id">8</property>
  <property name="meta.media.color_range">full</property>
 </producer>
 <producer title="Anonymous Submission" id="8" in="00:00:00.000" out="00:00:38.333">
  <property name="length">1151</property>
  <property name="eof">pause</property>
  <property name="resource">GHAL1240.MP4</property>
  <property name="audio_index">1</property>
  <property name="video_index">0</property>
  <property name="mute_on_pause">1</property>
  <property name="mlt_service">avformat-novalidate</property>
  <property name="meta.media.nb_streams">5</property>
  <property name="meta.media.0.stream.type">video</property>
  <property name="meta.media.0.stream.frame_rate">59.9401</property>
  <property name="meta.media.0.stream.sample_aspect_ratio">0</property>
  <property name="meta.media.0.codec.width">1920</property>
  <property name="meta.media.0.codec.height">1080</property>
  <property name="meta.media.0.codec.rotate">0</property>
  <property name="meta.media.0.codec.frame_rate">59.9401</property>
  <property name="meta.media.0.codec.pix_fmt">yuvj420p</property>
  <property name="meta.media.0.codec.sample_aspect_ratio">1</property>
  <property name="meta.media.0.codec.colorspace">709</property>
  <property name="meta.media.0.codec.color_trc">1</property>
  <property name="meta.media.0.codec.name">h264</property>
  <property name="meta.media.0.codec.long_name">H.264 / AVC / MPEG-4 AVC / MPEG-4 part 10</property>
  <property name="meta.media.0.codec.bit_rate">30017329</property>
  <property name="meta.attr.0.stream.creation_time.markup">2016-03-07T01:06:51.000000Z</property>
  <property name="meta.attr.0.stream.language.markup">eng</property>
  <property name="meta.attr.0.stream.handler_name.markup">GoPro AVC  </property>
  <property name="meta.attr.0.stream.encoder.markup">GoPro AVC encoder</property>
  <property name="meta.attr.0.stream.timecode.markup">01:06:46:09</property>
  <property name="meta.media.1.stream.type">audio</property>
  <property name="meta.media.1.codec.sample_fmt">fltp</property>
  <property name="meta.media.1.codec.sample_rate">48000</property>
  <property name="meta.media.1.codec.channels">2</property>
  <property name="meta.media.1.codec.name">aac</property>
  <property name="meta.media.1.codec.long_name">AAC (Advanced Audio Coding)</property>
  <property name="meta.media.1.codec.bit_rate">189356</property>
  <property name="meta.attr.1.stream.creation_time.markup">2016-03-07T01:06:51.000000Z</property>
  <property name="meta.attr.1.stream.language.markup">eng</property>
  <property name="meta.attr.1.stream.handler_name.markup">GoPro AAC  </property>
  <property name="meta.attr.1.stream.timecode.markup">01:06:46:09</property>
  <property name="meta.attr.major_brand.markup">mp41</property>
  <property name="meta.attr.minor_version.markup">538120216</property>
  <property name="meta.attr.compatible_brands.markup">mp41</property>
  <property name="meta.attr.creation_time.markup">2016-03-07T01:06:51.000000Z</property>
  <property name="meta.attr.location.markup">+22.6281+120.2678/</property>
  <property name="meta.attr.location-eng.markup">+22.6281+120.2678/</property>
  <property name="meta.attr.firmware.markup">HD8.01.01.00.00</property>
  <property name="seekable">1</property>
  <property name="meta.media.sample_aspect_num">1</property>
  <property name="meta.media.sample_aspect_den">1</property>
  <property name="aspect_ratio">1</property>
  <property name="kdenlive:folderid">-1</property>
  <property name="meta.media.frame_rate_num">60000</property>
  <property name="meta.media.frame_rate_den">1001</property>
  <property name="meta.media.colorspace">709</property>
  <property name="meta.media.color_trc">1</property>
  <property name="meta.media.width">1920</property>
  <property name="meta.media.height">1080</property>
  <property name="meta.media.top_field_first">0</property>
  <property name="meta.media.progressive">1</property>
  <property name="kdenlive:file_size">145191167</property>
  <property name="kdenlive:file_hash">b95846fc87fc4c174ae33104884dbbac</property>
  <property name="global_feed">1</property>
  <property name="kdenlive:id">9</property>
  <property name="meta.media.color_range">full</property>
 </producer>
 <producer title="Anonymous Submission" id="9" in="00:00:00.000" out="00:15:14.733">
  <property name="length">27443</property>
  <property name="eof">pause</property>
  <property name="resource">record-20201021-164952.mp4</property>
  <property name="audio_index">-1</property>
  <property name="video_index">0</property>
  <property name="mute_on_pause">1</property>
  <property name="mlt_service">avformat-novalidate</property>
  <property name="meta.media.nb_streams">1</property>
  <property name="meta.media.0.stream.type">video</property>
  <property name="meta.media.0.stream.frame_rate">49.1846</property>
  <property name="meta.media.0.stream.sample_aspect_ratio">1</property>
  <property name="meta.media.0.codec.width">720</property>
  <property name="meta.media.0.codec.height">1280</property>
  <property name="meta.media.0.codec.rotate">0</property>
  <property name="meta.media.0.codec.frame_rate">90000</property>
  <property name="meta.media.0.codec.pix_fmt">yuv420p</property>
  <property name="meta.media.0.codec.sample_aspect_ratio">0</property>
  <property name="meta.media.0.codec.colorspace">601</property>
  <property name="meta.media.0.codec.color_trc">6</property>
  <property name="meta.media.0.codec.name">h264</property>
  <property name="meta.media.0.codec.long_name">H.264 / AVC / MPEG-4 AVC / MPEG-4 part 10</property>
  <property name="meta.media.0.codec.bit_rate">5994807</property>
  <property name="meta.attr.0.stream.creation_time.markup">2020-10-21T09:05:07.000000Z</property>
  <property name="meta.attr.0.stream.language.markup">eng</property>
  <property name="meta.attr.0.stream.handler_name.markup">VideoHandle</property>
  <property name="meta.attr.major_brand.markup">mp42</property>
  <property name="meta.attr.minor_version.markup">0</property>
  <property name="meta.attr.compatible_brands.markup">isommp42</property>
  <property name="meta.attr.creation_time.markup">2020-10-21T09:05:07.000000Z</property>
  <property name="meta.attr.com.android.version.markup">8.0.0</property>
  <property name="seekable">1</property>
  <property name="meta.media.sample_aspect_num">1</property>
  <property name="meta.media.sample_aspect_den">1</property>
  <property name="aspect_ratio">1</property>
  <property name="kdenlive:folderid">-1</property>
  <property name="meta.media.frame_rate_num">541</property>
  <property name="meta.media.frame_rate_den">11</property>
  <property name="meta.media.colorspace">601</property>
  <property name="meta.media.color_trc">6</property>
  <property name="meta.media.width">720</property>
  <property name="meta.media.height">1280</property>
  <property name="meta.media.variable_frame_rate">1</property>
  <property name="meta.media.top_field_first">0</property>
  <property name="meta.media.progressive">1</property>
  <property name="kdenlive:file_size">686022290</property>
  <property name="kdenlive:file_hash">bd37a40b203be5a4a9b2e15035c76ad5</property>
  <property name="global_feed">1</property>
  <property name="kdenlive:zone_in">1445</property>
  <property name="kdenlive:zone_out">27442</property>
  <property name="kdenlive:id">10</property>
  <property name="meta.media.color_range">mpeg</property>
 </producer>
 <producer title="Anonymous Submission" id="11" in="00:00:00.000" out="00:00:10.367">
  <property name="length">312</property>
  <property name="eof">pause</property>
  <property name="resource"/>
  <property name="progressive">1</property>
  <property name="aspect_ratio">1</property>
  <property name="seekable">1</property>
  <property name="mlt_service">kdenlivetitle</property>
  <property name="kdenlive:clipname">Title clip</property>
  <property name="kdenlive:folderid">-1</property>
  <property name="xmldata">&lt;kdenlivetitle width="1920" duration="150" out="150" height="1080" LC_NUMERIC="en_US.UTF-8">
 &lt;item z-index="3" type="QGraphicsTextItem">
  &lt;position x="398" y="754">
   &lt;transform>1,0,0,0,1,0,0,0,1&lt;/transform>
  &lt;/position>
  &lt;content font-italic="0" letter-spacing="0" font-weight="50" box-height="230" font-outline-color="0,0,0,255" shadow="1;#64000000;3;3;3" font="Ubuntu" font-underline="0" font-outline="0" font-pixel-size="100" line-spacing="0" box-width="1120.48" font-color="252,233,79,255" alignment="4">Spectrum of cellphone's 
microphone audio signal&lt;/content>
 &lt;/item>
 &lt;startviewport rect="0,0,1920,1080"/>
 &lt;endviewport rect="0,0,1920,1080"/>
 &lt;background color="0,0,0,0"/>
&lt;/kdenlivetitle>
</property>
  <property name="kdenlive:duration">150</property>
  <property name="force_reload">0</property>
  <property name="meta.media.width">1920</property>
  <property name="meta.media.height">1080</property>
  <property name="kdenlive:file_hash">8479ecffba433b019ae2a074bc58d093</property>
  <property name="global_feed">1</property>
  <property name="kdenlive:id">11</property>
 </producer>
 <producer title="Anonymous Submission" id="12" in="00:00:00.000" out="00:00:13.333">
  <property name="length">401</property>
  <property name="eof">pause</property>
  <property name="resource"/>
  <property name="progressive">1</property>
  <property name="aspect_ratio">1</property>
  <property name="seekable">1</property>
  <property name="mlt_service">kdenlivetitle</property>
  <property name="kdenlive:clipname">Title clip</property>
  <property name="kdenlive:folderid">-1</property>
  <property name="xmldata">&lt;kdenlivetitle width="1920" duration="150" out="150" height="1080" LC_NUMERIC="en_US.UTF-8">
 &lt;item z-index="1" type="QGraphicsTextItem">
  &lt;position x="913" y="438">
   &lt;transform>1,0,0,0,1,0,0,0,1&lt;/transform>
  &lt;/position>
  &lt;content font-italic="0" letter-spacing="0" font-weight="50" box-height="460" shadow="1;#64000000;3;9;6" font="Ubuntu" font-underline="0" font-pixel-size="100" line-spacing="0" box-width="808.547" font-color="138,226,52,255" alignment="1">Please Pay 
attention to
this spike
(Ultrasonic range)&lt;/content>
 &lt;/item>
 &lt;item z-index="0" type="QGraphicsRectItem">
  &lt;position x="1183" y="24">
   &lt;transform zoom="100">1,0,0,0,1,0,0,0,1&lt;/transform>
  &lt;/position>
  &lt;content rect="0,0,312,368" penwidth="34" brushcolor="191,64,64,0" pencolor="138,226,52,255"/>
 &lt;/item>
 &lt;startviewport rect="0,0,1920,1080"/>
 &lt;endviewport rect="0,0,1920,1080"/>
 &lt;background color="0,0,0,0"/>
&lt;/kdenlivetitle>
</property>
  <property name="kdenlive:duration">150</property>
  <property name="force_reload">0</property>
  <property name="meta.media.width">1920</property>
  <property name="meta.media.height">1080</property>
  <property name="kdenlive:file_hash">629df544e19d38c9b57c8ce921ae8712</property>
  <property name="global_feed">1</property>
  <property name="kdenlive:id">12</property>
 </producer>
 <producer title="Anonymous Submission" id="13" in="00:00:00.000" out="00:00:07.733">
  <property name="length">233</property>
  <property name="eof">pause</property>
  <property name="resource"/>
  <property name="progressive">1</property>
  <property name="aspect_ratio">1</property>
  <property name="seekable">1</property>
  <property name="mlt_service">kdenlivetitle</property>
  <property name="kdenlive:clipname">Title clip</property>
  <property name="kdenlive:folderid">-1</property>
  <property name="xmldata">&lt;kdenlivetitle width="1920" duration="150" out="150" height="1080" LC_NUMERIC="en_US.UTF-8">
 &lt;item z-index="3" type="QGraphicsTextItem">
  &lt;position x="847" y="695">
   &lt;transform>1,0,0,0,1,0,0,0,1&lt;/transform>
  &lt;/position>
  &lt;content font-italic="0" letter-spacing="0" font-weight="50" box-height="115" shadow="1;#64000000;3;3;3" font="Ubuntu" font-underline="0" font-pixel-size="100" line-spacing="0" box-width="850.063" font-color="252,233,79,255" alignment="1">Experiment Target&lt;/content>
 &lt;/item>
 &lt;item z-index="2" type="QGraphicsTextItem">
  &lt;position x="24" y="706">
   &lt;transform>1,0,0,0,1,0,0,0,1&lt;/transform>
  &lt;/position>
  &lt;content font-italic="0" letter-spacing="0" font-weight="50" box-height="115" shadow="1;#64000000;3;3;3" font="Ubuntu" font-underline="0" font-pixel-size="100" line-spacing="0" box-width="709.281" font-color="252,233,79,255" alignment="1">Finished Device&lt;/content>
 &lt;/item>
 &lt;item z-index="1" type="QGraphicsRectItem">
  &lt;position x="1130" y="525">
   &lt;transform zoom="100">1,0,0,0,1,0,0,0,1&lt;/transform>
  &lt;/position>
  &lt;content rect="0,0,161,144.357" penwidth="34" brushcolor="191,64,64,0" pencolor="138,226,52,255"/>
 &lt;/item>
 &lt;item z-index="0" type="QGraphicsRectItem">
  &lt;position x="91" y="330">
   &lt;transform zoom="100">1,0,0,0,1,0,0,0,1&lt;/transform>
  &lt;/position>
  &lt;content rect="0,0,471,342" penwidth="34" brushcolor="191,64,64,0" pencolor="138,226,52,255"/>
 &lt;/item>
 &lt;startviewport rect="0,0,1920,1080"/>
 &lt;endviewport rect="0,0,1920,1080"/>
 &lt;background color="0,0,0,0"/>
&lt;/kdenlivetitle>
</property>
  <property name="kdenlive:duration">150</property>
  <property name="force_reload">0</property>
  <property name="meta.media.width">1920</property>
  <property name="meta.media.height">1080</property>
  <property name="kdenlive:file_hash">a8fe536a9f0c2cb962b7442ffa367c47</property>
  <property name="global_feed">1</property>
  <property name="kdenlive:id">13</property>
 </producer>
 <producer title="Anonymous Submission" id="14" in="00:00:00.000" out="00:00:16.133">
  <property name="length">485</property>
  <property name="eof">pause</property>
  <property name="resource">/run/media/maxhsu/9a44ce91-33b3-47ba-bb9e-5e4a84c33d6d/home/maxhsu/Documents/ss.mp4</property>
  <property name="audio_index">1</property>
  <property name="video_index">0</property>
  <property name="mute_on_pause">1</property>
  <property name="mlt_service">avformat-novalidate</property>
  <property name="meta.media.nb_streams">2</property>
  <property name="meta.media.0.stream.type">video</property>
  <property name="meta.media.0.stream.frame_rate">30</property>
  <property name="meta.media.0.stream.sample_aspect_ratio">1</property>
  <property name="meta.media.0.codec.width">1920</property>
  <property name="meta.media.0.codec.height">1080</property>
  <property name="meta.media.0.codec.rotate">0</property>
  <property name="meta.media.0.codec.frame_rate">30</property>
  <property name="meta.media.0.codec.pix_fmt">yuv420p</property>
  <property name="meta.media.0.codec.sample_aspect_ratio">1</property>
  <property name="meta.media.0.codec.colorspace">709</property>
  <property name="meta.media.0.codec.color_trc">1</property>
  <property name="meta.media.0.codec.name">h264</property>
  <property name="meta.media.0.codec.long_name">H.264 / AVC / MPEG-4 AVC / MPEG-4 part 10</property>
  <property name="meta.media.0.codec.bit_rate">3249170</property>
  <property name="meta.attr.0.stream.handler_name.markup">VideoHandler</property>
  <property name="meta.media.1.stream.type">audio</property>
  <property name="meta.media.1.codec.sample_fmt">fltp</property>
  <property name="meta.media.1.codec.sample_rate">48000</property>
  <property name="meta.media.1.codec.channels">2</property>
  <property name="meta.media.1.codec.name">aac</property>
  <property name="meta.media.1.codec.long_name">AAC (Advanced Audio Coding)</property>
  <property name="meta.media.1.codec.bit_rate">2276</property>
  <property name="meta.attr.1.stream.handler_name.markup">SoundHandler</property>
  <property name="meta.attr.major_brand.markup">isom</property>
  <property name="meta.attr.minor_version.markup">512</property>
  <property name="meta.attr.compatible_brands.markup">isomiso2avc1mp41</property>
  <property name="meta.attr.encoder.markup">Lavf57.83.100</property>
  <property name="seekable">1</property>
  <property name="meta.media.sample_aspect_num">1</property>
  <property name="meta.media.sample_aspect_den">1</property>
  <property name="aspect_ratio">1</property>
  <property name="meta.media.frame_rate_num">30</property>
  <property name="meta.media.frame_rate_den">1</property>
  <property name="meta.media.colorspace">709</property>
  <property name="meta.media.color_trc">1</property>
  <property name="meta.media.width">1920</property>
  <property name="meta.media.height">1080</property>
  <property name="meta.media.top_field_first">0</property>
  <property name="meta.media.progressive">1</property>
  <property name="kdenlive:file_size">6589806</property>
  <property name="kdenlive:file_hash">09d30b3dac040e64ab375e050b16670b</property>
  <property name="global_feed">1</property>
  <property name="kdenlive:id">14</property>
  <property name="meta.media.color_range">mpeg</property>
  <property name="kdenlive:folderid">-1</property>
 </producer>
 <producer title="Anonymous Submission" id="15" in="00:00:00.000" out="00:00:04.967">
  <property name="length">150</property>
  <property name="eof">pause</property>
  <property name="resource"/>
  <property name="progressive">1</property>
  <property name="aspect_ratio">1</property>
  <property name="seekable">1</property>
  <property name="mlt_service">kdenlivetitle</property>
  <property name="kdenlive:clipname">Title clip</property>
  <property name="kdenlive:folderid">-1</property>
  <property name="xmldata">&lt;kdenlivetitle width="1920" duration="150" out="150" height="1080" LC_NUMERIC="en_US.UTF-8">
 &lt;item z-index="0" type="QGraphicsTextItem">
  &lt;position x="233" y="819">
   &lt;transform>1,0,0,0,1,0,0,0,1&lt;/transform>
  &lt;/position>
  &lt;content font-italic="0" letter-spacing="0" font-weight="50" box-height="115" shadow="0;#64000000;3;3;3" font="Ubuntu" font-underline="0" font-pixel-size="100" box-width="1453.72" font-color="252,233,79,255" alignment="1">The Interface of Finished Device&lt;/content>
 &lt;/item>
 &lt;startviewport rect="0,0,1920,1080"/>
 &lt;endviewport rect="0,0,1920,1080"/>
 &lt;background color="0,0,0,0"/>
&lt;/kdenlivetitle>
</property>
  <property name="kdenlive:duration">150</property>
  <property name="force_reload">0</property>
  <property name="meta.media.width">1920</property>
  <property name="meta.media.height">1080</property>
  <property name="kdenlive:file_hash">b2a4e732110913c9b151aa088dc236b2</property>
  <property name="global_feed">1</property>
  <property name="kdenlive:id">15</property>
 </producer>
 <producer title="Anonymous Submission" id="16" in="00:00:00.000" out="00:00:04.967">
  <property name="length">150</property>
  <property name="eof">pause</property>
  <property name="resource"/>
  <property name="progressive">1</property>
  <property name="aspect_ratio">1</property>
  <property name="seekable">1</property>
  <property name="mlt_service">kdenlivetitle</property>
  <property name="kdenlive:clipname">Title clip</property>
  <property name="kdenlive:folderid">-1</property>
  <property name="xmldata">&lt;kdenlivetitle duration="150" LC_NUMERIC="C" width="1920" height="1080" out="149">
 &lt;item type="QGraphicsTextItem" z-index="1">
  &lt;position x="61" y="911">
   &lt;transform>1,0,0,0,1,0,0,0,1&lt;/transform>
  &lt;/position>
  &lt;content shadow="1;#64000000;3;3;3" font-underline="0" box-height="117" font="Ubuntu" letter-spacing="0" font-pixel-size="100" font-italic="0" alignment="1" font-weight="50" box-width="1792.94" font-color="252,233,79,255">Foreground image  		 IR Extraction&lt;/content>
 &lt;/item>
 &lt;item type="QGraphicsTextItem" z-index="0">
  &lt;position x="32" y="404">
   &lt;transform>1,0,0,0,1,0,0,0,1&lt;/transform>
  &lt;/position>
  &lt;content line-spacing="0" shadow="1;#64000000;3;3;3" font-underline="0" box-height="580" font="Ubuntu" letter-spacing="0" font-pixel-size="100" font-italic="0" alignment="1" font-weight="50" box-width="1848.8" font-color="252,233,79,255">IR camera view	     RGB camera view



&lt;/content>
 &lt;/item>
 &lt;startviewport rect="0,0,1920,1080"/>
 &lt;endviewport rect="0,0,1920,1080"/>
 &lt;background color="0,0,0,0"/>
&lt;/kdenlivetitle>
</property>
  <property name="kdenlive:duration">150</property>
  <property name="force_reload">0</property>
  <property name="meta.media.width">1920</property>
  <property name="meta.media.height">1080</property>
  <property name="kdenlive:file_hash">b39ec8497332ade1e545322674dad2ec</property>
  <property name="global_feed">1</property>
  <property name="kdenlive:id">16</property>
 </producer>
 <producer id="17" in="00:00:00.000" out="00:00:04.967">
  <property name="length">150</property>
  <property name="eof">pause</property>
  <property name="resource">video-f001762.png</property>
  <property name="ttl">25</property>
  <property name="aspect_ratio">1</property>
  <property name="progressive">1</property>
  <property name="seekable">1</property>
  <property name="loop">1</property>
  <property name="meta.media.width">1920</property>
  <property name="meta.media.height">1080</property>
  <property name="mlt_service">pixbuf</property>
  <property name="kdenlive:duration">150</property>
  <property name="kdenlive:file_size">897540</property>
  <property name="kdenlive:file_hash">d70a20dc4945175c80eea1e005a6f202</property>
  <property name="kdenlive:id">17</property>
  <property name="kdenlive:folderid">-1</property>
 </producer>
 <producer id="18" in="00:00:00.000" out="00:00:04.967">
  <property name="length">150</property>
  <property name="eof">pause</property>
  <property name="resource">/run/media/maxhsu/9a44ce91-33b3-47ba-bb9e-5e4a84c33d6d/home/maxhsu/Desktop/MK/11.png</property>
  <property name="ttl">25</property>
  <property name="aspect_ratio">1</property>
  <property name="progressive">1</property>
  <property name="seekable">1</property>
  <property name="loop">1</property>
  <property name="meta.media.width">1920</property>
  <property name="meta.media.height">1080</property>
  <property name="mlt_service">pixbuf</property>
  <property name="kdenlive:duration">150</property>
  <property name="kdenlive:file_size">8318604</property>
  <property name="kdenlive:file_hash">609d92cf19e2832b672c4ac59cf6c5ce</property>
  <property name="kdenlive:id">18</property>
  <property name="kdenlive:folderid">-1</property>
 </producer>
 <producer id="20" in="00:00:00.000" out="00:00:04.967">
  <property name="length">150</property>
  <property name="eof">pause</property>
  <property name="resource">/run/media/maxhsu/9a44ce91-33b3-47ba-bb9e-5e4a84c33d6d/home/maxhsu/Desktop/MK/12.png</property>
  <property name="ttl">25</property>
  <property name="aspect_ratio">1</property>
  <property name="progressive">1</property>
  <property name="seekable">1</property>
  <property name="loop">1</property>
  <property name="meta.media.width">1920</property>
  <property name="meta.media.height">1080</property>
  <property name="mlt_service">pixbuf</property>
  <property name="kdenlive:duration">150</property>
  <property name="kdenlive:file_size">8317119</property>
  <property name="kdenlive:file_hash">68bd2202febfd6ba305e6a5041e44df3</property>
  <property name="kdenlive:id">19</property>
  <property name="kdenlive:folderid">-1</property>
 </producer>
 <producer id="21" in="00:00:00.000" out="00:00:04.967">
  <property name="length">150</property>
  <property name="eof">pause</property>
  <property name="resource">/run/media/maxhsu/9a44ce91-33b3-47ba-bb9e-5e4a84c33d6d/home/maxhsu/Desktop/MK/13.png</property>
  <property name="ttl">25</property>
  <property name="aspect_ratio">1</property>
  <property name="progressive">1</property>
  <property name="seekable">1</property>
  <property name="loop">1</property>
  <property name="meta.media.width">1920</property>
  <property name="meta.media.height">1080</property>
  <property name="mlt_service">pixbuf</property>
  <property name="kdenlive:duration">150</property>
  <property name="kdenlive:file_size">8318100</property>
  <property name="kdenlive:file_hash">628ea5cab20636850d387b5f4ff33308</property>
  <property name="kdenlive:id">20</property>
  <property name="kdenlive:folderid">-1</property>
 </producer>
 <producer id="22" in="00:00:00.000" out="00:00:04.967">
  <property name="length">150</property>
  <property name="eof">pause</property>
  <property name="resource">/run/media/maxhsu/9a44ce91-33b3-47ba-bb9e-5e4a84c33d6d/home/maxhsu/Desktop/MK/video-f002001.png</property>
  <property name="ttl">25</property>
  <property name="aspect_ratio">1</property>
  <property name="progressive">1</property>
  <property name="seekable">1</property>
  <property name="loop">1</property>
  <property name="meta.media.width">1920</property>
  <property name="meta.media.height">1080</property>
  <property name="mlt_service">pixbuf</property>
  <property name="kdenlive:duration">150</property>
  <property name="kdenlive:file_size">442234</property>
  <property name="kdenlive:file_hash">fbea6e29bc5011d984076ecedfeadf2d</property>
  <property name="kdenlive:id">21</property>
  <property name="kdenlive:folderid">-1</property>
 </producer>
 <producer id="producer0" in="00:00:00.000" out="00:00:43.233">
  <property name="length">00:00:43.267</property>
  <property name="eof">pause</property>
  <property name="resource">/home/maxhsu/Desktop/aas.png</property>
  <property name="ttl">25</property>
  <property name="aspect_ratio">1</property>
  <property name="progressive">1</property>
  <property name="seekable">1</property>
  <property name="meta.media.width">1920</property>
  <property name="meta.media.height">1080</property>
  <property name="mlt_service">qimage</property>
  <property name="kdenlive:clipname"/>
  <property name="kdenlive:duration">00:00:05.000</property>
  <property name="kdenlive:folderid">-1</property>
  <property name="kdenlive:id">24</property>
  <property name="kdenlive:file_size">8309447</property>
  <property name="kdenlive:file_hash">57197690afdc30bd5196767e9da73d91</property>
  <property name="global_feed">1</property>
 </producer>
 <playlist id="main_bin">
  <property name="kdenlive:docproperties.activeTrack">19</property>
  <property name="kdenlive:docproperties.audioChannels">2</property>
  <property name="kdenlive:docproperties.audioTarget">-1</property>
  <property name="kdenlive:docproperties.audiotargettrack">4</property>
  <property name="kdenlive:docproperties.dirtypreviewchunks"/>
  <property name="kdenlive:docproperties.disablepreview">0</property>
  <property name="kdenlive:docproperties.documentid">1603383320054</property>
  <property name="kdenlive:docproperties.enableTimelineZone">0</property>
  <property name="kdenlive:docproperties.enableexternalproxy">0</property>
  <property name="kdenlive:docproperties.enableproxy">0</property>
  <property name="kdenlive:docproperties.externalproxyparams"/>
  <property name="kdenlive:docproperties.generateimageproxy">0</property>
  <property name="kdenlive:docproperties.generateproxy">0</property>
  <property name="kdenlive:docproperties.groups">[
    {
        "children": [
            {
                "data": "7:1896",
                "leaf": "clip",
                "type": "Leaf"
            },
            {
                "data": "2:1896",
                "leaf": "clip",
                "type": "Leaf"
            }
        ],
        "type": "AVSplit"
    },
    {
        "children": [
            {
                "data": "1:1927",
                "leaf": "clip",
                "type": "Leaf"
            },
            {
                "data": "12:1927",
                "leaf": "clip",
                "type": "Leaf"
            }
        ],
        "type": "AVSplit"
    },
    {
        "children": [
            {
                "data": "2:0",
                "leaf": "clip",
                "type": "Leaf"
            },
            {
                "data": "7:0",
                "leaf": "clip",
                "type": "Leaf"
            }
        ],
        "type": "AVSplit"
    },
    {
        "children": [
            {
                "data": "0:1896",
                "leaf": "clip",
                "type": "Leaf"
            },
            {
                "data": "17:1896",
                "leaf": "clip",
                "type": "Leaf"
            }
        ],
        "type": "AVSplit"
    },
    {
        "children": [
            {
                "data": "0:1838",
                "leaf": "clip",
                "type": "Leaf"
            },
            {
                "data": "17:1838",
                "leaf": "clip",
                "type": "Leaf"
            }
        ],
        "type": "AVSplit"
    },
    {
        "children": [
            {
                "data": "0:1783",
                "leaf": "clip",
                "type": "Leaf"
            },
            {
                "data": "17:1783",
                "leaf": "clip",
                "type": "Leaf"
            }
        ],
        "type": "AVSplit"
    },
    {
        "children": [
            {
                "data": "0:985",
                "leaf": "clip",
                "type": "Leaf"
            },
            {
                "data": "17:985",
                "leaf": "clip",
                "type": "Leaf"
            }
        ],
        "type": "AVSplit"
    },
    {
        "children": [
            {
                "data": "0:1442",
                "leaf": "clip",
                "type": "Leaf"
            },
            {
                "data": "17:1442",
                "leaf": "clip",
                "type": "Leaf"
            }
        ],
        "type": "AVSplit"
    }
]
</property>
  <property name="kdenlive:docproperties.guides">[
    {
        "comment": "00:01:03:06",
        "pos": 1894,
        "type": 0
    },
    {
        "comment": "00:01:09:01",
        "pos": 2069,
        "type": 0
    },
    {
        "comment": "00:01:11:24",
        "pos": 2152,
        "type": 0
    },
    {
        "comment": "00:01:21:13",
        "pos": 2441,
        "type": 0
    },
    {
        "comment": "00:01:22:23",
        "pos": 2481,
        "type": 0
    },
    {
        "comment": "00:02:00:06",
        "pos": 3602,
        "type": 0
    },
    {
        "comment": "00:02:06:02",
        "pos": 3778,
        "type": 0
    },
    {
        "comment": "guide",
        "pos": 6011,
        "type": 0
    },
    {
        "comment": "guide",
        "pos": 6012,
        "type": 0
    }
]
</property>
  <property name="kdenlive:docproperties.kdenliveversion">20.08.1</property>
  <property name="kdenlive:docproperties.position">7135</property>
  <property name="kdenlive:docproperties.previewchunks"/>
  <property name="kdenlive:docproperties.previewextension">mov</property>
  <property name="kdenlive:docproperties.previewparameters">r=30 s=1920x1080 vb=45M threads=0 vcodec=dnxhd</property>
  <property name="kdenlive:docproperties.profile">atsc_1080p_30</property>
  <property name="kdenlive:docproperties.proxyextension">mkv</property>
  <property name="kdenlive:docproperties.proxyimageminsize">2000</property>
  <property name="kdenlive:docproperties.proxyimagesize">800</property>
  <property name="kdenlive:docproperties.proxyminsize">1000</property>
  <property name="kdenlive:docproperties.proxyparams">-vf yadif,scale=960:-2 -qscale 3 -vcodec mjpeg -acodec pcm_s16le</property>
  <property name="kdenlive:docproperties.scrollPos">0</property>
  <property name="kdenlive:docproperties.seekOffset">30000</property>
  <property name="kdenlive:docproperties.version">1</property>
  <property name="kdenlive:docproperties.verticalzoom">1</property>
  <property name="kdenlive:docproperties.videoTarget">7</property>
  <property name="kdenlive:docproperties.videotargettrack">6</property>
  <property name="kdenlive:docproperties.zonein">0</property>
  <property name="kdenlive:docproperties.zoneout">0</property>
  <property name="kdenlive:docproperties.zoom">13</property>
  <property name="kdenlive:expandedFolders"/>
  <property name="kdenlive:documentnotes"/>
  <property name="xml_retain">1</property>
  <entry producer="1" in="00:00:00.000" out="00:17:12.133"/>
  <entry producer="2" in="00:00:00.000" out="00:21:14.533"/>
  <entry producer="3" in="00:00:00.000" out="00:24:40.500"/>
  <entry producer="4" in="00:00:00.000" out="00:05:00.267"/>
  <entry producer="5" in="00:00:00.000" out="00:05:00.267"/>
  <entry producer="6" in="00:00:00.000" out="00:05:00.267"/>
  <entry producer="7" in="00:00:00.000" out="00:05:00.267"/>
  <entry producer="8" in="00:00:00.000" out="00:00:38.333"/>
  <entry producer="9" in="00:00:00.000" out="00:15:14.733"/>
  <entry producer="11" in="00:00:00.000" out="00:00:10.367"/>
  <entry producer="12" in="00:00:00.000" out="00:00:13.333"/>
  <entry producer="13" in="00:00:00.000" out="00:00:07.733"/>
  <entry producer="14" in="00:00:00.000" out="00:00:16.133"/>
  <entry producer="15" in="00:00:00.000" out="00:00:04.967"/>
  <entry producer="16" in="00:00:00.000" out="00:00:04.967"/>
  <entry producer="17" in="00:00:00.000" out="00:00:04.967"/>
  <entry producer="18" in="00:00:00.000" out="00:00:04.967"/>
  <entry producer="20" in="00:00:00.000" out="00:00:04.967"/>
  <entry producer="21" in="00:00:00.000" out="00:00:04.967"/>
  <entry producer="22" in="00:00:00.000" out="00:00:04.967"/>
  <entry producer="producer0" in="00:00:00.000" out="00:00:43.233"/>
 </playlist>
 <producer id="black_track" in="00:00:00.000" out="00:19:56.100">
  <property name="length">2147483647</property>
  <property name="eof">continue</property>
  <property name="resource">black</property>
  <property name="aspect_ratio">1</property>
  <property name="mlt_service">color</property>
  <property name="mlt_image_format">rgb24a</property>
  <property name="set.test_audio">0</property>
 </producer>
 <producer title="Anonymous Submission" id="producer1" in="00:00:00.000" out="00:24:40.500">
  <property name="length">44416</property>
  <property name="eof">pause</property>
  <property name="resource">2020-10-21 16-44-56.mkv</property>
  <property name="audio_index">1</property>
  <property name="video_index">0</property>
  <property name="mute_on_pause">1</property>
  <property name="mlt_service">avformat-novalidate</property>
  <property name="seekable">1</property>
  <property name="aspect_ratio">1</property>
  <property name="kdenlive:folderid">-1</property>
  <property name="kdenlive:file_size">55118377</property>
  <property name="kdenlive:file_hash">f2182e66d3381557a43575618d5bb78c</property>
  <property name="global_feed">1</property>
  <property name="kdenlive:id">4</property>
  <property name="xml">was here</property>
  <property name="meta.media.nb_streams">2</property>
  <property name="meta.media.0.stream.type">video</property>
  <property name="meta.media.0.stream.frame_rate">30</property>
  <property name="meta.media.0.stream.sample_aspect_ratio">0</property>
  <property name="meta.media.0.codec.width">1280</property>
  <property name="meta.media.0.codec.height">720</property>
  <property name="meta.media.0.codec.rotate">0</property>
  <property name="meta.media.0.codec.frame_rate">30</property>
  <property name="meta.media.0.codec.pix_fmt">yuv420p</property>
  <property name="meta.media.0.codec.sample_aspect_ratio">0</property>
  <property name="meta.media.0.codec.colorspace">709</property>
  <property name="meta.media.0.codec.name">h264</property>
  <property name="meta.media.0.codec.long_name">H.264 / AVC / MPEG-4 AVC / MPEG-4 part 10</property>
  <property name="meta.media.0.codec.bit_rate">0</property>
  <property name="meta.attr.0.stream.DURATION.markup">00:24:40.533000000</property>
  <property name="meta.media.1.stream.type">audio</property>
  <property name="meta.media.1.codec.sample_fmt">fltp</property>
  <property name="meta.media.1.codec.sample_rate">44100</property>
  <property name="meta.media.1.codec.channels">2</property>
  <property name="meta.media.1.codec.name">aac</property>
  <property name="meta.media.1.codec.long_name">AAC (Advanced Audio Coding)</property>
  <property name="meta.media.1.codec.bit_rate">0</property>
  <property name="meta.attr.1.stream.title.markup">simple_aac_recording</property>
  <property name="meta.attr.1.stream.DURATION.markup">00:24:40.458000000</property>
  <property name="meta.attr.ENCODER.markup">Lavf58.29.100</property>
  <property name="meta.media.sample_aspect_num">1</property>
  <property name="meta.media.sample_aspect_den">1</property>
  <property name="meta.media.frame_rate_num">30</property>
  <property name="meta.media.frame_rate_den">1</property>
  <property name="meta.media.colorspace">709</property>
  <property name="meta.media.color_trc">2</property>
  <property name="meta.media.width">1280</property>
  <property name="meta.media.height">720</property>
  <property name="meta.media.top_field_first">0</property>
  <property name="meta.media.progressive">1</property>
  <property name="meta.media.color_range">mpeg</property>
  <property name="set.test_audio">0</property>
  <property name="set.test_image">1</property>
 </producer>
 <producer id="producer2" in="00:00:00.000" out="00:17:45.900">
  <property name="length">31980</property>
  <property name="eof">pause</property>
  <property name="resource">1.388889:2020-10-21 16-44-56.mkv</property>
  <property name="aspect_ratio">1</property>
  <property name="meta.media.nb_streams">2</property>
  <property name="meta.media.0.stream.type">video</property>
  <property name="meta.media.0.stream.frame_rate">30</property>
  <property name="meta.media.0.stream.sample_aspect_ratio">0</property>
  <property name="meta.media.0.codec.width">1280</property>
  <property name="meta.media.0.codec.height">720</property>
  <property name="meta.media.0.codec.rotate">0</property>
  <property name="meta.media.0.codec.frame_rate">30</property>
  <property name="meta.media.0.codec.pix_fmt">yuv420p</property>
  <property name="meta.media.0.codec.sample_aspect_ratio">0</property>
  <property name="meta.media.0.codec.colorspace">709</property>
  <property name="meta.media.0.codec.name">h264</property>
  <property name="meta.media.0.codec.long_name">H.264 / AVC / MPEG-4 AVC / MPEG-4 part 10</property>
  <property name="meta.media.0.codec.bit_rate">0</property>
  <property name="meta.attr.0.stream.DURATION.markup">00:24:40.533000000</property>
  <property name="meta.media.1.stream.type">audio</property>
  <property name="meta.media.1.codec.sample_fmt">fltp</property>
  <property name="meta.media.1.codec.sample_rate">44100</property>
  <property name="meta.media.1.codec.channels">2</property>
  <property name="meta.media.1.codec.name">aac</property>
  <property name="meta.media.1.codec.long_name">AAC (Advanced Audio Coding)</property>
  <property name="meta.media.1.codec.bit_rate">0</property>
  <property name="meta.attr.1.stream.title.markup">simple_aac_recording</property>
  <property name="meta.attr.1.stream.DURATION.markup">00:24:40.458000000</property>
  <property name="meta.attr.ENCODER.markup">Lavf58.29.100</property>
  <property name="seekable">1</property>
  <property name="meta.media.sample_aspect_num">1</property>
  <property name="meta.media.sample_aspect_den">1</property>
  <property name="audio_index">1</property>
  <property name="video_index">0</property>
  <property name="mute_on_pause">1</property>
  <property name="warp_speed">1.38889</property>
  <property name="warp_resource">2020-10-21 16-44-56.mkv</property>
  <property name="mlt_service">timewarp</property>
  <property name="set.test_audio">0</property>
  <property name="set.test_image">1</property>
  <property name="warp_pitch">0</property>
  <property name="meta.media.frame_rate_num">30</property>
  <property name="meta.media.frame_rate_den">1</property>
  <property name="meta.media.colorspace">709</property>
  <property name="meta.media.color_trc">2</property>
  <property name="meta.media.width">1280</property>
  <property name="meta.media.height">720</property>
  <property name="meta.media.color_range">mpeg</property>
 </producer>
 <playlist id="playlist0">
  <property name="kdenlive:audio_track">1</property>
  <blank length="00:00:32.833"/>
  <entry producer="producer1" in="00:16:13.267" out="00:16:23.467">
   <property name="kdenlive:id">4</property>
  </entry>
  <blank length="00:00:05.000"/>
  <entry producer="producer1" in="00:16:23.500" out="00:16:24.833">
   <property name="kdenlive:id">4</property>
  </entry>
  <blank length="00:00:10.000"/>
  <entry producer="producer1" in="00:16:25.833" out="00:16:27.633">
   <property name="kdenlive:id">4</property>
  </entry>
  <entry producer="producer1" in="00:16:27.667" out="00:16:29.567">
   <property name="kdenlive:id">4</property>
  </entry>
  <entry producer="producer2" in="00:11:52.500" out="00:11:53.067">
   <property name="kdenlive:id">4</property>
  </entry>
  <filter id="filter0">
   <property name="window">75</property>
   <property name="max_gain">20dB</property>
   <property name="mlt_service">volume</property>
   <property name="internal_added">237</property>
   <property name="disable">1</property>
  </filter>
  <filter id="filter1">
   <property name="channel">-1</property>
   <property name="mlt_service">panner</property>
   <property name="internal_added">237</property>
   <property name="start">0.5</property>
   <property name="disable">1</property>
  </filter>
 </playlist>
 <playlist id="playlist1"/>
 <tractor id="tractor0" in="00:00:00.000" out="00:01:03.767">
  <property name="kdenlive:audio_track">1</property>
  <property name="kdenlive:trackheight">67</property>
  <property name="kdenlive:collapsed">0</property>
  <property name="kdenlive:track_name">extra audio</property>
  <property name="kdenlive:thumbs_format"/>
  <property name="kdenlive:audio_rec"/>
  <property name="kdenlive:timeline_active"/>
  <track hide="video" producer="playlist0"/>
  <track hide="both" producer="playlist1"/>
  <filter id="filter2">
   <property name="iec_scale">0</property>
   <property name="mlt_service">audiolevel</property>
   <property name="disable">1</property>
  </filter>
 </tractor>
 <producer title="Anonymous Submission" id="producer3" in="00:00:00.000" out="00:24:40.500">
  <property name="length">44416</property>
  <property name="eof">pause</property>
  <property name="resource">2020-10-21 16-44-56.mkv</property>
  <property name="audio_index">1</property>
  <property name="video_index">0</property>
  <property name="mute_on_pause">1</property>
  <property name="mlt_service">avformat-novalidate</property>
  <property name="seekable">1</property>
  <property name="aspect_ratio">1</property>
  <property name="kdenlive:folderid">-1</property>
  <property name="kdenlive:file_size">55118377</property>
  <property name="kdenlive:file_hash">f2182e66d3381557a43575618d5bb78c</property>
  <property name="global_feed">1</property>
  <property name="kdenlive:id">4</property>
  <property name="xml">was here</property>
  <property name="meta.media.nb_streams">2</property>
  <property name="meta.media.0.stream.type">video</property>
  <property name="meta.media.0.stream.frame_rate">30</property>
  <property name="meta.media.0.stream.sample_aspect_ratio">0</property>
  <property name="meta.media.0.codec.width">1280</property>
  <property name="meta.media.0.codec.height">720</property>
  <property name="meta.media.0.codec.rotate">0</property>
  <property name="meta.media.0.codec.frame_rate">30</property>
  <property name="meta.media.0.codec.pix_fmt">yuv420p</property>
  <property name="meta.media.0.codec.sample_aspect_ratio">0</property>
  <property name="meta.media.0.codec.colorspace">709</property>
  <property name="meta.media.0.codec.name">h264</property>
  <property name="meta.media.0.codec.long_name">H.264 / AVC / MPEG-4 AVC / MPEG-4 part 10</property>
  <property name="meta.media.0.codec.bit_rate">0</property>
  <property name="meta.attr.0.stream.DURATION.markup">00:24:40.533000000</property>
  <property name="meta.media.1.stream.type">audio</property>
  <property name="meta.media.1.codec.sample_fmt">fltp</property>
  <property name="meta.media.1.codec.sample_rate">44100</property>
  <property name="meta.media.1.codec.channels">2</property>
  <property name="meta.media.1.codec.name">aac</property>
  <property name="meta.media.1.codec.long_name">AAC (Advanced Audio Coding)</property>
  <property name="meta.media.1.codec.bit_rate">0</property>
  <property name="meta.attr.1.stream.title.markup">simple_aac_recording</property>
  <property name="meta.attr.1.stream.DURATION.markup">00:24:40.458000000</property>
  <property name="meta.attr.ENCODER.markup">Lavf58.29.100</property>
  <property name="meta.media.sample_aspect_num">1</property>
  <property name="meta.media.sample_aspect_den">1</property>
  <property name="meta.media.frame_rate_num">30</property>
  <property name="meta.media.frame_rate_den">1</property>
  <property name="meta.media.colorspace">709</property>
  <property name="meta.media.color_trc">2</property>
  <property name="meta.media.width">1280</property>
  <property name="meta.media.height">720</property>
  <property name="meta.media.top_field_first">0</property>
  <property name="meta.media.progressive">1</property>
  <property name="meta.media.color_range">mpeg</property>
  <property name="set.test_audio">0</property>
  <property name="set.test_image">1</property>
 </producer>
 <playlist id="playlist2">
  <property name="kdenlive:audio_track">1</property>
  <blank length="00:01:04.233"/>
  <entry producer="producer3" in="00:17:20.133" out="00:19:31.967">
   <property name="kdenlive:id">4</property>
  </entry>
  <filter id="filter3">
   <property name="window">75</property>
   <property name="max_gain">20dB</property>
   <property name="mlt_service">volume</property>
   <property name="internal_added">237</property>
   <property name="disable">1</property>
  </filter>
  <filter id="filter4">
   <property name="channel">-1</property>
   <property name="mlt_service">panner</property>
   <property name="internal_added">237</property>
   <property name="start">0.5</property>
   <property name="disable">1</property>
  </filter>
 </playlist>
 <playlist id="playlist3"/>
 <tractor id="tractor1" in="00:00:00.000" out="00:03:16.067">
  <property name="kdenlive:audio_track">1</property>
  <property name="kdenlive:trackheight">67</property>
  <property name="kdenlive:collapsed">0</property>
  <property name="kdenlive:track_name">extra audio</property>
  <property name="kdenlive:thumbs_format"/>
  <property name="kdenlive:audio_rec"/>
  <property name="kdenlive:timeline_active"/>
  <track hide="video" producer="playlist2"/>
  <track hide="both" producer="playlist3"/>
  <filter id="filter5">
   <property name="iec_scale">0</property>
   <property name="mlt_service">audiolevel</property>
   <property name="disable">1</property>
  </filter>
 </tractor>
 <producer title="Anonymous Submission" id="producer4" in="00:00:00.000" out="00:05:00.267">
  <property name="length">9009</property>
  <property name="eof">pause</property>
  <property name="resource">GHAL1239.MP4</property>
  <property name="audio_index">1</property>
  <property name="video_index">0</property>
  <property name="mute_on_pause">1</property>
  <property name="mlt_service">avformat-novalidate</property>
  <property name="seekable">1</property>
  <property name="aspect_ratio">1</property>
  <property name="kdenlive:folderid">-1</property>
  <property name="kdenlive:file_size">1135922341</property>
  <property name="kdenlive:file_hash">38b49679d0644a8d2e227d0c3107046a</property>
  <property name="global_feed">1</property>
  <property name="kdenlive:id">8</property>
  <property name="xml">was here</property>
  <property name="meta.media.nb_streams">5</property>
  <property name="meta.media.0.stream.type">video</property>
  <property name="meta.media.0.stream.frame_rate">59.9401</property>
  <property name="meta.media.0.stream.sample_aspect_ratio">0</property>
  <property name="meta.media.0.codec.width">1920</property>
  <property name="meta.media.0.codec.height">1080</property>
  <property name="meta.media.0.codec.rotate">0</property>
  <property name="meta.media.0.codec.frame_rate">59.9401</property>
  <property name="meta.media.0.codec.pix_fmt">yuvj420p</property>
  <property name="meta.media.0.codec.sample_aspect_ratio">1</property>
  <property name="meta.media.0.codec.colorspace">709</property>
  <property name="meta.media.0.codec.color_trc">1</property>
  <property name="meta.media.0.codec.name">h264</property>
  <property name="meta.media.0.codec.long_name">H.264 / AVC / MPEG-4 AVC / MPEG-4 part 10</property>
  <property name="meta.media.0.codec.bit_rate">30000081</property>
  <property name="meta.attr.0.stream.creation_time.markup">2016-03-07T01:01:50.000000Z</property>
  <property name="meta.attr.0.stream.language.markup">eng</property>
  <property name="meta.attr.0.stream.handler_name.markup">GoPro AVC  </property>
  <property name="meta.attr.0.stream.encoder.markup">GoPro AVC encoder</property>
  <property name="meta.attr.0.stream.timecode.markup">01:01:46:09</property>
  <property name="meta.media.1.stream.type">audio</property>
  <property name="meta.media.1.codec.sample_fmt">fltp</property>
  <property name="meta.media.1.codec.sample_rate">48000</property>
  <property name="meta.media.1.codec.channels">2</property>
  <property name="meta.media.1.codec.name">aac</property>
  <property name="meta.media.1.codec.long_name">AAC (Advanced Audio Coding)</property>
  <property name="meta.media.1.codec.bit_rate">189369</property>
  <property name="meta.attr.1.stream.creation_time.markup">2016-03-07T01:01:50.000000Z</property>
  <property name="meta.attr.1.stream.language.markup">eng</property>
  <property name="meta.attr.1.stream.handler_name.markup">GoPro AAC  </property>
  <property name="meta.attr.1.stream.timecode.markup">01:01:46:09</property>
  <property name="meta.attr.major_brand.markup">mp41</property>
  <property name="meta.attr.minor_version.markup">538120216</property>
  <property name="meta.attr.compatible_brands.markup">mp41</property>
  <property name="meta.attr.creation_time.markup">2016-03-07T01:01:50.000000Z</property>
  <property name="meta.attr.location.markup">+22.6281+120.2678/</property>
  <property name="meta.attr.location-eng.markup">+22.6281+120.2678/</property>
  <property name="meta.attr.firmware.markup">HD8.01.01.00.00</property>
  <property name="meta.media.sample_aspect_num">1</property>
  <property name="meta.media.sample_aspect_den">1</property>
  <property name="meta.media.frame_rate_num">60000</property>
  <property name="meta.media.frame_rate_den">1001</property>
  <property name="meta.media.colorspace">709</property>
  <property name="meta.media.color_trc">1</property>
  <property name="meta.media.width">1920</property>
  <property name="meta.media.height">1080</property>
  <property name="meta.media.top_field_first">0</property>
  <property name="meta.media.progressive">1</property>
  <property name="meta.media.color_range">full</property>
  <property name="set.test_audio">0</property>
  <property name="set.test_image">1</property>
 </producer>
 <playlist id="playlist4">
  <property name="kdenlive:audio_track">1</property>
  <entry producer="producer4" in="00:00:38.133" out="00:01:41.300">
   <property name="kdenlive:id">8</property>
  </entry>
  <entry producer="producer4" in="00:01:59.567" out="00:04:12.433">
   <property name="kdenlive:id">8</property>
  </entry>
  <filter id="filter6">
   <property name="window">75</property>
   <property name="max_gain">20dB</property>
   <property name="level">0.237198</property>
   <property name="mlt_service">volume</property>
   <property name="internal_added">237</property>
   <property name="disable">0</property>
  </filter>
  <filter id="filter7">
   <property name="channel">-1</property>
   <property name="mlt_service">panner</property>
   <property name="internal_added">237</property>
   <property name="start">0.5</property>
   <property name="disable">1</property>
  </filter>
 </playlist>
 <playlist id="playlist5"/>
 <tractor id="tractor2" in="00:00:00.000" out="00:03:16.067">
  <property name="kdenlive:audio_track">1</property>
  <property name="kdenlive:trackheight">67</property>
  <property name="kdenlive:collapsed">0</property>
  <property name="kdenlive:track_name">extra audio</property>
  <property name="kdenlive:thumbs_format"/>
  <property name="kdenlive:audio_rec"/>
  <property name="kdenlive:timeline_active"/>
  <track hide="video" producer="playlist4"/>
  <track hide="both" producer="playlist5"/>
  <filter id="filter8">
   <property name="iec_scale">0</property>
   <property name="mlt_service">audiolevel</property>
   <property name="disable">1</property>
  </filter>
 </tractor>
 <playlist id="playlist6">
  <property name="kdenlive:audio_track">1</property>
  <filter id="filter9">
   <property name="window">75</property>
   <property name="max_gain">20dB</property>
   <property name="mlt_service">volume</property>
   <property name="internal_added">237</property>
   <property name="disable">1</property>
  </filter>
  <filter id="filter10">
   <property name="channel">-1</property>
   <property name="mlt_service">panner</property>
   <property name="internal_added">237</property>
   <property name="start">0.5</property>
   <property name="disable">1</property>
  </filter>
 </playlist>
 <playlist id="playlist7"/>
 <tractor id="tractor3" in="00:00:00.000">
  <property name="kdenlive:audio_track">1</property>
  <property name="kdenlive:trackheight">67</property>
  <property name="kdenlive:collapsed">0</property>
  <property name="kdenlive:track_name">Audio 4</property>
  <property name="kdenlive:thumbs_format"/>
  <property name="kdenlive:audio_rec"/>
  <property name="kdenlive:timeline_active"/>
  <track hide="video" producer="playlist6"/>
  <track hide="both" producer="playlist7"/>
  <filter id="filter11">
   <property name="iec_scale">0</property>
   <property name="mlt_service">audiolevel</property>
   <property name="disable">1</property>
  </filter>
 </tractor>
 <playlist id="playlist8">
  <property name="kdenlive:audio_track">1</property>
  <filter id="filter12">
   <property name="window">75</property>
   <property name="max_gain">20dB</property>
   <property name="mlt_service">volume</property>
   <property name="internal_added">237</property>
   <property name="disable">1</property>
  </filter>
  <filter id="filter13">
   <property name="channel">-1</property>
   <property name="mlt_service">panner</property>
   <property name="internal_added">237</property>
   <property name="start">0.5</property>
   <property name="disable">1</property>
  </filter>
 </playlist>
 <playlist id="playlist9"/>
 <tractor id="tractor4" in="00:00:00.000">
  <property name="kdenlive:audio_track">1</property>
  <property name="kdenlive:trackheight">67</property>
  <property name="kdenlive:collapsed">0</property>
  <property name="kdenlive:track_name">Audio 3</property>
  <property name="kdenlive:thumbs_format"/>
  <property name="kdenlive:audio_rec"/>
  <property name="kdenlive:timeline_active"/>
  <track hide="video" producer="playlist8"/>
  <track hide="both" producer="playlist9"/>
  <filter id="filter14">
   <property name="iec_scale">0</property>
   <property name="mlt_service">audiolevel</property>
   <property name="disable">1</property>
  </filter>
 </tractor>
 <playlist id="playlist10">
  <property name="kdenlive:audio_track">1</property>
  <filter id="filter15">
   <property name="window">75</property>
   <property name="max_gain">20dB</property>
   <property name="mlt_service">volume</property>
   <property name="internal_added">237</property>
   <property name="disable">1</property>
  </filter>
  <filter id="filter16">
   <property name="channel">-1</property>
   <property name="mlt_service">panner</property>
   <property name="internal_added">237</property>
   <property name="start">0.5</property>
   <property name="disable">1</property>
  </filter>
 </playlist>
 <playlist id="playlist11"/>
 <tractor id="tractor5" in="00:00:00.000">
  <property name="kdenlive:audio_track">1</property>
  <property name="kdenlive:trackheight">67</property>
  <property name="kdenlive:collapsed">0</property>
  <property name="kdenlive:track_name">Audio 2</property>
  <property name="kdenlive:thumbs_format"/>
  <property name="kdenlive:audio_rec"/>
  <property name="kdenlive:timeline_active"/>
  <track hide="video" producer="playlist10"/>
  <track hide="both" producer="playlist11"/>
  <filter id="filter17">
   <property name="iec_scale">0</property>
   <property name="mlt_service">audiolevel</property>
   <property name="disable">1</property>
  </filter>
 </tractor>
 <playlist id="playlist12">
  <property name="kdenlive:audio_track">1</property>
  <filter id="filter18">
   <property name="window">75</property>
   <property name="max_gain">20dB</property>
   <property name="mlt_service">volume</property>
   <property name="internal_added">237</property>
   <property name="disable">1</property>
  </filter>
  <filter id="filter19">
   <property name="channel">-1</property>
   <property name="mlt_service">panner</property>
   <property name="internal_added">237</property>
   <property name="start">0.5</property>
   <property name="disable">1</property>
  </filter>
 </playlist>
 <playlist id="playlist13"/>
 <tractor id="tractor6" in="00:00:00.000">
  <property name="kdenlive:audio_track">1</property>
  <property name="kdenlive:trackheight">67</property>
  <property name="kdenlive:collapsed">0</property>
  <property name="kdenlive:track_name">Audio 1</property>
  <property name="kdenlive:thumbs_format"/>
  <property name="kdenlive:audio_rec"/>
  <property name="kdenlive:timeline_active"/>
  <track hide="video" producer="playlist12"/>
  <track hide="both" producer="playlist13"/>
  <filter id="filter20">
   <property name="iec_scale">0</property>
   <property name="mlt_service">audiolevel</property>
   <property name="disable">1</property>
  </filter>
 </tractor>
 <producer title="Anonymous Submission" id="producer5" in="00:00:00.000" out="00:05:00.267">
  <property name="length">9009</property>
  <property name="eof">pause</property>
  <property name="resource">GHAL1239.MP4</property>
  <property name="audio_index">1</property>
  <property name="video_index">0</property>
  <property name="mute_on_pause">1</property>
  <property name="mlt_service">avformat-novalidate</property>
  <property name="seekable">1</property>
  <property name="aspect_ratio">1</property>
  <property name="kdenlive:folderid">-1</property>
  <property name="kdenlive:file_size">1135922341</property>
  <property name="kdenlive:file_hash">38b49679d0644a8d2e227d0c3107046a</property>
  <property name="global_feed">1</property>
  <property name="kdenlive:id">8</property>
  <property name="xml">was here</property>
  <property name="meta.media.nb_streams">5</property>
  <property name="meta.media.0.stream.type">video</property>
  <property name="meta.media.0.stream.frame_rate">59.9401</property>
  <property name="meta.media.0.stream.sample_aspect_ratio">0</property>
  <property name="meta.media.0.codec.width">1920</property>
  <property name="meta.media.0.codec.height">1080</property>
  <property name="meta.media.0.codec.rotate">0</property>
  <property name="meta.media.0.codec.frame_rate">59.9401</property>
  <property name="meta.media.0.codec.pix_fmt">yuvj420p</property>
  <property name="meta.media.0.codec.sample_aspect_ratio">1</property>
  <property name="meta.media.0.codec.colorspace">709</property>
  <property name="meta.media.0.codec.color_trc">1</property>
  <property name="meta.media.0.codec.name">h264</property>
  <property name="meta.media.0.codec.long_name">H.264 / AVC / MPEG-4 AVC / MPEG-4 part 10</property>
  <property name="meta.media.0.codec.bit_rate">30000081</property>
  <property name="meta.attr.0.stream.creation_time.markup">2016-03-07T01:01:50.000000Z</property>
  <property name="meta.attr.0.stream.language.markup">eng</property>
  <property name="meta.attr.0.stream.handler_name.markup">GoPro AVC  </property>
  <property name="meta.attr.0.stream.encoder.markup">GoPro AVC encoder</property>
  <property name="meta.attr.0.stream.timecode.markup">01:01:46:09</property>
  <property name="meta.media.1.stream.type">audio</property>
  <property name="meta.media.1.codec.sample_fmt">fltp</property>
  <property name="meta.media.1.codec.sample_rate">48000</property>
  <property name="meta.media.1.codec.channels">2</property>
  <property name="meta.media.1.codec.name">aac</property>
  <property name="meta.media.1.codec.long_name">AAC (Advanced Audio Coding)</property>
  <property name="meta.media.1.codec.bit_rate">189369</property>
  <property name="meta.attr.1.stream.creation_time.markup">2016-03-07T01:01:50.000000Z</property>
  <property name="meta.attr.1.stream.language.markup">eng</property>
  <property name="meta.attr.1.stream.handler_name.markup">GoPro AAC  </property>
  <property name="meta.attr.1.stream.timecode.markup">01:01:46:09</property>
  <property name="meta.attr.major_brand.markup">mp41</property>
  <property name="meta.attr.minor_version.markup">538120216</property>
  <property name="meta.attr.compatible_brands.markup">mp41</property>
  <property name="meta.attr.creation_time.markup">2016-03-07T01:01:50.000000Z</property>
  <property name="meta.attr.location.markup">+22.6281+120.2678/</property>
  <property name="meta.attr.location-eng.markup">+22.6281+120.2678/</property>
  <property name="meta.attr.firmware.markup">HD8.01.01.00.00</property>
  <property name="meta.media.sample_aspect_num">1</property>
  <property name="meta.media.sample_aspect_den">1</property>
  <property name="meta.media.frame_rate_num">60000</property>
  <property name="meta.media.frame_rate_den">1001</property>
  <property name="meta.media.colorspace">709</property>
  <property name="meta.media.color_trc">1</property>
  <property name="meta.media.width">1920</property>
  <property name="meta.media.height">1080</property>
  <property name="meta.media.top_field_first">0</property>
  <property name="meta.media.progressive">1</property>
  <property name="meta.media.color_range">full</property>
  <property name="set.test_audio">1</property>
  <property name="set.test_image">0</property>
 </producer>
 <playlist id="playlist14">
  <entry producer="producer5" in="00:00:38.133" out="00:01:41.300">
   <property name="kdenlive:id">8</property>
   <property name="kdenlive:activeeffect">0</property>
   <filter id="filter21">
    <property name="background">colour:0</property>
    <property name="mlt_service">affine</property>
    <property name="kdenlive_id">pan_zoom</property>
    <property name="transition.geometry">1144=0 0 1920 1080;1456=0 0 1920 1080;1468=0 -350 1920 1080</property>
    <property name="transition.distort">0</property>
    <property name="use_normalised">0</property>
    <property name="producer.resource">0x00000000</property>
    <property name="kdenlive:collapsed">0</property>
   </filter>
  </entry>
  <entry producer="producer5" in="00:01:59.567" out="00:04:12.433">
   <property name="kdenlive:id">8</property>
   <property name="kdenlive:activeeffect">0</property>
   <filter id="filter22">
    <property name="background">colour:0</property>
    <property name="mlt_service">affine</property>
    <property name="kdenlive_id">pan_zoom</property>
    <property name="transition.geometry">3587=0 -350 1920 1080</property>
    <property name="transition.distort">0</property>
    <property name="use_normalised">0</property>
    <property name="producer.resource">0x00000000</property>
    <property name="kdenlive:collapsed">0</property>
   </filter>
  </entry>
 </playlist>
 <playlist id="playlist15"/>
 <tractor id="tractor7" in="00:00:00.000" out="00:03:16.067">
  <property name="kdenlive:trackheight">67</property>
  <property name="kdenlive:collapsed">0</property>
  <property name="kdenlive:track_name">Video 9</property>
  <property name="kdenlive:thumbs_format"/>
  <property name="kdenlive:audio_rec"/>
  <property name="kdenlive:timeline_active"/>
  <track hide="audio" producer="playlist14"/>
  <track hide="both" producer="playlist15"/>
 </tractor>
 <playlist id="playlist16">
  <blank length="00:00:02.467"/>
  <entry producer="13" in="00:00:00.000" out="00:00:07.700">
   <property name="kdenlive:id">13</property>
  </entry>
 </playlist>
 <playlist id="playlist17"/>
 <tractor id="tractor8" in="00:00:00.000" out="00:00:10.167">
  <property name="kdenlive:trackheight">67</property>
  <property name="kdenlive:collapsed">0</property>
  <property name="kdenlive:track_name">Video 1</property>
  <property name="kdenlive:thumbs_format"/>
  <property name="kdenlive:audio_rec"/>
  <property name="kdenlive:timeline_active"/>
  <track hide="audio" producer="playlist16"/>
  <track hide="both" producer="playlist17"/>
 </tractor>
 <playlist id="playlist18"/>
 <playlist id="playlist19"/>
 <tractor id="tractor9" in="00:00:00.000">
  <property name="kdenlive:trackheight">67</property>
  <property name="kdenlive:collapsed">0</property>
  <property name="kdenlive:track_name">Video 2</property>
  <property name="kdenlive:thumbs_format"/>
  <property name="kdenlive:audio_rec"/>
  <property name="kdenlive:timeline_active"/>
  <track hide="audio" producer="playlist18"/>
  <track hide="both" producer="playlist19"/>
 </tractor>
 <playlist id="playlist20"/>
 <playlist id="playlist21"/>
 <tractor id="tractor10" in="00:00:00.000">
  <property name="kdenlive:trackheight">67</property>
  <property name="kdenlive:collapsed">0</property>
  <property name="kdenlive:track_name">Video 3</property>
  <property name="kdenlive:thumbs_format"/>
  <property name="kdenlive:audio_rec"/>
  <property name="kdenlive:timeline_active"/>
  <track hide="audio" producer="playlist20"/>
  <track hide="both" producer="playlist21"/>
 </tractor>
 <producer id="slowmotion:9:0.91:1:0" in="00:00:00.000" out="00:16:45.200">
  <property name="length">30157</property>
  <property name="eof">pause</property>
  <property name="resource">0.91:record-20201021-164952.mp4</property>
  <property name="aspect_ratio">1</property>
  <property name="meta.media.nb_streams">1</property>
  <property name="meta.media.0.stream.type">video</property>
  <property name="meta.media.0.stream.frame_rate">49.1846</property>
  <property name="meta.media.0.stream.sample_aspect_ratio">1</property>
  <property name="meta.media.0.codec.width">720</property>
  <property name="meta.media.0.codec.height">1280</property>
  <property name="meta.media.0.codec.rotate">0</property>
  <property name="meta.media.0.codec.frame_rate">90000</property>
  <property name="meta.media.0.codec.pix_fmt">yuv420p</property>
  <property name="meta.media.0.codec.sample_aspect_ratio">0</property>
  <property name="meta.media.0.codec.colorspace">601</property>
  <property name="meta.media.0.codec.color_trc">6</property>
  <property name="meta.media.0.codec.name">h264</property>
  <property name="meta.media.0.codec.long_name">H.264 / AVC / MPEG-4 AVC / MPEG-4 part 10</property>
  <property name="meta.media.0.codec.bit_rate">5994807</property>
  <property name="meta.attr.0.stream.creation_time.markup">2020-10-21T09:05:07.000000Z</property>
  <property name="meta.attr.0.stream.language.markup">eng</property>
  <property name="meta.attr.0.stream.handler_name.markup">VideoHandle</property>
  <property name="meta.attr.major_brand.markup">mp42</property>
  <property name="meta.attr.minor_version.markup">0</property>
  <property name="meta.attr.compatible_brands.markup">isommp42</property>
  <property name="meta.attr.creation_time.markup">2020-10-21T09:05:07.000000Z</property>
  <property name="meta.attr.com.android.version.markup">8.0.0</property>
  <property name="seekable">1</property>
  <property name="meta.media.sample_aspect_num">1</property>
  <property name="meta.media.sample_aspect_den">1</property>
  <property name="audio_index">-1</property>
  <property name="video_index">0</property>
  <property name="mute_on_pause">1</property>
  <property name="warp_speed">0.91</property>
  <property name="warp_resource">record-20201021-164952.mp4</property>
  <property name="mlt_service">timewarp</property>
  <property name="meta.media.frame_rate_num">541</property>
  <property name="meta.media.frame_rate_den">11</property>
  <property name="meta.media.colorspace">601</property>
  <property name="meta.media.color_trc">6</property>
  <property name="meta.media.width">720</property>
  <property name="meta.media.height">1280</property>
  <property name="meta.media.variable_frame_rate">1</property>
  <property name="meta.media.top_field_first">0</property>
  <property name="meta.media.progressive">1</property>
  <property name="kdenlive:id">10</property>
  <property name="set.test_audio">1</property>
  <property name="set.test_image">0</property>
  <property name="warp_pitch">0</property>
  <property name="meta.media.color_range">mpeg</property>
 </producer>
 <producer id="slowmotion:9:1.04:1:0" in="00:00:00.000" out="00:14:39.533">
  <property name="length">26387</property>
  <property name="eof">pause</property>
  <property name="resource">1.04:record-20201021-164952.mp4</property>
  <property name="aspect_ratio">1</property>
  <property name="meta.media.nb_streams">1</property>
  <property name="meta.media.0.stream.type">video</property>
  <property name="meta.media.0.stream.frame_rate">49.1846</property>
  <property name="meta.media.0.stream.sample_aspect_ratio">1</property>
  <property name="meta.media.0.codec.width">720</property>
  <property name="meta.media.0.codec.height">1280</property>
  <property name="meta.media.0.codec.rotate">0</property>
  <property name="meta.media.0.codec.frame_rate">90000</property>
  <property name="meta.media.0.codec.pix_fmt">yuv420p</property>
  <property name="meta.media.0.codec.sample_aspect_ratio">0</property>
  <property name="meta.media.0.codec.colorspace">601</property>
  <property name="meta.media.0.codec.color_trc">6</property>
  <property name="meta.media.0.codec.name">h264</property>
  <property name="meta.media.0.codec.long_name">H.264 / AVC / MPEG-4 AVC / MPEG-4 part 10</property>
  <property name="meta.media.0.codec.bit_rate">5994807</property>
  <property name="meta.attr.0.stream.creation_time.markup">2020-10-21T09:05:07.000000Z</property>
  <property name="meta.attr.0.stream.language.markup">eng</property>
  <property name="meta.attr.0.stream.handler_name.markup">VideoHandle</property>
  <property name="meta.attr.major_brand.markup">mp42</property>
  <property name="meta.attr.minor_version.markup">0</property>
  <property name="meta.attr.compatible_brands.markup">isommp42</property>
  <property name="meta.attr.creation_time.markup">2020-10-21T09:05:07.000000Z</property>
  <property name="meta.attr.com.android.version.markup">8.0.0</property>
  <property name="seekable">1</property>
  <property name="meta.media.sample_aspect_num">1</property>
  <property name="meta.media.sample_aspect_den">1</property>
  <property name="audio_index">-1</property>
  <property name="video_index">0</property>
  <property name="mute_on_pause">1</property>
  <property name="warp_speed">1.04</property>
  <property name="warp_resource">record-20201021-164952.mp4</property>
  <property name="mlt_service">timewarp</property>
  <property name="meta.media.frame_rate_num">541</property>
  <property name="meta.media.frame_rate_den">11</property>
  <property name="meta.media.colorspace">601</property>
  <property name="meta.media.color_trc">6</property>
  <property name="meta.media.width">720</property>
  <property name="meta.media.height">1280</property>
  <property name="meta.media.variable_frame_rate">1</property>
  <property name="meta.media.top_field_first">0</property>
  <property name="meta.media.progressive">1</property>
  <property name="kdenlive:id">10</property>
  <property name="set.test_audio">1</property>
  <property name="set.test_image">0</property>
  <property name="warp_pitch">0</property>
  <property name="meta.media.color_range">mpeg</property>
 </producer>
 <playlist id="playlist22">
  <blank length="00:01:00.767"/>
  <entry producer="slowmotion:9:0.91:1:0" in="00:12:24.733" out="00:13:30.000">
   <property name="kdenlive:id">10</property>
   <filter id="filter23">
    <property name="mlt_service">crop</property>
    <property name="kdenlive_id">sounc_crop</property>
    <property name="top">40</property>
    <property name="left">0</property>
    <property name="bottom">350</property>
    <property name="right">0</property>
    <property name="center">0</property>
    <property name="center_bias">0</property>
    <property name="use_profile">0</property>
    <property name="kdenlive:collapsed">0</property>
   </filter>
   <filter id="filter24">
    <property name="background">colour:0</property>
    <property name="mlt_service">affine</property>
    <property name="kdenlive_id">pan_zoom</property>
    <property name="transition.geometry">22342=910 460 1100 800</property>
    <property name="transition.distort">0</property>
    <property name="use_normalised">0</property>
    <property name="producer.resource">0x00000000</property>
    <property name="kdenlive:collapsed">0</property>
   </filter>
  </entry>
  <entry producer="slowmotion:9:1.04:1:0" in="00:11:48.767" out="00:12:58.767">
   <property name="kdenlive:id">10</property>
   <filter id="filter25">
    <property name="mlt_service">crop</property>
    <property name="kdenlive_id">sounc_crop</property>
    <property name="top">40</property>
    <property name="left">0</property>
    <property name="bottom">350</property>
    <property name="right">0</property>
    <property name="center">0</property>
    <property name="center_bias">0</property>
    <property name="use_profile">0</property>
    <property name="kdenlive:collapsed">0</property>
   </filter>
   <filter id="filter26">
    <property name="background">colour:0</property>
    <property name="mlt_service">affine</property>
    <property name="kdenlive_id">sound_posit</property>
    <property name="transition.geometry">21263=910 460 1100 800</property>
    <property name="transition.distort">0</property>
    <property name="use_normalised">0</property>
    <property name="producer.resource">0x00000000</property>
    <property name="kdenlive:collapsed">0</property>
   </filter>
  </entry>
 </playlist>
 <playlist id="playlist23"/>
 <tractor id="tractor11" in="00:00:00.000" out="00:03:16.067">
  <property name="kdenlive:trackheight">67</property>
  <property name="kdenlive:timeline_active">1</property>
  <track producer="playlist22"/>
  <track hide="both" producer="playlist23"/>
 </tractor>
 <producer title="Anonymous Submission" id="producer6" in="00:00:00.000" out="00:24:40.500">
  <property name="length">44416</property>
  <property name="eof">pause</property>
  <property name="resource">2020-10-21 16-44-56.mkv</property>
  <property name="audio_index">1</property>
  <property name="video_index">0</property>
  <property name="mute_on_pause">1</property>
  <property name="mlt_service">avformat-novalidate</property>
  <property name="seekable">1</property>
  <property name="aspect_ratio">1</property>
  <property name="kdenlive:folderid">-1</property>
  <property name="kdenlive:file_size">55118377</property>
  <property name="kdenlive:file_hash">f2182e66d3381557a43575618d5bb78c</property>
  <property name="global_feed">1</property>
  <property name="kdenlive:id">4</property>
  <property name="xml">was here</property>
  <property name="meta.media.nb_streams">2</property>
  <property name="meta.media.0.stream.type">video</property>
  <property name="meta.media.0.stream.frame_rate">30</property>
  <property name="meta.media.0.stream.sample_aspect_ratio">0</property>
  <property name="meta.media.0.codec.width">1280</property>
  <property name="meta.media.0.codec.height">720</property>
  <property name="meta.media.0.codec.rotate">0</property>
  <property name="meta.media.0.codec.frame_rate">30</property>
  <property name="meta.media.0.codec.pix_fmt">yuv420p</property>
  <property name="meta.media.0.codec.sample_aspect_ratio">0</property>
  <property name="meta.media.0.codec.colorspace">709</property>
  <property name="meta.media.0.codec.name">h264</property>
  <property name="meta.media.0.codec.long_name">H.264 / AVC / MPEG-4 AVC / MPEG-4 part 10</property>
  <property name="meta.media.0.codec.bit_rate">0</property>
  <property name="meta.attr.0.stream.DURATION.markup">00:24:40.533000000</property>
  <property name="meta.media.1.stream.type">audio</property>
  <property name="meta.media.1.codec.sample_fmt">fltp</property>
  <property name="meta.media.1.codec.sample_rate">44100</property>
  <property name="meta.media.1.codec.channels">2</property>
  <property name="meta.media.1.codec.name">aac</property>
  <property name="meta.media.1.codec.long_name">AAC (Advanced Audio Coding)</property>
  <property name="meta.media.1.codec.bit_rate">0</property>
  <property name="meta.attr.1.stream.title.markup">simple_aac_recording</property>
  <property name="meta.attr.1.stream.DURATION.markup">00:24:40.458000000</property>
  <property name="meta.attr.ENCODER.markup">Lavf58.29.100</property>
  <property name="meta.media.sample_aspect_num">1</property>
  <property name="meta.media.sample_aspect_den">1</property>
  <property name="meta.media.frame_rate_num">30</property>
  <property name="meta.media.frame_rate_den">1</property>
  <property name="meta.media.colorspace">709</property>
  <property name="meta.media.color_trc">2</property>
  <property name="meta.media.width">1280</property>
  <property name="meta.media.height">720</property>
  <property name="meta.media.top_field_first">0</property>
  <property name="meta.media.progressive">1</property>
  <property name="meta.media.color_range">mpeg</property>
  <property name="set.test_audio">1</property>
  <property name="set.test_image">1</property>
 </producer>
 <producer title="Anonymous Submission" id="producer7" in="00:00:00.000" out="00:24:40.500">
  <property name="length">44416</property>
  <property name="eof">pause</property>
  <property name="resource">2020-10-21 16-44-56.mkv</property>
  <property name="audio_index">1</property>
  <property name="video_index">0</property>
  <property name="mute_on_pause">1</property>
  <property name="mlt_service">avformat-novalidate</property>
  <property name="seekable">1</property>
  <property name="aspect_ratio">1</property>
  <property name="kdenlive:folderid">-1</property>
  <property name="kdenlive:file_size">55118377</property>
  <property name="kdenlive:file_hash">f2182e66d3381557a43575618d5bb78c</property>
  <property name="global_feed">1</property>
  <property name="kdenlive:id">4</property>
  <property name="xml">was here</property>
  <property name="meta.media.nb_streams">2</property>
  <property name="meta.media.0.stream.type">video</property>
  <property name="meta.media.0.stream.frame_rate">30</property>
  <property name="meta.media.0.stream.sample_aspect_ratio">0</property>
  <property name="meta.media.0.codec.width">1280</property>
  <property name="meta.media.0.codec.height">720</property>
  <property name="meta.media.0.codec.rotate">0</property>
  <property name="meta.media.0.codec.frame_rate">30</property>
  <property name="meta.media.0.codec.pix_fmt">yuv420p</property>
  <property name="meta.media.0.codec.sample_aspect_ratio">0</property>
  <property name="meta.media.0.codec.colorspace">709</property>
  <property name="meta.media.0.codec.name">h264</property>
  <property name="meta.media.0.codec.long_name">H.264 / AVC / MPEG-4 AVC / MPEG-4 part 10</property>
  <property name="meta.media.0.codec.bit_rate">0</property>
  <property name="meta.attr.0.stream.DURATION.markup">00:24:40.533000000</property>
  <property name="meta.media.1.stream.type">audio</property>
  <property name="meta.media.1.codec.sample_fmt">fltp</property>
  <property name="meta.media.1.codec.sample_rate">44100</property>
  <property name="meta.media.1.codec.channels">2</property>
  <property name="meta.media.1.codec.name">aac</property>
  <property name="meta.media.1.codec.long_name">AAC (Advanced Audio Coding)</property>
  <property name="meta.media.1.codec.bit_rate">0</property>
  <property name="meta.attr.1.stream.title.markup">simple_aac_recording</property>
  <property name="meta.attr.1.stream.DURATION.markup">00:24:40.458000000</property>
  <property name="meta.attr.ENCODER.markup">Lavf58.29.100</property>
  <property name="meta.media.sample_aspect_num">1</property>
  <property name="meta.media.sample_aspect_den">1</property>
  <property name="meta.media.frame_rate_num">30</property>
  <property name="meta.media.frame_rate_den">1</property>
  <property name="meta.media.colorspace">709</property>
  <property name="meta.media.color_trc">2</property>
  <property name="meta.media.width">1280</property>
  <property name="meta.media.height">720</property>
  <property name="meta.media.top_field_first">0</property>
  <property name="meta.media.progressive">1</property>
  <property name="meta.media.color_range">mpeg</property>
  <property name="set.test_audio">1</property>
  <property name="set.test_image">0</property>
 </producer>
 <playlist id="playlist24">
  <blank length="00:00:58.467"/>
  <entry producer="producer6" in="00:17:20.867" out="00:17:26.600">
   <property name="kdenlive:id">4</property>
  </entry>
  <entry producer="producer7" in="00:17:20.133" out="00:19:31.967">
   <property name="kdenlive:id">4</property>
   <property name="kdenlive:activeeffect">1</property>
   <filter id="filter27">
    <property name="mlt_service">crop</property>
    <property name="kdenlive_id">comp_crop</property>
    <property name="top">40</property>
    <property name="left">30</property>
    <property name="bottom">35</property>
    <property name="right">100</property>
    <property name="center">0</property>
    <property name="center_bias">0</property>
    <property name="use_profile">0</property>
    <property name="kdenlive:collapsed">0</property>
   </filter>
   <filter id="filter28">
    <property name="background">colour:0</property>
    <property name="mlt_service">affine</property>
    <property name="kdenlive_id">pan_zoom</property>
    <property name="transition.geometry">31204=115 460 1100 619</property>
    <property name="transition.distort">0</property>
    <property name="use_normalised">0</property>
    <property name="producer.resource">0x00000000</property>
    <property name="kdenlive:collapsed">0</property>
   </filter>
  </entry>
 </playlist>
 <playlist id="playlist25"/>
 <tractor id="tractor12" in="00:00:00.000" out="00:03:16.067">
  <property name="kdenlive:trackheight">67</property>
  <property name="kdenlive:collapsed">0</property>
  <property name="kdenlive:track_name">Video 4</property>
  <property name="kdenlive:thumbs_format"/>
  <property name="kdenlive:audio_rec"/>
  <property name="kdenlive:timeline_active"/>
  <track hide="audio" producer="playlist24"/>
  <track hide="both" producer="playlist25"/>
 </tractor>
 <playlist id="playlist26">
  <blank length="00:01:12.600"/>
  <entry producer="producer0" in="00:00:00.000" out="00:00:30.533">
   <property name="kdenlive:id">24</property>
  </entry>
 </playlist>
 <playlist id="playlist27"/>
 <tractor id="tractor13" in="00:00:00.000" out="00:01:43.133">
  <property name="kdenlive:trackheight">67</property>
  <property name="kdenlive:collapsed">0</property>
  <property name="kdenlive:track_name">Video 7</property>
  <property name="kdenlive:thumbs_format"/>
  <property name="kdenlive:audio_rec"/>
  <property name="kdenlive:timeline_active"/>
  <track hide="audio" producer="playlist26"/>
  <track hide="both" producer="playlist27"/>
 </tractor>
 <producer title="Anonymous Submission" id="9_playlist11" in="00:00:00.000" out="00:15:14.733">
  <property name="length">27443</property>
  <property name="eof">pause</property>
  <property name="resource">record-20201021-164952.mp4</property>
  <property name="audio_index">-1</property>
  <property name="video_index">0</property>
  <property name="mute_on_pause">1</property>
  <property name="mlt_service">avformat-novalidate</property>
  <property name="seekable">1</property>
  <property name="aspect_ratio">1</property>
  <property name="kdenlive:folderid">-1</property>
  <property name="kdenlive:file_size">686022290</property>
  <property name="kdenlive:file_hash">bd37a40b203be5a4a9b2e15035c76ad5</property>
  <property name="global_feed">1</property>
  <property name="kdenlive:zone_in">1445</property>
  <property name="kdenlive:zone_out">27442</property>
  <property name="xml">was here</property>
  <property name="meta.media.nb_streams">1</property>
  <property name="meta.media.0.stream.type">video</property>
  <property name="meta.media.0.stream.frame_rate">49.1846</property>
  <property name="meta.media.0.stream.sample_aspect_ratio">1</property>
  <property name="meta.media.0.codec.width">720</property>
  <property name="meta.media.0.codec.height">1280</property>
  <property name="meta.media.0.codec.rotate">0</property>
  <property name="meta.media.0.codec.frame_rate">90000</property>
  <property name="meta.media.0.codec.pix_fmt">yuv420p</property>
  <property name="meta.media.0.codec.sample_aspect_ratio">0</property>
  <property name="meta.media.0.codec.colorspace">601</property>
  <property name="meta.media.0.codec.color_trc">6</property>
  <property name="meta.media.0.codec.name">h264</property>
  <property name="meta.media.0.codec.long_name">H.264 / AVC / MPEG-4 AVC / MPEG-4 part 10</property>
  <property name="meta.media.0.codec.bit_rate">5994807</property>
  <property name="meta.attr.0.stream.creation_time.markup">2020-10-21T09:05:07.000000Z</property>
  <property name="meta.attr.0.stream.language.markup">eng</property>
  <property name="meta.attr.0.stream.handler_name.markup">VideoHandle</property>
  <property name="meta.attr.major_brand.markup">mp42</property>
  <property name="meta.attr.minor_version.markup">0</property>
  <property name="meta.attr.compatible_brands.markup">isommp42</property>
  <property name="meta.attr.creation_time.markup">2020-10-21T09:05:07.000000Z</property>
  <property name="meta.attr.com.android.version.markup">8.0.0</property>
  <property name="meta.media.sample_aspect_num">1</property>
  <property name="meta.media.sample_aspect_den">1</property>
  <property name="meta.media.frame_rate_num">541</property>
  <property name="meta.media.frame_rate_den">11</property>
  <property name="meta.media.colorspace">601</property>
  <property name="meta.media.color_trc">6</property>
  <property name="meta.media.width">720</property>
  <property name="meta.media.height">1280</property>
  <property name="meta.media.variable_frame_rate">1</property>
  <property name="meta.media.top_field_first">0</property>
  <property name="meta.media.progressive">1</property>
  <property name="kdenlive:id">10</property>
  <property name="meta.media.color_range">mpeg</property>
 </producer>
 <playlist id="playlist28">
  <blank length="00:00:29.433"/>
  <entry producer="9_playlist11" in="00:11:30.200" out="00:12:03.433">
   <property name="kdenlive:id">10</property>
   <property name="kdenlive:activeeffect">1</property>
   <filter id="filter29">
    <property name="mlt_service">crop</property>
    <property name="kdenlive_id">crop</property>
    <property name="tag">crop</property>
    <property name="kdenlive_ix">1</property>
    <property name="kdenlive_info"/>
    <property name="disable">0</property>
    <property name="top">40</property>
    <property name="left">0</property>
    <property name="bottom">350</property>
    <property name="right">0</property>
    <property name="center">0</property>
    <property name="center_bias">0</property>
    <property name="use_profile">0</property>
    <property name="kdenlive:collapsed">0</property>
   </filter>
   <filter id="filter30">
    <property name="background">colour:0</property>
    <property name="mlt_service">affine</property>
    <property name="kdenlive_id">pan_zoom</property>
    <property name="transition.geometry">20706=0 0 1920 1080;20715=910 460 1100 800</property>
    <property name="transition.distort">0</property>
    <property name="use_normalised">0</property>
    <property name="producer.resource">0x00000000</property>
    <property name="kdenlive:collapsed">0</property>
   </filter>
  </entry>
 </playlist>
 <playlist id="playlist29"/>
 <tractor id="tractor14" in="00:00:00.000" out="00:01:02.667">
  <property name="kdenlive:trackheight">67</property>
  <property name="kdenlive:collapsed">0</property>
  <property name="kdenlive:track_name">Video 6</property>
  <property name="kdenlive:thumbs_format"/>
  <property name="kdenlive:audio_rec"/>
  <property name="kdenlive:timeline_active"/>
  <track hide="audio" producer="playlist28"/>
  <track hide="both" producer="playlist29"/>
 </tractor>
 <producer title="Anonymous Submission" id="9_playlist13" in="00:00:00.000" out="00:15:14.733">
  <property name="length">27443</property>
  <property name="eof">pause</property>
  <property name="resource">record-20201021-164952.mp4</property>
  <property name="audio_index">-1</property>
  <property name="video_index">0</property>
  <property name="mute_on_pause">1</property>
  <property name="mlt_service">avformat-novalidate</property>
  <property name="seekable">1</property>
  <property name="aspect_ratio">1</property>
  <property name="kdenlive:folderid">-1</property>
  <property name="kdenlive:file_size">686022290</property>
  <property name="kdenlive:file_hash">bd37a40b203be5a4a9b2e15035c76ad5</property>
  <property name="global_feed">1</property>
  <property name="kdenlive:zone_in">1445</property>
  <property name="kdenlive:zone_out">27442</property>
  <property name="xml">was here</property>
  <property name="meta.media.nb_streams">1</property>
  <property name="meta.media.0.stream.type">video</property>
  <property name="meta.media.0.stream.frame_rate">49.1846</property>
  <property name="meta.media.0.stream.sample_aspect_ratio">1</property>
  <property name="meta.media.0.codec.width">720</property>
  <property name="meta.media.0.codec.height">1280</property>
  <property name="meta.media.0.codec.rotate">0</property>
  <property name="meta.media.0.codec.frame_rate">90000</property>
  <property name="meta.media.0.codec.pix_fmt">yuv420p</property>
  <property name="meta.media.0.codec.sample_aspect_ratio">0</property>
  <property name="meta.media.0.codec.colorspace">601</property>
  <property name="meta.media.0.codec.color_trc">6</property>
  <property name="meta.media.0.codec.name">h264</property>
  <property name="meta.media.0.codec.long_name">H.264 / AVC / MPEG-4 AVC / MPEG-4 part 10</property>
  <property name="meta.media.0.codec.bit_rate">5994807</property>
  <property name="meta.attr.0.stream.creation_time.markup">2020-10-21T09:05:07.000000Z</property>
  <property name="meta.attr.0.stream.language.markup">eng</property>
  <property name="meta.attr.0.stream.handler_name.markup">VideoHandle</property>
  <property name="meta.attr.major_brand.markup">mp42</property>
  <property name="meta.attr.minor_version.markup">0</property>
  <property name="meta.attr.compatible_brands.markup">isommp42</property>
  <property name="meta.attr.creation_time.markup">2020-10-21T09:05:07.000000Z</property>
  <property name="meta.attr.com.android.version.markup">8.0.0</property>
  <property name="meta.media.sample_aspect_num">1</property>
  <property name="meta.media.sample_aspect_den">1</property>
  <property name="meta.media.frame_rate_num">541</property>
  <property name="meta.media.frame_rate_den">11</property>
  <property name="meta.media.colorspace">601</property>
  <property name="meta.media.color_trc">6</property>
  <property name="meta.media.width">720</property>
  <property name="meta.media.height">1280</property>
  <property name="meta.media.variable_frame_rate">1</property>
  <property name="meta.media.top_field_first">0</property>
  <property name="meta.media.progressive">1</property>
  <property name="kdenlive:id">10</property>
  <property name="meta.media.color_range">mpeg</property>
 </producer>
 <playlist id="playlist30">
  <blank length="00:00:15.200"/>
  <entry producer="9_playlist13" in="00:12:13.467" out="00:12:27.667">
   <property name="kdenlive:id">10</property>
   <property name="kdenlive:activeeffect">0</property>
   <filter id="filter31">
    <property name="mlt_service">crop</property>
    <property name="kdenlive_id">crop</property>
    <property name="top">40</property>
    <property name="left">0</property>
    <property name="bottom">350</property>
    <property name="right">0</property>
    <property name="center">0</property>
    <property name="center_bias">0</property>
    <property name="use_profile">0</property>
    <property name="kdenlive:collapsed">0</property>
   </filter>
  </entry>
 </playlist>
 <playlist id="playlist31"/>
 <tractor id="tractor15" in="00:00:00.000" out="00:00:29.400">
  <property name="kdenlive:trackheight">67</property>
  <property name="kdenlive:collapsed">0</property>
  <property name="kdenlive:track_name">Video 10</property>
  <property name="kdenlive:thumbs_format"/>
  <property name="kdenlive:audio_rec"/>
  <property name="kdenlive:timeline_active"/>
  <track hide="audio" producer="playlist30"/>
  <track hide="both" producer="playlist31"/>
 </tractor>
 <playlist id="playlist32">
  <blank length="00:00:15.200"/>
  <entry producer="11" in="00:00:05.333" out="00:00:10.333">
   <property name="kdenlive:id">11</property>
  </entry>
  <entry producer="12" in="00:00:00.000" out="00:00:08.333">
   <property name="kdenlive:id">12</property>
  </entry>
 </playlist>
 <playlist id="playlist33"/>
 <tractor id="tractor16" in="00:00:00.000" out="00:00:28.567">
  <property name="kdenlive:trackheight">67</property>
  <property name="kdenlive:collapsed">0</property>
  <property name="kdenlive:track_name">Video 8</property>
  <property name="kdenlive:thumbs_format"/>
  <property name="kdenlive:audio_rec"/>
  <property name="kdenlive:timeline_active"/>
  <track hide="audio" producer="playlist32"/>
  <track hide="both" producer="playlist33"/>
 </tractor>
 <producer title="Anonymous Submission" id="producer8" in="00:00:00.000" out="00:24:40.500">
  <property name="length">44416</property>
  <property name="eof">pause</property>
  <property name="resource">2020-10-21 16-44-56.mkv</property>
  <property name="audio_index">1</property>
  <property name="video_index">0</property>
  <property name="mute_on_pause">1</property>
  <property name="mlt_service">avformat-novalidate</property>
  <property name="seekable">1</property>
  <property name="aspect_ratio">1</property>
  <property name="kdenlive:folderid">-1</property>
  <property name="kdenlive:file_size">55118377</property>
  <property name="kdenlive:file_hash">f2182e66d3381557a43575618d5bb78c</property>
  <property name="global_feed">1</property>
  <property name="kdenlive:id">4</property>
  <property name="xml">was here</property>
  <property name="meta.media.nb_streams">2</property>
  <property name="meta.media.0.stream.type">video</property>
  <property name="meta.media.0.stream.frame_rate">30</property>
  <property name="meta.media.0.stream.sample_aspect_ratio">0</property>
  <property name="meta.media.0.codec.width">1280</property>
  <property name="meta.media.0.codec.height">720</property>
  <property name="meta.media.0.codec.rotate">0</property>
  <property name="meta.media.0.codec.frame_rate">30</property>
  <property name="meta.media.0.codec.pix_fmt">yuv420p</property>
  <property name="meta.media.0.codec.sample_aspect_ratio">0</property>
  <property name="meta.media.0.codec.colorspace">709</property>
  <property name="meta.media.0.codec.name">h264</property>
  <property name="meta.media.0.codec.long_name">H.264 / AVC / MPEG-4 AVC / MPEG-4 part 10</property>
  <property name="meta.media.0.codec.bit_rate">0</property>
  <property name="meta.attr.0.stream.DURATION.markup">00:24:40.533000000</property>
  <property name="meta.media.1.stream.type">audio</property>
  <property name="meta.media.1.codec.sample_fmt">fltp</property>
  <property name="meta.media.1.codec.sample_rate">44100</property>
  <property name="meta.media.1.codec.channels">2</property>
  <property name="meta.media.1.codec.name">aac</property>
  <property name="meta.media.1.codec.long_name">AAC (Advanced Audio Coding)</property>
  <property name="meta.media.1.codec.bit_rate">0</property>
  <property name="meta.attr.1.stream.title.markup">simple_aac_recording</property>
  <property name="meta.attr.1.stream.DURATION.markup">00:24:40.458000000</property>
  <property name="meta.attr.ENCODER.markup">Lavf58.29.100</property>
  <property name="meta.media.sample_aspect_num">1</property>
  <property name="meta.media.sample_aspect_den">1</property>
  <property name="meta.media.frame_rate_num">30</property>
  <property name="meta.media.frame_rate_den">1</property>
  <property name="meta.media.colorspace">709</property>
  <property name="meta.media.color_trc">2</property>
  <property name="meta.media.width">1280</property>
  <property name="meta.media.height">720</property>
  <property name="meta.media.top_field_first">0</property>
  <property name="meta.media.progressive">1</property>
  <property name="meta.media.color_range">mpeg</property>
  <property name="set.test_audio">1</property>
  <property name="set.test_image">0</property>
 </producer>
 <producer id="producer9" in="00:00:00.000" out="00:17:45.900">
  <property name="length">31980</property>
  <property name="eof">pause</property>
  <property name="resource">1.388889:2020-10-21 16-44-56.mkv</property>
  <property name="aspect_ratio">1</property>
  <property name="meta.media.nb_streams">2</property>
  <property name="meta.media.0.stream.type">video</property>
  <property name="meta.media.0.stream.frame_rate">30</property>
  <property name="meta.media.0.stream.sample_aspect_ratio">0</property>
  <property name="meta.media.0.codec.width">1280</property>
  <property name="meta.media.0.codec.height">720</property>
  <property name="meta.media.0.codec.rotate">0</property>
  <property name="meta.media.0.codec.frame_rate">30</property>
  <property name="meta.media.0.codec.pix_fmt">yuv420p</property>
  <property name="meta.media.0.codec.sample_aspect_ratio">0</property>
  <property name="meta.media.0.codec.colorspace">709</property>
  <property name="meta.media.0.codec.name">h264</property>
  <property name="meta.media.0.codec.long_name">H.264 / AVC / MPEG-4 AVC / MPEG-4 part 10</property>
  <property name="meta.media.0.codec.bit_rate">0</property>
  <property name="meta.attr.0.stream.DURATION.markup">00:24:40.533000000</property>
  <property name="meta.media.1.stream.type">audio</property>
  <property name="meta.media.1.codec.sample_fmt">fltp</property>
  <property name="meta.media.1.codec.sample_rate">44100</property>
  <property name="meta.media.1.codec.channels">2</property>
  <property name="meta.media.1.codec.name">aac</property>
  <property name="meta.media.1.codec.long_name">AAC (Advanced Audio Coding)</property>
  <property name="meta.media.1.codec.bit_rate">0</property>
  <property name="meta.attr.1.stream.title.markup">simple_aac_recording</property>
  <property name="meta.attr.1.stream.DURATION.markup">00:24:40.458000000</property>
  <property name="meta.attr.ENCODER.markup">Lavf58.29.100</property>
  <property name="seekable">1</property>
  <property name="meta.media.sample_aspect_num">1</property>
  <property name="meta.media.sample_aspect_den">1</property>
  <property name="audio_index">1</property>
  <property name="video_index">0</property>
  <property name="mute_on_pause">1</property>
  <property name="warp_speed">1.38889</property>
  <property name="warp_resource">2020-10-21 16-44-56.mkv</property>
  <property name="mlt_service">timewarp</property>
  <property name="set.test_audio">1</property>
  <property name="set.test_image">0</property>
  <property name="warp_pitch">0</property>
  <property name="meta.media.frame_rate_num">30</property>
  <property name="meta.media.frame_rate_den">1</property>
  <property name="meta.media.colorspace">709</property>
  <property name="meta.media.color_trc">2</property>
  <property name="meta.media.width">1280</property>
  <property name="meta.media.height">720</property>
  <property name="meta.media.color_range">mpeg</property>
  <property name="meta.media.top_field_first">0</property>
  <property name="meta.media.progressive">1</property>
 </producer>
 <playlist id="playlist34">
  <blank length="00:00:32.833"/>
  <entry producer="producer8" in="00:16:13.267" out="00:16:23.467">
   <property name="kdenlive:id">4</property>
   <property name="kdenlive:activeeffect">0</property>
   <filter id="filter32">
    <property name="mlt_service">crop</property>
    <property name="kdenlive_id">crop</property>
    <property name="top">40</property>
    <property name="left">30</property>
    <property name="bottom">35</property>
    <property name="right">100</property>
    <property name="center">0</property>
    <property name="center_bias">0</property>
    <property name="use_profile">0</property>
    <property name="kdenlive:collapsed">0</property>
   </filter>
  </entry>
  <blank length="00:00:05.000"/>
  <entry producer="producer8" in="00:16:23.500" out="00:16:24.833">
   <property name="kdenlive:id">4</property>
   <property name="kdenlive:activeeffect">0</property>
   <filter id="filter33">
    <property name="mlt_service">crop</property>
    <property name="kdenlive_id">comp_crop</property>
    <property name="top">40</property>
    <property name="left">30</property>
    <property name="bottom">35</property>
    <property name="right">100</property>
    <property name="center">0</property>
    <property name="center_bias">0</property>
    <property name="use_profile">0</property>
    <property name="kdenlive:collapsed">0</property>
   </filter>
  </entry>
  <blank length="00:00:10.000"/>
  <entry producer="producer8" in="00:16:25.833" out="00:16:27.633">
   <property name="kdenlive:id">4</property>
   <property name="kdenlive:activeeffect">0</property>
   <filter id="filter34">
    <property name="mlt_service">crop</property>
    <property name="kdenlive_id">comp_crop</property>
    <property name="top">40</property>
    <property name="left">30</property>
    <property name="bottom">35</property>
    <property name="right">100</property>
    <property name="center">0</property>
    <property name="center_bias">0</property>
    <property name="use_profile">0</property>
    <property name="kdenlive:collapsed">0</property>
   </filter>
  </entry>
  <entry producer="producer8" in="00:16:27.667" out="00:16:29.567">
   <property name="kdenlive:id">4</property>
   <property name="kdenlive:activeeffect">0</property>
   <filter id="filter35">
    <property name="mlt_service">crop</property>
    <property name="kdenlive_id">comp_crop</property>
    <property name="top">40</property>
    <property name="left">30</property>
    <property name="bottom">35</property>
    <property name="right">100</property>
    <property name="center">0</property>
    <property name="center_bias">0</property>
    <property name="use_profile">0</property>
    <property name="kdenlive:collapsed">0</property>
   </filter>
  </entry>
  <entry producer="producer9" in="00:11:52.500" out="00:11:53.067">
   <property name="kdenlive:id">4</property>
   <property name="kdenlive:activeeffect">0</property>
   <filter id="filter36">
    <property name="mlt_service">crop</property>
    <property name="kdenlive_id">comp_crop</property>
    <property name="top">40</property>
    <property name="left">30</property>
    <property name="bottom">35</property>
    <property name="right">100</property>
    <property name="center">0</property>
    <property name="center_bias">0</property>
    <property name="use_profile">0</property>
    <property name="kdenlive:collapsed">0</property>
   </filter>
  </entry>
  <entry producer="22" in="00:00:00.000" out="00:00:00.900">
   <property name="kdenlive:id">21</property>
   <property name="kdenlive:activeeffect">1</property>
   <filter id="filter37">
    <property name="background">colour:0</property>
    <property name="mlt_service">affine</property>
    <property name="kdenlive_id">pan_zoom</property>
    <property name="transition.geometry">0=0 0 1920 1080;9=115 460 1100 619</property>
    <property name="transition.distort">0</property>
    <property name="use_normalised">0</property>
    <property name="producer.resource">0x00000000</property>
    <property name="kdenlive:collapsed">0</property>
   </filter>
   <filter id="filter38">
    <property name="mlt_service">crop</property>
    <property name="kdenlive_id">comp_crop</property>
    <property name="top">40</property>
    <property name="left">30</property>
    <property name="bottom">35</property>
    <property name="right">100</property>
    <property name="center">0</property>
    <property name="center_bias">0</property>
    <property name="use_profile">0</property>
    <property name="kdenlive:collapsed">0</property>
   </filter>
  </entry>
 </playlist>
 <playlist id="playlist35"/>
 <tractor id="tractor17" in="00:00:00.000" out="00:01:04.700">
  <property name="kdenlive:trackheight">67</property>
  <property name="kdenlive:collapsed">0</property>
  <property name="kdenlive:track_name">Video 11</property>
  <property name="kdenlive:thumbs_format"/>
  <property name="kdenlive:audio_rec"/>
  <property name="kdenlive:timeline_active"/>
  <track hide="audio" producer="playlist34"/>
  <track hide="both" producer="playlist35"/>
 </tractor>
 <playlist id="playlist36">
  <blank length="00:00:32.833"/>
  <entry producer="15" in="00:00:00.000" out="00:00:04.967">
   <property name="kdenlive:id">15</property>
  </entry>
  <entry producer="16" in="00:00:00.000" out="00:00:04.967">
   <property name="kdenlive:id">16</property>
  </entry>
  <blank length="00:00:00.233"/>
  <entry producer="18" in="00:00:00.000" out="00:00:04.967">
   <property name="kdenlive:id">18</property>
  </entry>
  <blank length="00:00:01.367"/>
  <entry producer="20" in="00:00:00.000" out="00:00:04.967">
   <property name="kdenlive:id">19</property>
  </entry>
  <entry producer="21" in="00:00:00.000" out="00:00:04.967">
   <property name="kdenlive:id">20</property>
  </entry>
 </playlist>
 <playlist id="playlist37"/>
 <tractor id="tractor18" in="00:00:00.000" out="00:00:59.400">
  <property name="kdenlive:trackheight">67</property>
  <property name="kdenlive:collapsed">0</property>
  <property name="kdenlive:track_name">Video 5</property>
  <property name="kdenlive:thumbs_format"/>
  <property name="kdenlive:audio_rec"/>
  <property name="kdenlive:timeline_active"/>
  <track hide="audio" producer="playlist36"/>
  <track hide="both" producer="playlist37"/>
 </tractor>
 <playlist id="playlist38"/>
 <playlist id="playlist39"/>
 <tractor id="tractor19" in="00:00:00.000">
  <property name="kdenlive:trackheight">67</property>
  <property name="kdenlive:collapsed">0</property>
  <property name="kdenlive:track_name">Video 12</property>
  <property name="kdenlive:thumbs_format"/>
  <property name="kdenlive:audio_rec"/>
  <property name="kdenlive:timeline_active"/>
  <track hide="audio" producer="playlist38"/>
  <track hide="both" producer="playlist39"/>
 </tractor>
 <tractor id="tractor20" global_feed="1" in="00:00:00.000" out="00:19:56.100">
  <track producer="black_track"/>
  <track producer="tractor0"/>
  <track producer="tractor1"/>
  <track producer="tractor2"/>
  <track producer="tractor3"/>
  <track producer="tractor4"/>
  <track producer="tractor5"/>
  <track producer="tractor6"/>
  <track producer="tractor7"/>
  <track producer="tractor8"/>
  <track producer="tractor9"/>
  <track producer="tractor10"/>
  <track producer="tractor11"/>
  <track producer="tractor12"/>
  <track producer="tractor13"/>
  <track producer="tractor14"/>
  <track producer="tractor15"/>
  <track producer="tractor16"/>
  <track producer="tractor17"/>
  <track producer="tractor18"/>
  <track producer="tractor19"/>
  <transition id="transition0">
   <property name="a_track">0</property>
   <property name="b_track">1</property>
   <property name="mlt_service">mix</property>
   <property name="kdenlive_id">mix</property>
   <property name="internal_added">237</property>
   <property name="always_active">1</property>
   <property name="sum">1</property>
  </transition>
  <transition id="transition1">
   <property name="a_track">0</property>
   <property name="b_track">2</property>
   <property name="mlt_service">mix</property>
   <property name="kdenlive_id">mix</property>
   <property name="internal_added">237</property>
   <property name="always_active">1</property>
   <property name="sum">1</property>
  </transition>
  <transition id="transition2">
   <property name="a_track">0</property>
   <property name="b_track">3</property>
   <property name="mlt_service">mix</property>
   <property name="kdenlive_id">mix</property>
   <property name="internal_added">237</property>
   <property name="always_active">1</property>
   <property name="sum">1</property>
  </transition>
  <transition id="transition3">
   <property name="a_track">0</property>
   <property name="b_track">4</property>
   <property name="mlt_service">mix</property>
   <property name="kdenlive_id">mix</property>
   <property name="internal_added">237</property>
   <property name="always_active">1</property>
   <property name="sum">1</property>
  </transition>
  <transition id="transition4">
   <property name="a_track">0</property>
   <property name="b_track">5</property>
   <property name="mlt_service">mix</property>
   <property name="kdenlive_id">mix</property>
   <property name="internal_added">237</property>
   <property name="always_active">1</property>
   <property name="sum">1</property>
  </transition>
  <transition id="transition5">
   <property name="a_track">0</property>
   <property name="b_track">6</property>
   <property name="mlt_service">mix</property>
   <property name="kdenlive_id">mix</property>
   <property name="internal_added">237</property>
   <property name="always_active">1</property>
   <property name="sum">1</property>
  </transition>
  <transition id="transition6">
   <property name="a_track">0</property>
   <property name="b_track">7</property>
   <property name="mlt_service">mix</property>
   <property name="kdenlive_id">mix</property>
   <property name="internal_added">237</property>
   <property name="always_active">1</property>
   <property name="sum">1</property>
  </transition>
  <transition id="transition7">
   <property name="a_track">0</property>
   <property name="b_track">8</property>
   <property name="compositing">0</property>
   <property name="distort">0</property>
   <property name="rotate_center">0</property>
   <property name="mlt_service">qtblend</property>
   <property name="kdenlive_id">qtblend</property>
   <property name="internal_added">237</property>
   <property name="always_active">1</property>
  </transition>
  <transition id="transition8">
   <property name="a_track">0</property>
   <property name="b_track">9</property>
   <property name="compositing">0</property>
   <property name="distort">0</property>
   <property name="rotate_center">0</property>
   <property name="mlt_service">qtblend</property>
   <property name="kdenlive_id">qtblend</property>
   <property name="internal_added">237</property>
   <property name="always_active">1</property>
  </transition>
  <transition id="transition9">
   <property name="a_track">0</property>
   <property name="b_track">10</property>
   <property name="compositing">0</property>
   <property name="distort">0</property>
   <property name="rotate_center">0</property>
   <property name="mlt_service">qtblend</property>
   <property name="kdenlive_id">qtblend</property>
   <property name="internal_added">237</property>
   <property name="always_active">1</property>
  </transition>
  <transition id="transition10">
   <property name="a_track">0</property>
   <property name="b_track">11</property>
   <property name="compositing">0</property>
   <property name="distort">0</property>
   <property name="rotate_center">0</property>
   <property name="mlt_service">qtblend</property>
   <property name="kdenlive_id">qtblend</property>
   <property name="internal_added">237</property>
   <property name="always_active">1</property>
  </transition>
  <transition id="transition11">
   <property name="a_track">0</property>
   <property name="b_track">12</property>
   <property name="compositing">0</property>
   <property name="distort">0</property>
   <property name="rotate_center">0</property>
   <property name="mlt_service">qtblend</property>
   <property name="kdenlive_id">qtblend</property>
   <property name="internal_added">237</property>
   <property name="always_active">1</property>
  </transition>
  <transition id="transition12">
   <property name="a_track">0</property>
   <property name="b_track">13</property>
   <property name="compositing">0</property>
   <property name="distort">0</property>
   <property name="rotate_center">0</property>
   <property name="mlt_service">qtblend</property>
   <property name="kdenlive_id">qtblend</property>
   <property name="internal_added">237</property>
   <property name="always_active">1</property>
  </transition>
  <transition id="transition13">
   <property name="a_track">0</property>
   <property name="b_track">14</property>
   <property name="compositing">0</property>
   <property name="distort">0</property>
   <property name="rotate_center">0</property>
   <property name="mlt_service">qtblend</property>
   <property name="kdenlive_id">qtblend</property>
   <property name="internal_added">237</property>
   <property name="always_active">1</property>
  </transition>
  <transition id="transition14">
   <property name="a_track">0</property>
   <property name="b_track">15</property>
   <property name="compositing">0</property>
   <property name="distort">0</property>
   <property name="rotate_center">0</property>
   <property name="mlt_service">qtblend</property>
   <property name="kdenlive_id">qtblend</property>
   <property name="internal_added">237</property>
   <property name="always_active">1</property>
  </transition>
  <transition id="transition15">
   <property name="a_track">0</property>
   <property name="b_track">16</property>
   <property name="compositing">0</property>
   <property name="distort">0</property>
   <property name="rotate_center">0</property>
   <property name="mlt_service">qtblend</property>
   <property name="kdenlive_id">qtblend</property>
   <property name="internal_added">237</property>
   <property name="always_active">1</property>
  </transition>
  <transition id="transition16">
   <property name="a_track">0</property>
   <property name="b_track">17</property>
   <property name="compositing">0</property>
   <property name="distort">0</property>
   <property name="rotate_center">0</property>
   <property name="mlt_service">qtblend</property>
   <property name="kdenlive_id">qtblend</property>
   <property name="internal_added">237</property>
   <property name="always_active">1</property>
  </transition>
  <transition id="transition17">
   <property name="a_track">0</property>
   <property name="b_track">18</property>
   <property name="compositing">0</property>
   <property name="distort">0</property>
   <property name="rotate_center">0</property>
   <property name="mlt_service">qtblend</property>
   <property name="kdenlive_id">qtblend</property>
   <property name="internal_added">237</property>
   <property name="always_active">1</property>
  </transition>
  <transition id="transition18">
   <property name="a_track">0</property>
   <property name="b_track">19</property>
   <property name="compositing">0</property>
   <property name="distort">0</property>
   <property name="rotate_center">0</property>
   <property name="mlt_service">qtblend</property>
   <property name="kdenlive_id">qtblend</property>
   <property name="internal_added">237</property>
   <property name="always_active">1</property>
  </transition>
  <transition id="transition19">
   <property name="a_track">0</property>
   <property name="b_track">20</property>
   <property name="compositing">0</property>
   <property name="distort">0</property>
   <property name="rotate_center">0</property>
   <property name="mlt_service">qtblend</property>
   <property name="kdenlive_id">qtblend</property>
   <property name="internal_added">237</property>
   <property name="always_active">1</property>
  </transition>
  <filter id="filter39">
   <property name="window">75</property>
   <property name="max_gain">20dB</property>
   <property name="mlt_service">volume</property>
   <property name="internal_added">237</property>
   <property name="disable">1</property>
  </filter>
  <filter id="filter40">
   <property name="channel">-1</property>
   <property name="mlt_service">panner</property>
   <property name="internal_added">237</property>
   <property name="start">0.5</property>
   <property name="disable">1</property>
  </filter>
  <filter id="filter41">
   <property name="iec_scale">0</property>
   <property name="mlt_service">audiolevel</property>
   <property name="disable">1</property>
  </filter>
 </tractor>
</mlt>
